<svg id="Layer_1" data-name="Layer 1" xmlns="http://www.w3.org/2000/svg" xmlns:xlink="http://www.w3.org/1999/xlink" viewBox="0 0 112.73 97.37"><defs><style>.cls-1{fill:#29222d;}.cls-2{fill:#584d5e;}.cls-3{fill:#7e8a98;}.cls-4{fill:#3a0907;}.cls-5{fill:#ebf2f1;}.cls-6{fill:#b5c8d6;}.cls-7{fill:#273044;}.cls-8{fill:#d42900;}.cls-9{fill:#fe411b;}.cls-10{fill:#2c2b3f;}.cls-11{fill:#1a1a28;}.cls-12{fill:#bf0606;}.cls-13{fill:#061428;}.cls-14{fill:#a3bbc9;}.cls-15{fill:#f58c6c;}.cls-16{fill:#002b35;opacity:0.17;}.cls-17{fill:#11253d;}.cls-18{fill:#9db5c4;}.cls-19{fill:#6d3131;}.cls-20{fill:#f96;}.cls-21{fill:#c6c5c4;}.cls-22{fill:#93afbc;}.cls-23{fill:#cce2e0;}.cls-24{fill:#d3eae9;}.cls-25,.cls-90,.cls-94{fill:#fff;}.cls-26{fill:#9ac918;}.cls-27{fill:#87b20f;}.cls-28{fill:#dfefec;}.cls-29{fill:#76a00e;}.cls-30{fill:#a5c3d6;}.cls-31{fill:#f4f4f4;}.cls-32{fill:#252533;}.cls-33{fill:#bebecb;}.cls-34{fill:#262534;}.cls-35{fill:#85c6c6;}.cls-36{fill:#030e1c;}.cls-37{fill:#ffb288;}.cls-38{fill:#602018;}.cls-39{fill:#ad5d3d;}.cls-40{fill:#2d6fbd;}.cls-41{fill:#175696;}.cls-42{fill:#85becc;}.cls-43{fill:#53b4ea;}.cls-44{fill:#0d3672;}.cls-45{fill:#fcba00;}.cls-46{fill:#abcec8;}.cls-47{fill:#e2e1de;}.cls-48{fill:#ff947b;}.cls-49{fill:#f48f6d;}.cls-50{fill:#e8735b;}.cls-51{fill:#8e3d34;}.cls-52{fill:#fffae6;opacity:0.25;}.cls-53{fill:#d9e8e5;}.cls-54{fill:#edf7f5;}.cls-55{fill:#c1d3d3;}.cls-56{fill:#3a98d8;}.cls-57{fill:#a2c506;}.cls-58{fill:#c5d3d1;}.cls-59{fill:#97af0b;}.cls-60{fill:#bad807;}.cls-61{fill:#022651;}.cls-61,.cls-80{opacity:0.15;}.cls-62{fill:#ff6f4d;}.cls-63{fill:#fffa4d;}.cls-64{fill:#ff0;}.cls-65{fill:#fffda4;opacity:0.35;}.cls-66{fill:#db1935;}.cls-67{fill:#f52f30;}.cls-68{fill:#f2f7f6;}.cls-69{fill:#1f4975;}.cls-70{fill:#d10f0f;}.cls-71{fill:#ea9639;}.cls-72{fill:#feae4d;}.cls-73{fill:#ffd59d;}.cls-74{fill:#f0f7f6;}.cls-75{fill:#dfe5e4;}.cls-76{fill:#ffcd2c;}.cls-77{fill:#ffa300;}.cls-78{fill:#774701;}.cls-79{fill:#f1ff9c;opacity:0.24;}.cls-80{fill:#41442e;}.cls-81{fill:#5f890c;}.cls-82{fill:#728c04;}.cls-83{fill:#1850aa;}.cls-84{fill:#fecb00;}.cls-85{fill:#ffe18d;}.cls-86{fill:#efac06;}.cls-87{fill:#eefeff;}.cls-88{fill:#ff9700;}.cls-89{fill:#f92828;}.cls-90{font-size:4.51px;font-family:Reisenberg, Reisenberg;}.cls-91{letter-spacing:-0.05em;}.cls-92{letter-spacing:0em;}.cls-93{fill:#33f;}.cls-94{font-size:2.49px;font-family:Eternal, Eternal;}</style></defs><title>hero-1</title><polygon class="cls-1" points="44.68 72.39 55.26 76.56 65 72.33 44.68 72.39"/><ellipse class="cls-2" cx="36.9" cy="93.6" rx="2.05" ry="1.85"/><path class="cls-2" d="M54,94.31l-2,.29-.18-1A3.85,3.85,0,0,1,55,89.06l17-2.5.36,2-17,2.5a1.93,1.93,0,0,0-1.6,2.28Z" transform="translate(-15.63 -0.96)"/><path class="cls-2" d="M87.27,94.31l2,.29.18-1a3.85,3.85,0,0,0-3.21-4.54l-17-2.5-.36,2,17,2.5a1.93,1.93,0,0,1,1.6,2.28Z" transform="translate(-15.63 -0.96)"/><ellipse class="cls-2" cx="73.06" cy="93.6" rx="2.05" ry="1.85"/><rect class="cls-3" x="53.56" y="75.95" width="2.83" height="8.17"/><rect class="cls-2" x="52.74" y="83.32" width="4.48" height="5.57" rx="2.24" ry="2.24"/><path class="cls-4" d="M69.35,90.6H61.64v1.19a4.77,4.77,0,0,0-.76-.06c-2.33,0-4.22,1.43-4.22,3.19,0,1.39,5.24,1.68,7.46.88h5.23Z" transform="translate(-15.63 -0.96)"/><rect class="cls-5" x="17.13" y="56.26" width="3.07" height="39.21"/><rect class="cls-6" x="17.13" y="56.26" width="3.07" height="4.97"/><rect class="cls-5" x="24.35" y="56.26" width="3.07" height="39.21"/><rect class="cls-6" x="24.35" y="56.26" width="3.07" height="12.34"/><rect class="cls-5" x="105.84" y="57.22" width="3.07" height="39.21" transform="translate(199.11 152.7) rotate(180)"/><rect class="cls-6" x="105.84" y="57.22" width="3.07" height="4.97" transform="translate(199.11 118.46) rotate(180)"/><rect class="cls-5" x="98.62" y="57.22" width="3.07" height="39.21" transform="translate(184.67 152.7) rotate(180)"/><rect class="cls-6" x="98.62" y="57.22" width="3.07" height="12.34" transform="translate(184.67 125.83) rotate(180)"/><path class="cls-2" d="M83.19,72.23l4.16,0A4.58,4.58,0,0,0,92,67.91c0-2.73,0-6.38,0-8.24l-2.12,0c0,1.87,0,5.52,0,8.26a2.55,2.55,0,0,1-2.61,2.39H83.19Z" transform="translate(-15.63 -0.96)"/><path class="cls-7" d="M87.81,71l-4.67,0v-.69h4.15a2.56,2.56,0,0,0,2.61-2.39c0-2.74,0-6.39,0-8.26h.87c0,2.1,0,5.87,0,8.72A2.85,2.85,0,0,1,87.81,71Z" transform="translate(-15.63 -0.96)"/><rect class="cls-8" x="87.02" y="58.17" width="7.91" height="3.46" rx="1.67" ry="1.67" transform="translate(166.32 118.83) rotate(-180)"/><path class="cls-9" d="M88.71,59.66h4.5a.78.78,0,0,0,.82-.74h0a.78.78,0,0,0-.82-.74h-4.5a.79.79,0,0,0-.83.74h0A.79.79,0,0,0,88.71,59.66Z" transform="translate(-15.63 -0.96)"/><rect class="cls-10" x="52.4" y="61.06" width="5.59" height="7.99"/><rect class="cls-11" x="56.27" y="61.06" width="1.73" height="7.99"/><rect class="cls-11" x="52.4" y="62.88" width="5.59" height="1.48"/><path class="cls-9" d="M55.2,25.62h0A15.32,15.32,0,0,1,70.52,40.93V57.57a6,6,0,0,1-6,6H45.91a6,6,0,0,1-6-6V40.93A15.32,15.32,0,0,1,55.2,25.62Z"/><path class="cls-8" d="M70.83,26.59h0a15.16,15.16,0,0,0-2,.13c9.16-.13,13.28,7.55,13.28,15.41v12.1a6.09,6.09,0,0,1-6,6.15H57.51a6.12,6.12,0,0,1-1.77-.28,6,6,0,0,0,5.8,4.47H80.12a6.07,6.07,0,0,0,6-6.13V42.13C86.59,32.61,79.25,26.59,70.83,26.59Z" transform="translate(-15.63 -0.96)"/><path class="cls-2" d="M58.72,72.23l-4.16,0a4.56,4.56,0,0,1-4.68-4.3c0-2.73,0-6.38,0-8.24l2.12,0c0,1.87,0,5.52,0,8.26A2.56,2.56,0,0,0,54.6,70.3h4.12Z" transform="translate(-15.63 -0.96)"/><path class="cls-7" d="M54.05,71l4.61,0v-.69H54.57A2.54,2.54,0,0,1,52,67.91c0-2.74,0-6.39,0-8.26H51.1c0,2.1,0,5.87,0,8.72A2.83,2.83,0,0,0,54.05,71Z" transform="translate(-15.63 -0.96)"/><rect class="cls-8" x="31.35" y="57.21" width="7.91" height="3.46" rx="1.67" ry="1.67"/><path class="cls-8" d="M83.63,73.54H58a2.41,2.41,0,0,1-2.52-2.27h0A2.41,2.41,0,0,1,58,69h25.6a2.41,2.41,0,0,1,2.52,2.27h0A2.41,2.41,0,0,1,83.63,73.54Z" transform="translate(-15.63 -0.96)"/><path class="cls-9" d="M83.55,71.27H58.26A1.2,1.2,0,0,1,57,70.13h0A1.2,1.2,0,0,1,58.26,69H83.55a1.21,1.21,0,0,1,1.26,1.13h0A1.21,1.21,0,0,1,83.55,71.27Z" transform="translate(-15.63 -0.96)"/><path class="cls-9" d="M53.2,59.66H48.7a.78.78,0,0,1-.82-.74h0a.78.78,0,0,1,.82-.74h4.5a.79.79,0,0,1,.83.74h0A.79.79,0,0,1,53.2,59.66Z" transform="translate(-15.63 -0.96)"/><path class="cls-12" d="M83.63,69H58a2.3,2.3,0,1,0,0,4.58h9.45c0-.2.06-.51.07-.81.18-7.25,6.43-6.32,6.88-.62a13.33,13.33,0,0,1,.09,1.43h9.11a2.3,2.3,0,1,0,0-4.58Z" transform="translate(-15.63 -0.96)"/><path class="cls-13" d="M78.23,35.6C74,33.65,72,34,71.14,33.93h-.3C70,34,68,33.65,63.75,35.6c-1,.47-3.71,1.64-4.36,2.8-.1.18.47.69.77,2A50.09,50.09,0,0,0,62,46.37c.17.5.64,8.74,1.55,10.48,1.5,2.84,14.82,0,14.82,0s1.38-10,1.55-10.48a50.09,50.09,0,0,0,1.87-5.93c.3-1.35.92-1.86.82-2C82,37.24,79.24,36.07,78.23,35.6Z" transform="translate(-15.63 -0.96)"/><path d="M70.89,58.38c-3-.29-5.66-2.18-8-1.37l-.43.17L58.72,63.4,65.36,69H76.09l7.1-5.59-3.57-6.32A24.94,24.94,0,0,1,70.89,58.38Z" transform="translate(-15.63 -0.96)"/><rect class="cls-14" x="46.6" y="50.73" width="17.5" height="7.23"/><path class="cls-9" d="M71,38.4c-.93,0-2.33,9.19-2.56,10.8a.55.55,0,0,0,.1.43l2.07,3a.66.66,0,0,0,1.1,0l1.72-2.94a.6.6,0,0,0,.08-.39C73.32,47.73,72,38.43,71,38.4Z" transform="translate(-15.63 -0.96)"/><path class="cls-9" d="M71,38.4c-.93,0-2.33,9.19-2.56,10.8a.55.55,0,0,0,.1.43l2.07,3a.66.66,0,0,0,1.1,0l1.72-2.94a.6.6,0,0,0,.08-.39C73.32,47.73,72,38.43,71,38.4Z" transform="translate(-15.63 -0.96)"/><path class="cls-8" d="M71,38.4c-.1,0-.2.1-.31.28a86.64,86.64,0,0,1,1.91,9.86,1.51,1.51,0,0,1,0,.93l-1,2.52a.66.66,0,0,1-1.22.19l.31.45a.66.66,0,0,0,1.1,0l1.72-2.94a.6.6,0,0,0,.08-.39C73.32,47.73,72,38.43,71,38.4Z" transform="translate(-15.63 -0.96)"/><path class="cls-9" d="M72,36.72a1.88,1.88,0,0,0-3,1.6c0,.64.59,1.23,1.14,1.62a1.47,1.47,0,0,0,1.62,0c.52-.36,1.11-.88,1.13-1.42A2.14,2.14,0,0,0,72,36.72Z" transform="translate(-15.63 -0.96)"/><path class="cls-15" d="M66.44,51.25c.45-.44,3.25-.58,4.37-.62a1.39,1.39,0,0,1,.84.25c1,.7,3.68,2.65,3.34,3.18-.25.38-2.42-.34-3.4-.7a1.44,1.44,0,0,0-1,0c-1,.37-3.37,1.14-4.12.64A2.11,2.11,0,0,1,66.44,51.25Z" transform="translate(-15.63 -0.96)"/><path class="cls-8" d="M71,38.4c-.28,0-.6.83-.92,2l.09.07a1.47,1.47,0,0,0,1.62,0l.11-.08C71.62,39.24,71.3,38.41,71,38.4Z" transform="translate(-15.63 -0.96)"/><path class="cls-9" d="M72,36.72a1.88,1.88,0,0,0-3,1.6c0,.64.59,1.23,1.14,1.62a1.47,1.47,0,0,0,1.62,0c.52-.36,1.11-.88,1.13-1.42A2.14,2.14,0,0,0,72,36.72Z" transform="translate(-15.63 -0.96)"/><path class="cls-16" d="M76.12,34.77c-2.06-.11-7.69-.19-9.94-.07a4.71,4.71,0,0,0-1.4.46c0,3.51,3.89,5.85,3.89,5.85l2.32-4,2.65,4s3.86-3.11,3.44-5.91A2.5,2.5,0,0,0,76.12,34.77Z" transform="translate(-15.63 -0.96)"/><path class="cls-17" d="M74.76,34a17.77,17.77,0,0,0-7.85,0,2.54,2.54,0,0,0-1.6,1c0,3,3.45,4.9,3.45,4.9L71,36.25,73.53,40s3.52-2.45,3.1-4.83C76.6,34.93,76.09,34.36,74.76,34Z" transform="translate(-15.63 -0.96)"/><path class="cls-18" d="M71,33.52c-2.26,0-4.09.32-4.09.71s1.4,2,4.29,2,3.9-1.62,3.9-2S73.25,33.52,71,33.52Z" transform="translate(-15.63 -0.96)"/><path class="cls-15" d="M68.36,33.68v2a6.43,6.43,0,0,0,2.83.61,5.79,5.79,0,0,0,2.43-.46V32.61H68.36Z" transform="translate(-15.63 -0.96)"/><path class="cls-6" d="M61.1,36.94a19.75,19.75,0,0,0-1.72,1.14c.4,1.37,2.45,7.39,2.93,10.87.25,2.72.66,6.74,1.27,7.9A2.81,2.81,0,0,0,65.1,58c-.18-1.7-.45-4.26-.87-7.31C64,49.14,62.58,36.69,61.1,36.94Z" transform="translate(-15.63 -0.96)"/><path class="cls-6" d="M80.87,36.94a20,20,0,0,1,1.73,1.14c-.4,1.37-2.46,7.39-2.94,10.87-.25,2.72-.66,6.74-1.27,7.9A2.79,2.79,0,0,1,76.88,58c.17-1.7.44-4.26.86-7.31C78,49.14,79.39,36.69,80.87,36.94Z" transform="translate(-15.63 -0.96)"/><path class="cls-19" d="M62.24,57.22c-.32.67-.83,1.7-.83,1.7,3.38,2.47,16.54,2.7,19.13-.21,0,0-.54-.84-.45-1.26h0a25.15,25.15,0,0,1-9.24,1.48C67.42,58.91,63.25,57.89,62.24,57.22Z" transform="translate(-15.63 -0.96)"/><path class="cls-19" d="M76.9,57.83a2.74,2.74,0,0,0,1.5-1,5.1,5.1,0,0,0,.35-1c-.5.16-1.07.32-1.68.46Z" transform="translate(-15.63 -0.96)"/><path class="cls-20" d="M70.33,38.73a.37.37,0,0,0-.17.5.41.41,0,0,0,.45.32c.18,0,.25-.27.18-.5S70.5,38.68,70.33,38.73Z" transform="translate(-15.63 -0.96)"/><path class="cls-20" d="M69,49.16c.55,0,1-6.39,1-6.39S68.74,49.16,69,49.16Z" transform="translate(-15.63 -0.96)"/><path class="cls-21" d="M72.5,58.92H69.62a.41.41,0,0,0-.39.43v1a.41.41,0,0,0,.39.43H72.5a.41.41,0,0,0,.39-.43v-1A.41.41,0,0,0,72.5,58.92Zm.09,1.45s0,.19-.09.19H69.71c-.1,0-.21-.05-.21-.23v-.95a.17.17,0,0,1,.15-.17h2.88s.06,0,.06.08Z" transform="translate(-15.63 -0.96)"/><path class="cls-21" d="M71.05,60h1.68v-.27H71.05a.15.15,0,0,0-.15.14h0A.14.14,0,0,0,71.05,60Z" transform="translate(-15.63 -0.96)"/><path class="cls-22" d="M36.71,57.91h0Z" transform="translate(-15.63 -0.96)"/><path class="cls-22" d="M83.58,57.44h0Z" transform="translate(-15.63 -0.96)"/><path class="cls-23" d="M80.35,57.34h0Z" transform="translate(-15.63 -0.96)"/><path class="cls-22" d="M101.79,57.8h0Z" transform="translate(-15.63 -0.96)"/><path class="cls-22" d="M119.44,59.67h0Z" transform="translate(-15.63 -0.96)"/><path class="cls-24" d="M33.45,57.36h0Z" transform="translate(-15.63 -0.96)"/><rect class="cls-25" x="10.78" y="53.14" width="35.82" height="3.71"/><rect class="cls-26" x="1.86" y="47.58" width="33.28" height="5.34"/><path class="cls-27" d="M17.49,48.8c7.85.2,20.2-.9,20.47,4,0,.41,0,.79,0,1.08H50.7V48.54H17.47Z" transform="translate(-15.63 -0.96)"/><rect class="cls-28" x="22.48" y="47.58" width="12.66" height="5.34"/><polygon class="cls-29" points="22.89 48.21 35.43 48.21 35.43 47.58 22.89 47.58 22.07 47.58 22.07 48.21 22.07 52.92 22.89 52.92 35.49 52.92 35.49 52.28 22.89 52.28 22.89 48.21"/><rect class="cls-30" x="22.89" y="48.21" width="12.25" height="0.63"/><rect class="cls-31" x="3.73" y="49" width="7.09" height="2.48"/><rect class="cls-32" x="3.73" y="49" width="1.16" height="2.48"/><rect class="cls-33" x="7.83" y="49.41" width="0.76" height="1.67"/><rect class="cls-33" x="9.04" y="49.41" width="0.76" height="1.67"/><ellipse class="cls-29" cx="18.98" cy="50.25" rx="1.29" ry="1.16"/><ellipse class="cls-34" cx="19.17" cy="50.25" rx="1.1" ry="1.06"/><polygon class="cls-6" points="5.26 47.53 29.89 47.53 30.31 43.88 5.26 43.88 5.26 47.53"/><rect class="cls-25" x="5.26" y="43.88" width="17.97" height="3.65"/><polygon class="cls-6" points="4.33 43.88 28.88 43.88 28.88 38.55 4 38.55 4.33 43.88"/><polygon class="cls-25" points="4.33 43.88 21.88 43.88 21.88 38.55 4 38.55 4.33 43.88"/><polygon class="cls-6" points="5.35 34.9 5.35 38.55 30.61 38.55 30.23 34.9 5.35 34.9"/><polygon class="cls-25" points="5.35 34.9 5.09 38.55 23.52 38.55 23.23 34.9 5.35 34.9"/><path class="cls-6" d="M20.89,46.29c1.8-.16,3.59-.32,5.4-.46q6.34-.51,12.57-.9v-.09h-18Z" transform="translate(-15.63 -0.96)"/><path class="cls-6" d="M32.48,40.23q2.88.39,5.55.85V39.51H25.72Q29,39.78,32.48,40.23Z" transform="translate(-15.63 -0.96)"/><path class="cls-6" d="M37.51,43v-.57c-2.78,0-5,.09-5,.09S34.16,42.72,37.51,43Z" transform="translate(-15.63 -0.96)"/><polygon class="cls-6" points="20.4 36.95 20.95 36.15 14.58 36.15 20.4 36.95"/><polygon class="cls-6" points="9.98 46.54 14.62 45.4 8.09 45.82 9.98 46.54"/><path class="cls-25" d="M44.34,43.51l.1-.85c-1.89,0-3.82-.13-3.82-.13S42.26,43,44.34,43.51Z" transform="translate(-15.63 -0.96)"/><path class="cls-22" d="M54.89,57.82h0Z" transform="translate(-15.63 -0.96)"/><path class="cls-35" d="M121.55,98.34H20.36a1,1,0,1,1,0-1.9H121.55a1,1,0,1,1,0,1.9Z" transform="translate(-15.63 -0.96)"/><path class="cls-13" d="M60.53,37.35a10.49,10.49,0,0,0-4,3c-5.32,6.35-5.57,10.91-5.11,12s2.78,1.29,6.41,1.59c7,.57,9.34.07,9.34.07l.24-3.79-10.07-1s3.18-2.85,3.88-4.46C62.11,42.69,61.54,37.33,60.53,37.35Z" transform="translate(-15.63 -0.96)"/><path class="cls-36" d="M61.17,43.06c-.92,3.29-5,5.76-4.8,6.2.12.24.54.29,1.08.34,1,.1,6.44.57,10,.84v-.22l-10.07-1s4-3.44,5.12-5.73c.38-.75-.47-6.51-2-6.09C61,37.48,62,40.18,61.17,43.06Z" transform="translate(-15.63 -0.96)"/><path class="cls-36" d="M53.56,52.43a3,3,0,0,1-1.67-.8,3,3,0,0,1-.57-1.15,3.42,3.42,0,0,0,.11,1.87c.57,1.25,2.75,1.29,6.39,1.59,6.95.57,9.36.26,9.36.26l0-.9A104.76,104.76,0,0,1,53.56,52.43Z" transform="translate(-15.63 -0.96)"/><path class="cls-36" d="M56.91,48.94a2.2,2.2,0,0,0-1.27.25c-.61.23-1.24.58-1.2.66s.49-.16,1.28-.28c1.2-.19,2,0,2-.14S57.35,49,56.91,48.94Z" transform="translate(-15.63 -0.96)"/><path class="cls-37" d="M75.49,51c-.3-.54-2.94-1.39-4-1.71a1.39,1.39,0,0,0-.88,0c-1.19.42-4.37,1.6-4.21,2.19.12.43,2.43.29,3.48.21a1.41,1.41,0,0,1,.92.24c.86.62,2.88,2,3.75,1.67A2.17,2.17,0,0,0,75.49,51Z" transform="translate(-15.63 -0.96)"/><path class="cls-6" d="M88.42,52.43a3,3,0,0,0,1.67-.8,2.28,2.28,0,0,0,.53-1,5.07,5.07,0,0,1-.07,1.69c-.57,1.25-2.76,1.29-6.39,1.59-7,.57-9.37.26-9.37.26l0-.92A104.56,104.56,0,0,0,88.42,52.43Z" transform="translate(-15.63 -0.96)"/><path class="cls-6" d="M85.07,48.94a2.2,2.2,0,0,1,1.27.25c.61.23,1.24.58,1.2.66s-.49-.16-1.27-.28c-1.2-.19-2,0-2-.14S84.64,49,85.07,48.94Z" transform="translate(-15.63 -0.96)"/><path class="cls-38" d="M64.72,95.86c0-1.93-2.17-3.55-4.41-3.49-3.11.09-3.77,1.13-3.87,3.71,0,0,0-.28.16-.15h8.12Z" transform="translate(-15.63 -0.96)"/><path d="M69.35,96.46H56.71A.7.7,0,0,1,56,95.8h0a.7.7,0,0,1,.73-.66H69.35a.7.7,0,0,1,.73.66h0A.7.7,0,0,1,69.35,96.46Z" transform="translate(-15.63 -0.96)"/><path class="cls-13" d="M70.12,91.9l-11.25,0-4.2-23.36a5.08,5.08,0,0,1,4.55-5.73h0A5.5,5.5,0,0,1,65.54,67Z" transform="translate(-15.63 -0.96)"/><path class="cls-36" d="M63.28,67.57l4.38,24.25,2.42-.13L65.54,67a5.49,5.49,0,0,0-6.32-4.11h0a6,6,0,0,0-1.82.57A5.45,5.45,0,0,1,63.28,67.57Z" transform="translate(-15.63 -0.96)"/><path class="cls-17" d="M61.29,89.57h0a1,1,0,0,1-1.19-.79L56.67,68.64a1,1,0,0,1,.88-1.08h0a1,1,0,0,1,1.19.79l3.43,20.14A1,1,0,0,1,61.29,89.57Z" transform="translate(-15.63 -0.96)"/><ellipse class="cls-39" cx="58.74" cy="94.11" rx="0.99" ry="0.77" transform="translate(-54.85 41.08) rotate(-30.03)"/><path class="cls-4" d="M72.63,90.6h7.71v1.19a4.81,4.81,0,0,1,.77-.06c2.33,0,4.22,1.43,4.22,3.19,0,1.39-5.25,1.68-7.47.88H72.63Z" transform="translate(-15.63 -0.96)"/><path class="cls-38" d="M77.26,95.86c0-1.93,2.17-3.55,4.41-3.49,3.12.09,3.77,1.13,3.87,3.71,0,0,0-.28-.16-.15H77.26Z" transform="translate(-15.63 -0.96)"/><path d="M72.63,96.46H85.27A.7.7,0,0,0,86,95.8h0a.7.7,0,0,0-.73-.66H72.63a.7.7,0,0,0-.73.66h0A.7.7,0,0,0,72.63,96.46Z" transform="translate(-15.63 -0.96)"/><path class="cls-13" d="M71.86,91.9l11.26,0,4.19-23.36a5.08,5.08,0,0,0-4.55-5.73h0A5.5,5.5,0,0,0,76.44,67Z" transform="translate(-15.63 -0.96)"/><path class="cls-36" d="M78.7,67.57,74.33,91.82l-2.43-.13L76.45,67a5.48,5.48,0,0,1,6.31-4.11h0a6,6,0,0,1,1.82.57A5.46,5.46,0,0,0,78.7,67.57Z" transform="translate(-15.63 -0.96)"/><path class="cls-17" d="M80.69,89.57h0a1,1,0,0,0,1.19-.79l3.43-20.14a1,1,0,0,0-.87-1.08h0a1.05,1.05,0,0,0-1.2.79L79.81,88.49A1,1,0,0,0,80.69,89.57Z" transform="translate(-15.63 -0.96)"/><path class="cls-39" d="M82.68,94.66a1,1,0,0,0,1.32.08.8.8,0,0,0-.2-1.18,1,1,0,0,0-1.32-.07A.8.8,0,0,0,82.68,94.66Z" transform="translate(-15.63 -0.96)"/><ellipse class="cls-40" cx="19.41" cy="7.48" rx="8.28" ry="7.48"/><ellipse class="cls-41" cx="19.41" cy="7.48" rx="6.76" ry="6.1"/><ellipse class="cls-5" cx="19.41" cy="7.48" rx="6.14" ry="5.54"/><ellipse class="cls-42" cx="19.39" cy="12.18" rx="0.49" ry="0.44"/><ellipse class="cls-42" cx="14.19" cy="7.48" rx="0.49" ry="0.44"/><ellipse class="cls-42" cx="24.6" cy="7.48" rx="0.49" ry="0.44"/><ellipse class="cls-42" cx="23.08" cy="4.15" rx="0.49" ry="0.44"/><ellipse class="cls-42" cx="23.08" cy="10.8" rx="0.49" ry="0.44"/><ellipse class="cls-42" cx="15.71" cy="4.15" rx="0.49" ry="0.44"/><path class="cls-43" d="M28.75,4.71h0a.28.28,0,0,1-.12-.42,6.21,6.21,0,0,1,1.62-1.57,7,7,0,0,1,1.88-.86.34.34,0,0,1,.42.22h0a.29.29,0,0,1-.22.35,6.12,6.12,0,0,0-1.68.77,5.45,5.45,0,0,0-1.46,1.41A.35.35,0,0,1,28.75,4.71Z" transform="translate(-15.63 -0.96)"/><path class="cls-43" d="M27.65,9.43a.35.35,0,0,1-.43-.2,4.06,4.06,0,0,1-.13-1.62,3.89,3.89,0,0,1,.28-1.05.34.34,0,0,1,.44-.16h0a.29.29,0,0,1,.17.38,3.16,3.16,0,0,0-.23.89,3.49,3.49,0,0,0,.11,1.4.3.3,0,0,1-.21.36Z" transform="translate(-15.63 -0.96)"/><path class="cls-25" d="M35,2.9a3.85,3.85,0,0,0-.48,0l-4.87,8.24a5.87,5.87,0,0,0,1.75,1.76l5.72-9.68A6.68,6.68,0,0,0,35,2.9Z" transform="translate(-15.63 -0.96)"/><path class="cls-44" d="M35,8.44h0a.26.26,0,0,1-.28-.24V4.64A.25.25,0,0,1,35,4.41h0a.25.25,0,0,1,.27.23V8.2A.26.26,0,0,1,35,8.44Z" transform="translate(-15.63 -0.96)"/><path class="cls-44" d="M32.38,10.91h0a.23.23,0,0,1,0-.35L34.67,8.5a.29.29,0,0,1,.39,0h0a.24.24,0,0,1,0,.35l-2.29,2.06A.29.29,0,0,1,32.38,10.91Z" transform="translate(-15.63 -0.96)"/><path class="cls-45" d="M35,9.07a.66.66,0,0,1-.7-.63.7.7,0,0,1,1.4,0A.66.66,0,0,1,35,9.07Z" transform="translate(-15.63 -0.96)"/><ellipse class="cls-42" cx="19.39" cy="2.78" rx="0.49" ry="0.44"/><ellipse class="cls-42" cx="15.71" cy="10.8" rx="0.49" ry="0.44"/><path class="cls-25" d="M127.3,35a1,1,0,0,0-1.29.33L115.12,53.19c-.26.42,1.68.81,1.94.39l10.62-17.45A.81.81,0,0,0,127.3,35Z" transform="translate(-15.63 -0.96)"/><path class="cls-28" d="M126.64,35.12a.47.47,0,0,0-.61.16L115.46,52.59a.38.38,0,0,0,.18.55.47.47,0,0,0,.61-.16l10.57-17.31A.38.38,0,0,0,126.64,35.12Z" transform="translate(-15.63 -0.96)"/><path class="cls-25" d="M124.34,52.79H110.66a.58.58,0,0,0-.56.61v.06a.59.59,0,0,0,.56.61h13.68a.59.59,0,0,0,.56-.61V53.4A.58.58,0,0,0,124.34,52.79Z" transform="translate(-15.63 -0.96)"/><path class="cls-46" d="M110.09,53.53v-.07a.56.56,0,0,0,.57.56h13.68a.52.52,0,0,0,.53-.56v.07Z" transform="translate(-15.63 -0.96)"/><path class="cls-25" d="M106.89,20.33l-1.31,1.18a.35.35,0,0,0,0,.54.46.46,0,0,0,.6,0l1.3-1.18a.35.35,0,0,0,0-.54A.44.44,0,0,0,106.89,20.33Z" transform="translate(-15.63 -0.96)"/><path class="cls-25" d="M118.51,20h-10.6a.41.41,0,0,0-.43.38.41.41,0,0,0,.43.39h10.6a.41.41,0,0,0,.42-.39A.4.4,0,0,0,118.51,20Z" transform="translate(-15.63 -0.96)"/><path class="cls-28" d="M105.34,21.28a.87.87,0,0,0-.67,1.06,1,1,0,0,0,1.17.6.84.84,0,0,0,.67-1.05A1,1,0,0,0,105.34,21.28Z" transform="translate(-15.63 -0.96)"/><path class="cls-25" d="M119.5,20.49a.46.46,0,0,0-.57-.16.37.37,0,0,0-.18.52l8.19,14a.44.44,0,0,0,.57.16.37.37,0,0,0,.18-.52Z" transform="translate(-15.63 -0.96)"/><path class="cls-28" d="M118.12,20.33H108a.2.2,0,1,0,0,.39h10.11a.2.2,0,1,0,0-.39Z" transform="translate(-15.63 -0.96)"/><path class="cls-28" d="M119.32,21.06a.22.22,0,0,0-.27-.08.18.18,0,0,0-.08.24l7.74,13.26a.2.2,0,0,0,.26.07.17.17,0,0,0,.09-.24Z" transform="translate(-15.63 -0.96)"/><path class="cls-25" d="M105.55,21.35a.31.31,0,1,0,.36.3A.34.34,0,0,0,105.55,21.35Z" transform="translate(-15.63 -0.96)"/><path class="cls-28" d="M107.18,20.7l-1.12.95a.17.17,0,0,0,0,.25.21.21,0,0,0,.27,0l1.11-1a.16.16,0,0,0,0-.24A.2.2,0,0,0,107.18,20.7Z" transform="translate(-15.63 -0.96)"/><path class="cls-47" d="M118.88,19.76a.72.72,0,1,0,0,1.43.72.72,0,1,0,0-1.43Z" transform="translate(-15.63 -0.96)"/><path class="cls-25" d="M118.82,19.76a.67.67,0,1,0,0,1.34.67.67,0,1,0,0-1.34Z" transform="translate(-15.63 -0.96)"/><path class="cls-46" d="M118.82,20.07a.36.36,0,1,0,0,.72.36.36,0,1,0,0-.72Z" transform="translate(-15.63 -0.96)"/><ellipse class="cls-47" cx="111.62" cy="33.96" rx="1.11" ry="1"/><path class="cls-25" d="M127.18,33.91a.94.94,0,1,0,1,.94A1,1,0,0,0,127.18,33.91Z" transform="translate(-15.63 -0.96)"/><path class="cls-46" d="M127.18,34.35a.5.5,0,1,0,.55.5A.53.53,0,0,0,127.18,34.35Z" transform="translate(-15.63 -0.96)"/><path class="cls-47" d="M107.43,19.66a.72.72,0,1,0,.8.72A.77.77,0,0,0,107.43,19.66Z" transform="translate(-15.63 -0.96)"/><path class="cls-25" d="M107.38,19.66a.67.67,0,1,0,.74.67A.71.71,0,0,0,107.38,19.66Z" transform="translate(-15.63 -0.96)"/><path class="cls-46" d="M107.38,20a.36.36,0,1,0,.4.35A.38.38,0,0,0,107.38,20Z" transform="translate(-15.63 -0.96)"/><path class="cls-15" d="M68.36,33.68v2a6.43,6.43,0,0,0,2.83.61,5.79,5.79,0,0,0,2.43-.46V32.61H68.36Z" transform="translate(-15.63 -0.96)"/><path class="cls-19" d="M59.93,23.91Z" transform="translate(-15.63 -0.96)"/><polygon points="44.23 22.97 44.3 23.01 44.54 22.87 44.25 22.9 44.23 22.97"/><path class="cls-37" d="M80.12,16a9.84,9.84,0,0,0-5.26-3.63c-.59-.2-6.11-2-10.38.8a7.87,7.87,0,0,0-2.94,3.27,8.28,8.28,0,0,0-.61,3.17,17.49,17.49,0,0,0,.51,7,9.87,9.87,0,0,0,1.78,3.74,10.08,10.08,0,0,0,4.94,3.19,10.42,10.42,0,0,0,6.14,0,9.84,9.84,0,0,0,4-2.49,10.52,10.52,0,0,0,2.4-4.58,15.2,15.2,0,0,0,.71-5.93A9,9,0,0,0,80.12,16Z" transform="translate(-15.63 -0.96)"/><path class="cls-48" d="M65.85,25.58c-.66,0-1.2.32-1.2.73s.54.73,1.2.73,1.21-.33,1.21-.73S66.52,25.58,65.85,25.58Z" transform="translate(-15.63 -0.96)"/><ellipse class="cls-48" cx="60.82" cy="25.35" rx="1.21" ry="0.73"/><path class="cls-49" d="M72.26,25.55H72.2a.31.31,0,0,0-.27.32.69.69,0,0,1-.75.71.79.79,0,0,1-.81-.72.3.3,0,0,0-.29-.28h0a.3.3,0,0,0-.31.28,1.1,1.1,0,0,0,.2.71,1.6,1.6,0,0,0,1.26.57h0a1.49,1.49,0,0,0,1.18-.52,1.09,1.09,0,0,0,.2-.81A.31.31,0,0,0,72.26,25.55Z" transform="translate(-15.63 -0.96)"/><path class="cls-13" d="M68.12,23.87a.81.81,0,0,1-.88.71.73.73,0,1,1,0-1.42A.81.81,0,0,1,68.12,23.87Z" transform="translate(-15.63 -0.96)"/><path class="cls-19" d="M68.4,23.29H65.6a.68.68,0,0,1-.71-.64h0A.67.67,0,0,1,65.6,22h2.8a.67.67,0,0,1,.71.63h0A.68.68,0,0,1,68.4,23.29Z" transform="translate(-15.63 -0.96)"/><path class="cls-13" d="M74.25,23.87a.81.81,0,0,0,.88.71.73.73,0,1,0,0-1.42A.81.81,0,0,0,74.25,23.87Z" transform="translate(-15.63 -0.96)"/><path class="cls-19" d="M74,23.29h2.81a.67.67,0,0,0,.7-.64h0a.66.66,0,0,0-.7-.63H74a.67.67,0,0,0-.7.63h0A.68.68,0,0,0,74,23.29Z" transform="translate(-15.63 -0.96)"/><path class="cls-50" d="M74,29.35H68.72a.25.25,0,0,1-.26-.24h0a.25.25,0,0,1,.26-.24H74a.26.26,0,0,1,.27.24h0A.26.26,0,0,1,74,29.35Z" transform="translate(-15.63 -0.96)"/><path class="cls-19" d="M82.7,19.38c-.25-2.28-.52-8.83-9.91-9.79a16.71,16.71,0,0,0-6.37.67,7.81,7.81,0,0,0-4.31,3.42,5.59,5.59,0,0,0-2.64,3.94,19.93,19.93,0,0,0,.61,7.12c.06.11,0,.14,0,.14s.09,0,.41.19.24.06.54.21c.62.33.62.67,1.08.79a.51.51,0,0,0,.6-.36A22.14,22.14,0,0,1,62.18,21c0-2.66.76-3.21.92-3.51,2,2.08,5.95,2.56,5.95,2.56a9.52,9.52,0,0,1-2.14-1.83A8.44,8.44,0,0,1,66,17l.19.21a11.88,11.88,0,0,0,5.51,2.92,11.08,11.08,0,0,1-2.22-1.9,8.41,8.41,0,0,1-.65-.85c2,2.19,6.26,2.7,6.26,2.7a9.79,9.79,0,0,1-2.21-1.83,8.39,8.39,0,0,1-1-1.29A11.19,11.19,0,0,0,77,19.53c-.72-.73-2.34-3-2.45-3.18a21.94,21.94,0,0,0,4.82,2.94c1.33,2.06.49,5.86.44,6.56,0,.34.6.09.6.09a.82.82,0,0,0,.44-.44c.42-.69.72,0,1.2-.59C82.41,24.57,82.85,20.71,82.7,19.38Z" transform="translate(-15.63 -0.96)"/><path class="cls-37" d="M61.82,25.75a2.87,2.87,0,0,0-1.08-1,1.36,1.36,0,0,0-.91-.21c-.63.16-.85,1.18-.84,1.8a3.31,3.31,0,0,0,3.24,3c.17,0,.53-.06.67-.28s-.06-.56-.27-1C62,26.89,62.43,26.64,61.82,25.75Z" transform="translate(-15.63 -0.96)"/><path class="cls-15" d="M61.61,26.59c-.19-.24-.42-.53-.65-.49s-.31.3-.32.32c-.2.52.38,1.16.83,1.47.12.08.53.36.68.26s-.14-.89-.21-1A2.3,2.3,0,0,0,61.61,26.59Z" transform="translate(-15.63 -0.96)"/><path class="cls-37" d="M82.15,24.56a1.37,1.37,0,0,0-.91.21,2.87,2.87,0,0,0-1.08,1c-.61.89-.2,1.14-.81,2.34-.2.41-.42.72-.27,1s.5.26.68.28a3.09,3.09,0,0,0,2.12-.82A3,3,0,0,0,83,26.36C83,25.74,82.78,24.72,82.15,24.56Z" transform="translate(-15.63 -0.96)"/><path class="cls-15" d="M81.34,26.1c-.23,0-.45.25-.65.49a2.62,2.62,0,0,0-.32.52c-.08.15-.43.9-.22,1s.57-.18.69-.26c.45-.31,1-.95.83-1.47C81.66,26.4,81.55,26.13,81.34,26.1Z" transform="translate(-15.63 -0.96)"/><path class="cls-51" d="M61.67,24.5c.23-.09-1.44-4.14.55-7.35.23-.37-.76-1.91-.89-2.92a5,5,0,0,0-1.86,3.39,23.82,23.82,0,0,0,.33,6.12,3,3,0,0,1,1.33.42C61.67,24.5,61.53,24.56,61.67,24.5Z" transform="translate(-15.63 -0.96)"/><path class="cls-51" d="M73.71,14.73c3.47,2.62,9,4.47,9,4.19-.48-3.54-1.36-8.46-9.87-9.33a16.71,16.71,0,0,0-6.37.67,7.81,7.81,0,0,0-4.08,3.05,3.82,3.82,0,0,0,0,.57,4.26,4.26,0,0,0,1.28,2.52,6,6,0,0,0,2.91,1.41,7.46,7.46,0,0,1-1.21-2.24c1.55,1.71,4,2.56,3.83,2.32a9.43,9.43,0,0,1-1.44-2.54c.25.75,4.71,2.45,4.51,2.17A8.17,8.17,0,0,1,71,15.12a15.46,15.46,0,0,0,4.4,2.32A13.54,13.54,0,0,1,73.71,14.73Z" transform="translate(-15.63 -0.96)"/><path class="cls-51" d="M68.52,22.65H65.46a.24.24,0,0,1-.25-.23h0a.24.24,0,0,1,.25-.23h3.06a.25.25,0,0,1,.26.23h0A.25.25,0,0,1,68.52,22.65Z" transform="translate(-15.63 -0.96)"/><path class="cls-51" d="M76.89,22.65h-3a.25.25,0,0,1-.26-.23h0a.25.25,0,0,1,.26-.23h3a.24.24,0,0,1,.26.23h0A.24.24,0,0,1,76.89,22.65Z" transform="translate(-15.63 -0.96)"/><path class="cls-13" d="M57.66,39.33c.13-.16.1-.32,1.36-1.19a21.12,21.12,0,0,1,5.22-2.76c1.05,0,.44,2.56.11,3.78a4.38,4.38,0,0,1-.41.86c-.71,1.31.27.46.15.6-2.72,3.28-5.63,6.91-6.36,6.83C56.24,47.3,55.6,41.61,57.66,39.33Z" transform="translate(-15.63 -0.96)"/><path class="cls-13" d="M81.45,37.35a10.42,10.42,0,0,1,4,3c5.32,6.35,5.58,10.91,5.11,12s-2.77,1.29-6.41,1.59c-7,.57-9.34.07-9.34.07l-.24-3.79,10.07-1s-3.18-2.85-3.88-4.46C79.87,42.69,80.44,37.33,81.45,37.35Z" transform="translate(-15.63 -0.96)"/><path class="cls-36" d="M80.82,43.06c.92,3.29,5,5.76,4.79,6.2-.12.24-.54.29-1.08.34-1,.1-6.43.57-10,.84l0-.22,10.07-1s-4-3.44-5.12-5.73c-.38-.75.47-6.51,2-6.09C81,37.48,80,40.18,80.82,43.06Z" transform="translate(-15.63 -0.96)"/><path class="cls-36" d="M88.42,52.43a3,3,0,0,0,1.67-.8,2.82,2.82,0,0,0,.57-1.15,3.42,3.42,0,0,1-.11,1.87c-.57,1.25-2.75,1.29-6.38,1.59-7,.57-9.37.26-9.37.26l0-.9A104.61,104.61,0,0,0,88.42,52.43Z" transform="translate(-15.63 -0.96)"/><path class="cls-36" d="M85.07,48.94a2.2,2.2,0,0,1,1.27.25c.61.23,1.24.58,1.2.66s-.49-.16-1.27-.28c-1.2-.19-2,0-2-.14S84.64,49,85.07,48.94Z" transform="translate(-15.63 -0.96)"/><path class="cls-13" d="M84.33,39.33c-.14-.16-.11-.32-1.37-1.19a20.93,20.93,0,0,0-5.22-2.76c-1,0-.44,2.56-.1,3.78A3.72,3.72,0,0,0,78,40c.71,1.31-.26.46-.15.6,2.72,3.28,5.63,6.91,6.37,6.83C85.75,47.3,86.39,41.61,84.33,39.33Z" transform="translate(-15.63 -0.96)"/><polygon class="cls-52" points="88.7 26.28 88.01 25.63 87.16 25.02 86.13 24.48 85.26 24.16 82.98 23.19 52.73 52.23 89.31 54.37 88.62 30.27 88.7 26.28"/><rect class="cls-53" x="41.6" y="50.66" width="27.84" height="2.45" rx="1.18" ry="1.18"/><path class="cls-54" d="M43.56,35.16H67.48a2,2,0,0,1,2,2V50.66a0,0,0,0,1,0,0H41.6a0,0,0,0,1,0,0V37.12A2,2,0,0,1,43.56,35.16Z"/><path class="cls-55" d="M83.9,51.63H58.4a1.12,1.12,0,0,0-1.12.8H85A1.12,1.12,0,0,0,83.9,51.63Z" transform="translate(-15.63 -0.96)"/><path class="cls-25" d="M59.1,36.11a1.78,1.78,0,0,0-1.85,1.7v7.42l10.07-9.12Z" transform="translate(-15.63 -0.96)"/><path class="cls-28" d="M70.2,51.63h14a.78.78,0,0,0,.81-.76V38.19Z" transform="translate(-15.63 -0.96)"/><rect class="cls-56" x="38.84" y="39.06" width="4.64" height="3.33"/><rect class="cls-57" x="38.84" y="44.3" width="4.64" height="3.33"/><path class="cls-25" d="M58.28,40.66h-3a.1.1,0,1,0,0,.2h3c.07,0,.12,0,.12-.1S58.35,40.66,58.28,40.66Z" transform="translate(-15.63 -0.96)"/><rect class="cls-25" x="39.56" y="40.27" width="0.96" height="0.21" rx="0.1" ry="0.1"/><rect class="cls-25" x="39.56" y="40.86" width="0.65" height="0.21" rx="0.1" ry="0.1"/><rect class="cls-25" x="40.36" y="40.86" width="0.65" height="0.21" rx="0.1" ry="0.1"/><rect class="cls-25" x="41.16" y="40.86" width="1.58" height="0.21" rx="0.1" ry="0.1"/><rect class="cls-25" x="40.64" y="40.27" width="2.13" height="0.21" rx="0.1" ry="0.1"/><rect class="cls-25" x="39.51" y="41.43" width="0.96" height="0.21" rx="0.1" ry="0.1"/><rect class="cls-25" x="40.59" y="41.43" width="2.13" height="0.21" rx="0.1" ry="0.1"/><path class="cls-25" d="M58.3,45.91h-3a.11.11,0,1,0,0,.21h3a.11.11,0,1,0,0-.21Z" transform="translate(-15.63 -0.96)"/><rect class="cls-25" x="39.58" y="45.53" width="0.96" height="0.21" rx="0.1" ry="0.1"/><rect class="cls-25" x="39.58" y="46.12" width="0.65" height="0.21" rx="0.1" ry="0.1"/><rect class="cls-25" x="40.38" y="46.12" width="0.65" height="0.21" rx="0.1" ry="0.1"/><rect class="cls-25" x="41.18" y="46.12" width="1.58" height="0.21" rx="0.1" ry="0.1"/><rect class="cls-25" x="40.66" y="45.53" width="2.13" height="0.21" rx="0.1" ry="0.1"/><rect class="cls-25" x="39.53" y="46.69" width="0.96" height="0.21" rx="0.1" ry="0.1"/><rect class="cls-25" x="40.61" y="46.69" width="2.13" height="0.21" rx="0.1" ry="0.1"/><rect class="cls-58" x="54.08" y="41.61" width="2.88" height="2.6" rx="1.25" ry="1.25"/><rect class="cls-28" x="54.42" y="41.91" width="2.21" height="1.99" rx="0.96" ry="0.96"/><path class="cls-57" d="M119.4,41.38V49.6a1.3,1.3,0,0,0,2.58,0V41.38C122,38.46,119.4,38.49,119.4,41.38Z" transform="translate(-15.63 -0.96)"/><path class="cls-59" d="M121.67,45.36v-1c0-.68,0-1.37,0-2,0-.32,0-.63,0-.92a3.24,3.24,0,0,0-.08-.84,3.21,3.21,0,0,0-.23-.72,1.06,1.06,0,0,0-.27-.36,3.4,3.4,0,0,0-.33-.29l.22.26a2,2,0,0,1,.29.47,1.85,1.85,0,0,1,.11.31,2,2,0,0,1,.09.35,3.06,3.06,0,0,1,0,.81c0,.15,0,.3,0,.46s0,.31,0,.47c0,.32,0,.65,0,1v1l0,1c0,.33,0,.67,0,1,0,.64,0,1.24.05,1.75s0,.94,0,1.24c0,.15,0,.27,0,.35v0c0-.08,0-.2,0-.35,0-.3,0-.73,0-1.24s0-1.11,0-1.76Z" transform="translate(-15.63 -0.96)"/><path class="cls-59" d="M121.17,44.44l0-2v-.91c0-.15,0-.29,0-.43s0-.25,0-.38a4.82,4.82,0,0,0-.08-.7,4.24,4.24,0,0,0-.15-.55,1.15,1.15,0,0,0-.16-.3c0,.12.07.19.11.34a5,5,0,0,1,.09.54,6.53,6.53,0,0,1,0,.67,7.29,7.29,0,0,1,0,.81c0,.29,0,.59,0,.91v2l0,1c0,.33,0,.66,0,1,0,.63,0,1.22,0,1.72s0,.93.06,1.22,0,.27,0,.35v0c0-.08,0-.2,0-.35s0-.71,0-1.22,0-1.09,0-1.72v-2Z" transform="translate(-15.63 -0.96)"/><path class="cls-60" d="M121.45,40a1.86,1.86,0,0,0-.32-.45,3.4,3.4,0,0,0-.28-.24l-.11-.08.1.09.25.25a1.82,1.82,0,0,1,.29.46,2.83,2.83,0,0,1,.11.31l.09.35a3.08,3.08,0,0,1,0,.81l0,.45c0,.15,0,.31,0,.47,0,.32,0,.65,0,1v2c0,.33,0,.66,0,1,0,.64,0,1.23,0,1.74s0,.94.05,1.23,0,.27,0,.35v0c0-.08,0-.2,0-.35s0-.72,0-1.23,0-1.11,0-1.74c0-.32,0-.65,0-1v-3c0-.32,0-.62,0-.91a3.24,3.24,0,0,0-.08-.84A2.65,2.65,0,0,0,121.45,40Z" transform="translate(-15.63 -0.96)"/><path class="cls-59" d="M120.42,39.49a1.06,1.06,0,0,0-.27.36,3.21,3.21,0,0,0-.23.72,3.24,3.24,0,0,0-.08.84c0,.29,0,.6,0,.92l0,2v2c0,.65,0,1.25,0,1.76s0,.94,0,1.24a3.33,3.33,0,0,0,0,.35v0c0-.08,0-.2,0-.35,0-.3,0-.72,0-1.24s0-1.11,0-1.75c0-.32,0-.66,0-1l0-1v-1c0-.34,0-.67,0-1,0-.16,0-.32,0-.47s0-.31,0-.46a2.69,2.69,0,0,1,0-.81,2,2,0,0,1,.09-.35,1.85,1.85,0,0,1,.11-.31,2,2,0,0,1,.29-.47c.1-.11.21-.26.21-.26S120.53,39.38,120.42,39.49Z" transform="translate(-15.63 -0.96)"/><path class="cls-59" d="M120.44,40.05a4.82,4.82,0,0,0-.08.7c0,.13,0,.25,0,.38s0,.28,0,.43l0,.91c0,.63,0,1.3,0,2v2c0,.63,0,1.22,0,1.72s0,.93,0,1.22,0,.27,0,.35v0c0-.08,0-.2,0-.35s0-.71,0-1.22,0-1.09,0-1.72c0-.31,0-.64,0-1l0-1v-2c0-.32,0-.62,0-.91a7.29,7.29,0,0,1,0-.81,6.53,6.53,0,0,1,0-.67,5,5,0,0,1,.09-.54c0-.15.07-.22.1-.34a1.64,1.64,0,0,0-.15.3A4.24,4.24,0,0,0,120.44,40.05Z" transform="translate(-15.63 -0.96)"/><path class="cls-60" d="M121.31,44.48c0-.67,0-1.33,0-2V41.2l0-.4c0-.25-.07-.48-.11-.68a3.45,3.45,0,0,0-.16-.51,2.77,2.77,0,0,0-.16-.31l-.07-.1.06.11a2.65,2.65,0,0,1,.13.31,2.87,2.87,0,0,1,.12.52,6,6,0,0,1,.07.67q0,.38,0,.81c0,.28,0,.59,0,.9v2l0,1c0,.33,0,.65,0,1,0,.62,0,1.21.05,1.71s0,.92,0,1.21,0,.26,0,.34v0c0-.08,0-.2,0-.34s0-.71,0-1.21,0-1.09,0-1.72v-2Z" transform="translate(-15.63 -0.96)"/><path class="cls-60" d="M120.85,42.57l0-.91v-.81c0-.5,0-.92,0-1.22,0-.14,0-.43,0-.43v.43c0,.3,0,.72,0,1.22l0,.81v4.86c0,.62,0,1.21,0,1.72s0,.92,0,1.21,0,.26,0,.34v0c0-.08,0-.19,0-.34s0-.71,0-1.21,0-1.1,0-1.72c0-.32,0-.64,0-1v-3Z" transform="translate(-15.63 -0.96)"/><path class="cls-60" d="M120.36,39.52A1.87,1.87,0,0,0,120,40a2.76,2.76,0,0,0-.25.67,3.6,3.6,0,0,0-.08.83c0,.29,0,.6,0,.92,0,.63,0,1.31,0,2v2c0,.64,0,1.23,0,1.74s0,.94,0,1.24c0,.14,0,.26,0,.34v0c0-.08,0-.2,0-.34,0-.3,0-.73,0-1.24s0-1.1,0-1.74c0-.32,0-.65,0-1l0-1v-1c0-.34,0-.66,0-1,0-.16,0-.32,0-.47s0-.31,0-.46a3,3,0,0,1,0-.8,1.79,1.79,0,0,1,.09-.35,2.24,2.24,0,0,1,.11-.31,2.15,2.15,0,0,1,.29-.46,3.12,3.12,0,0,1,.26-.26l.09-.08-.1.08A1.64,1.64,0,0,0,120.36,39.52Z" transform="translate(-15.63 -0.96)"/><path class="cls-60" d="M120.52,39.61a3.45,3.45,0,0,0-.16.51c0,.2-.08.43-.11.68l0,.4c0,.13,0,.28,0,.42v.9l0,2v2c0,.63,0,1.22,0,1.72s0,.92,0,1.21a3.23,3.23,0,0,0,0,.34v0c0-.08,0-.2,0-.34s0-.71,0-1.21,0-1.09,0-1.71c0-.32,0-.64,0-1s0-.66,0-1v-2c0-.31,0-.62,0-.9a7.29,7.29,0,0,1,0-.81,6,6,0,0,1,.07-.67,2.87,2.87,0,0,1,.12-.52,1.6,1.6,0,0,1,.13-.31l0-.11-.06.1A2.77,2.77,0,0,0,120.52,39.61Z" transform="translate(-15.63 -0.96)"/><polygon class="cls-61" points="105.05 49.83 105.06 49.83 105.06 49.83 105.05 49.83"/><path class="cls-61" d="M120.39,39.24c.6,0,1,.65,1,1.52v5.89c0,.45-.56.83-1.27.83h0a1.11,1.11,0,0,1-.6-.13V49.6a1.17,1.17,0,0,0,1.19,1.19,1.2,1.2,0,0,0,1.23-1.19V41.38C121.92,39.71,121.11,39,120.39,39.24Z" transform="translate(-15.63 -0.96)"/><polygon class="cls-9" points="102.78 53.1 107.33 53.1 107.89 46.88 102.23 46.88 102.78 53.1"/><path class="cls-8" d="M121.77,53c-.65.7-2.13.77-3.39.68l0,.47H123l.52-6.3H123C122.91,49.9,122.39,52.3,121.77,53Z" transform="translate(-15.63 -0.96)"/><path class="cls-62" d="M118.6,48.52c-.18.26.13,4.37.44,4.48.06,0,.12,0,.15,0,.34-.25,0-4.4-.19-4.55A.29.29,0,0,0,118.6,48.52Z" transform="translate(-15.63 -0.96)"/><polygon class="cls-63" points="104.17 39.91 104.2 39.79 103.61 39.7 104.17 39.91"/><polygon class="cls-63" points="104.18 40.85 104.19 40.73 103.59 40.76 104.18 40.85"/><polygon class="cls-64" points="104.18 42.16 104.19 42.04 103.59 42.07 104.18 42.16"/><polygon class="cls-64" points="104.18 43.35 104.19 43.22 103.59 43.26 104.18 43.35"/><polygon class="cls-64" points="104.18 44.72 104.19 44.6 103.59 44.63 104.18 44.72"/><polygon class="cls-64" points="104.18 46.09 104.19 45.97 103.59 46.01 104.18 46.09"/><polygon class="cls-63" points="104.67 40.36 104.67 40.24 104.08 40.27 104.67 40.36"/><polygon class="cls-63" points="104.73 39.46 104.75 39.35 104.19 39.17 104.73 39.46"/><polygon class="cls-63" points="104.67 41.51 104.67 41.38 104.08 41.42 104.67 41.51"/><polygon class="cls-63" points="104.67 42.76 104.67 42.63 104.08 42.67 104.67 42.76"/><polygon class="cls-63" points="104.67 44.06 104.67 43.94 104.08 43.98 104.67 44.06"/><polygon class="cls-63" points="104.67 45.37 104.67 45.24 104.08 45.28 104.67 45.37"/><polygon class="cls-63" points="104.47 38.9 104.54 38.8 103.99 38.57 104.47 38.9"/><polygon class="cls-63" points="106.06 39.91 106.62 39.7 106.02 39.79 106.06 39.91"/><polygon class="cls-63" points="106.04 40.85 106.64 40.76 106.03 40.73 106.04 40.85"/><polygon class="cls-64" points="106.04 42.16 106.64 42.07 106.03 42.04 106.04 42.16"/><polygon class="cls-64" points="106.04 43.35 106.64 43.26 106.03 43.22 106.04 43.35"/><polygon class="cls-64" points="106.04 44.72 106.64 44.63 106.03 44.6 106.04 44.72"/><polygon class="cls-64" points="106.04 46.16 106.64 46.08 106.03 46.04 106.04 46.16"/><polygon class="cls-63" points="105.56 40.36 106.15 40.27 105.55 40.24 105.56 40.36"/><polygon class="cls-63" points="105.5 39.39 106.04 39.1 105.47 39.28 105.5 39.39"/><polygon class="cls-63" points="105.56 41.5 106.15 41.41 105.55 41.37 105.56 41.5"/><polygon class="cls-63" points="105.56 42.75 106.15 42.66 105.55 42.62 105.56 42.75"/><polygon class="cls-63" points="105.56 43.99 106.15 43.91 105.55 43.87 105.56 43.99"/><polygon class="cls-63" points="105.56 45.37 106.15 45.28 105.55 45.24 105.56 45.37"/><polygon class="cls-63" points="105.75 38.9 106.23 38.57 105.68 38.8 105.75 38.9"/><path class="cls-63" d="M120.74,40.66a.05.05,0,1,0,0,.1,0,0,0,0,0,0-.1Z" transform="translate(-15.63 -0.96)"/><path class="cls-63" d="M120.74,41.1a.05.05,0,1,0,0,.1.05.05,0,1,0,0-.1Z" transform="translate(-15.63 -0.96)"/><path class="cls-63" d="M120.74,41.54a.06.06,0,0,0-.06.05s0,0,.06,0a0,0,0,0,0,.05,0A0,0,0,0,0,120.74,41.54Z" transform="translate(-15.63 -0.96)"/><path class="cls-63" d="M120.74,42.1a.06.06,0,0,0-.06,0,.06.06,0,0,0,.06.05.05.05,0,0,0,.05-.05A0,0,0,0,0,120.74,42.1Z" transform="translate(-15.63 -0.96)"/><path class="cls-63" d="M120.74,42.66a.05.05,0,1,0,0,.1,0,0,0,0,0,0-.1Z" transform="translate(-15.63 -0.96)"/><path class="cls-63" d="M120.74,43.29s-.06,0-.06,0a.06.06,0,0,0,.06.05,0,0,0,0,0,.05-.05A0,0,0,0,0,120.74,43.29Z" transform="translate(-15.63 -0.96)"/><path class="cls-63" d="M120.74,44a.05.05,0,1,0,0,.1,0,0,0,0,0,0-.1Z" transform="translate(-15.63 -0.96)"/><path class="cls-63" d="M120.74,44.6a.06.06,0,0,0-.06,0s0,0,.06,0a0,0,0,0,0,.05,0A0,0,0,0,0,120.74,44.6Z" transform="translate(-15.63 -0.96)"/><path class="cls-63" d="M120.74,45.35s-.06,0-.06,0a.06.06,0,0,0,.06,0,0,0,0,0,0,.05,0A0,0,0,0,0,120.74,45.35Z" transform="translate(-15.63 -0.96)"/><path class="cls-63" d="M120.74,46a.05.05,0,1,0,0,.1,0,0,0,0,0,0-.1Z" transform="translate(-15.63 -0.96)"/><path class="cls-63" d="M120.74,46.66a.06.06,0,0,0-.06.05s0,0,.06,0a0,0,0,0,0,.05,0A0,0,0,0,0,120.74,46.66Z" transform="translate(-15.63 -0.96)"/><path class="cls-63" d="M120.74,47.16a.06.06,0,0,0-.06.05s0,0,.06,0a0,0,0,0,0,.05,0A0,0,0,0,0,120.74,47.16Z" transform="translate(-15.63 -0.96)"/><path class="cls-63" d="M120.74,40.16a.05.05,0,1,0,0,.1,0,0,0,0,0,0-.1Z" transform="translate(-15.63 -0.96)"/><path class="cls-63" d="M120.74,39.73s-.06,0-.06,0a.06.06,0,0,0,.06,0,0,0,0,0,0,.05,0A0,0,0,0,0,120.74,39.73Z" transform="translate(-15.63 -0.96)"/><path class="cls-63" d="M120.74,39.41a.06.06,0,0,0-.06.05.06.06,0,0,0,.06,0,0,0,0,0,0,.05,0A.05.05,0,0,0,120.74,39.41Z" transform="translate(-15.63 -0.96)"/><path class="cls-65" d="M120.28,39.92a.37.37,0,0,0-.38.37.38.38,0,0,0,.35.4.39.39,0,0,0,.39-.38A.37.37,0,0,0,120.28,39.92Z" transform="translate(-15.63 -0.96)"/><path class="cls-65" d="M120,41.41a.19.19,0,0,0-.2.18v5.25a.2.2,0,0,0,.4,0V41.59A.19.19,0,0,0,120,41.41Z" transform="translate(-15.63 -0.96)"/><path class="cls-66" d="M119.44,38.62c-.1.05-.09.21-.09.22,0,.3.47.54.6.47s0-.26,0-.38S119.57,38.56,119.44,38.62Z" transform="translate(-15.63 -0.96)"/><path class="cls-66" d="M120.13,38.27c-.12,0-.14.25-.13.38s.15.43.27.42.29-.33.18-.57S120.24,38.24,120.13,38.27Z" transform="translate(-15.63 -0.96)"/><path class="cls-67" d="M120.52,38.06c-.31,0-.21.84-.26.82s0-.23-.1-.38a.34.34,0,0,0-.36-.1c-.16.09-.07.4-.07.41.06.19.18.28.15.31s-.3-.2-.63-.17c-.17,0-.37.1-.37.19s.35.25.65.27a1.91,1.91,0,0,0,.88-.12,1.38,1.38,0,0,0,.39-.73C120.85,38.18,120.6,38.06,120.52,38.06Z" transform="translate(-15.63 -0.96)"/><path class="cls-66" d="M120.61,38.08a1.2,1.2,0,0,1,.09.25.88.88,0,0,1,0,.34.91.91,0,0,1-.39.55,1.17,1.17,0,0,1-.45.14,1.53,1.53,0,0,1-.82-.12.23.23,0,0,1-.08-.07.42.42,0,0,1,0-.1.1.1,0,0,0,0,.07c0,.12.35.25.65.27a1.91,1.91,0,0,0,.88-.12,1.38,1.38,0,0,0,.39-.73A.44.44,0,0,0,120.61,38.08Z" transform="translate(-15.63 -0.96)"/><rect class="cls-68" y="53.13" width="110.65" height="3.8"/><path class="cls-25" d="M15.63,57.82h.84A10.63,10.63,0,0,1,19,56.39a22.71,22.71,0,0,1,5.05-1.27c2.89-.4,15.71-.74,35.32-1H15.63Z" transform="translate(-15.63 -0.96)"/><path class="cls-69" d="M103.29,46.3v0h0S103.29,46.31,103.29,46.3Z" transform="translate(-15.63 -0.96)"/><polygon class="cls-69" points="87.77 45.36 87.78 45.36 87.77 45.36 87.77 45.36"/><polygon class="cls-69" points="87.76 45.36 87.76 45.36 87.77 45.36 87.77 45.36 87.76 45.36"/><path class="cls-70" d="M103.5,37.87l-.61,0-.56,0-.51.08.68,6.46h0l.61,1.31h0l.22.48v0h.12s0,0,0,0l.14-.5h0L104,44.4Zm.09,6.55Z" transform="translate(-15.63 -0.96)"/><path class="cls-71" d="M103.33,46.27c0,.06.13,0,.14,0L104,44.4l-1.48.08Z" transform="translate(-15.63 -0.96)"/><path class="cls-72" d="M103.35,46.3a.09.09,0,0,0,.1,0l.15-1.88-.65,0Z" transform="translate(-15.63 -0.96)"/><path class="cls-73" d="M102.5,44.48l.83,1.79,0,0-.4-1.84Z" transform="translate(-15.63 -0.96)"/><path class="cls-9" d="M102.31,37.92l.63,6.54a.44.44,0,0,0,.65,0h0L103,37.87Z" transform="translate(-15.63 -0.96)"/><path class="cls-8" d="M103,37.87l.64,6.55a.17.17,0,0,0,.2.11.19.19,0,0,0,.19-.13l-.49-6.49Z" transform="translate(-15.63 -0.96)"/><path class="cls-62" d="M101.82,38l.68,6.52a.23.23,0,0,0,.23.12c.19,0,.21-.14.21-.14l-.63-6.5Z" transform="translate(-15.63 -0.96)"/><path class="cls-40" d="M103.33,46.27c0,.06.13,0,.14,0l.14-.5-.5,0Z" transform="translate(-15.63 -0.96)"/><path class="cls-69" d="M103.39,46.31s.07,0,.08-.05l.14-.5h-.24Z" transform="translate(-15.63 -0.96)"/><polygon class="cls-8" points="86.19 37.04 86.22 37.34 87.88 37.25 87.86 36.95 86.19 37.04"/><path class="cls-74" d="M103,36.82l-1,.06a.27.27,0,0,0-.27.3l.07.74,1.58-.11-.08-.73A.3.3,0,0,0,103,36.82Z" transform="translate(-15.63 -0.96)"/><path class="cls-75" d="M103,36.82h-.16l.12,1,.44,0-.08-.73A.3.3,0,0,0,103,36.82Z" transform="translate(-15.63 -0.96)"/><path class="cls-76" d="M103.54,37.78l-1.77.13a.1.1,0,0,0-.1.11v0a.11.11,0,0,0,.12.09l1.77-.12a.12.12,0,0,0,.1-.11v0A.12.12,0,0,0,103.54,37.78Z" transform="translate(-15.63 -0.96)"/><path class="cls-77" d="M101.78,38.14l1.79-.12a.11.11,0,0,0,.09-.1l-2,.14A.08.08,0,0,0,101.78,38.14Z" transform="translate(-15.63 -0.96)"/><polygon class="cls-77" points="85.85 52.66 88.75 52.77 92.77 34.32 89.96 33.82 85.85 52.66"/><polygon class="cls-78" points="89.93 35.28 91.06 35.48 91.08 35.38 89.95 35.18 89.93 35.28"/><polygon class="cls-78" points="89.64 36.62 90.77 36.82 90.79 36.72 89.66 36.52 89.64 36.62"/><polygon class="cls-78" points="90.12 34.76 90.61 34.84 90.63 34.74 90.15 34.66 90.12 34.76"/><polygon class="cls-78" points="90.07 35.02 90.55 35.1 90.58 35 90.09 34.91 90.07 35.02"/><polygon class="cls-78" points="90.18 34.49 90.67 34.57 90.69 34.47 90.2 34.39 90.18 34.49"/><polygon class="cls-78" points="89.89 35.84 90.37 35.93 90.39 35.83 89.91 35.74 89.89 35.84"/><polygon class="cls-78" points="89.83 36.1 90.32 36.19 90.34 36.09 89.85 36 89.83 36.1"/><polygon class="cls-78" points="89.77 36.38 90.25 36.47 90.28 36.37 89.79 36.28 89.77 36.38"/><polygon class="cls-78" points="89.95 35.57 90.43 35.66 90.45 35.56 89.97 35.47 89.95 35.57"/><polygon class="cls-78" points="89.35 37.93 90.48 38.13 90.5 38.03 89.37 37.83 89.35 37.93"/><polygon class="cls-78" points="89.6 37.16 90.09 37.25 90.11 37.15 89.62 37.06 89.6 37.16"/><polygon class="cls-78" points="89.54 37.42 90.03 37.5 90.05 37.4 89.56 37.32 89.54 37.42"/><polygon class="cls-78" points="89.48 37.7 89.97 37.78 89.99 37.68 89.5 37.6 89.48 37.7"/><polygon class="cls-78" points="89.66 36.89 90.14 36.98 90.17 36.88 89.68 36.79 89.66 36.89"/><polygon class="cls-78" points="89.06 39.24 90.19 39.45 90.21 39.34 89.09 39.15 89.06 39.24"/><polygon class="cls-78" points="89.31 38.47 89.8 38.56 89.82 38.46 89.33 38.37 89.31 38.47"/><polygon class="cls-78" points="89.26 38.73 89.74 38.82 89.77 38.72 89.28 38.63 89.26 38.73"/><polygon class="cls-78" points="89.2 39.01 89.68 39.1 89.7 39 89.22 38.91 89.2 39.01"/><polygon class="cls-78" points="89.37 38.2 89.86 38.29 89.88 38.19 89.39 38.1 89.37 38.2"/><polygon class="cls-78" points="88.77 40.61 89.89 40.81 89.92 40.71 88.79 40.51 88.77 40.61"/><polygon class="cls-78" points="89.02 39.83 89.5 39.92 89.52 39.82 89.04 39.73 89.02 39.83"/><polygon class="cls-78" points="88.96 40.09 89.45 40.18 89.47 40.08 88.98 39.99 88.96 40.09"/><polygon class="cls-78" points="88.9 40.37 89.39 40.46 89.41 40.36 88.92 40.27 88.9 40.37"/><polygon class="cls-78" points="89.08 39.56 89.56 39.65 89.58 39.55 89.1 39.46 89.08 39.56"/><polygon class="cls-78" points="88.47 41.96 89.6 42.16 89.62 42.06 88.5 41.86 88.47 41.96"/><polygon class="cls-78" points="88.72 41.19 89.21 41.27 89.23 41.17 88.74 41.09 88.72 41.19"/><polygon class="cls-78" points="88.67 41.44 89.15 41.53 89.17 41.43 88.69 41.34 88.67 41.44"/><polygon class="cls-78" points="88.61 41.72 89.09 41.81 89.11 41.71 88.63 41.62 88.61 41.72"/><polygon class="cls-78" points="88.78 40.91 89.27 41 89.29 40.9 88.8 40.81 88.78 40.91"/><polygon class="cls-78" points="88.19 43.28 89.31 43.48 89.33 43.38 88.21 43.18 88.19 43.28"/><polygon class="cls-78" points="88.43 42.51 88.92 42.59 88.94 42.49 88.46 42.41 88.43 42.51"/><polygon class="cls-78" points="88.38 42.77 88.86 42.85 88.89 42.75 88.4 42.67 88.38 42.77"/><polygon class="cls-78" points="88.32 43.05 88.8 43.13 88.82 43.03 88.34 42.95 88.32 43.05"/><polygon class="cls-78" points="88.49 42.24 88.98 42.32 89 42.22 88.52 42.14 88.49 42.24"/><polygon class="cls-78" points="87.9 44.6 89.03 44.8 89.05 44.7 87.92 44.5 87.9 44.6"/><polygon class="cls-78" points="88.15 43.82 88.63 43.91 88.66 43.81 88.17 43.72 88.15 43.82"/><polygon class="cls-78" points="88.09 44.08 88.58 44.17 88.6 44.07 88.11 43.98 88.09 44.08"/><polygon class="cls-78" points="88.03 44.36 88.52 44.45 88.54 44.35 88.05 44.26 88.03 44.36"/><polygon class="cls-78" points="88.21 43.55 88.69 43.64 88.71 43.54 88.23 43.45 88.21 43.55"/><polygon class="cls-78" points="87.61 45.91 88.74 46.11 88.76 46.01 87.63 45.81 87.61 45.91"/><polygon class="cls-78" points="87.86 45.14 88.35 45.22 88.37 45.12 87.88 45.04 87.86 45.14"/><polygon class="cls-78" points="87.8 45.4 88.29 45.48 88.31 45.38 87.83 45.3 87.8 45.4"/><polygon class="cls-78" points="87.74 45.67 88.23 45.76 88.25 45.66 87.77 45.58 87.74 45.67"/><polygon class="cls-78" points="87.92 44.87 88.41 44.95 88.43 44.85 87.94 44.77 87.92 44.87"/><polygon class="cls-78" points="87.31 47.27 88.44 47.47 88.46 47.37 87.34 47.17 87.31 47.27"/><polygon class="cls-78" points="87.56 46.5 88.05 46.58 88.07 46.48 87.59 46.4 87.56 46.5"/><polygon class="cls-78" points="87.51 46.76 87.99 46.84 88.02 46.74 87.53 46.66 87.51 46.76"/><polygon class="cls-78" points="87.45 47.04 87.93 47.12 87.95 47.02 87.47 46.94 87.45 47.04"/><polygon class="cls-78" points="87.62 46.23 88.11 46.31 88.13 46.21 87.64 46.13 87.62 46.23"/><polygon class="cls-78" points="87.27 47.85 87.75 47.94 87.78 47.84 87.29 47.75 87.27 47.85"/><polygon class="cls-78" points="87.33 47.58 87.81 47.66 87.84 47.56 87.35 47.48 87.33 47.58"/><polygon class="cls-79" points="88.55 40.3 87.85 43.5 92.22 36.83 92.78 34.28 92.5 34.23 88.55 40.3"/><polygon class="cls-80" points="85.82 52.82 88.75 52.77 91.11 41.94 86.73 48.61 85.82 52.82"/><polygon class="cls-81" points="83.95 39.35 85.9 44.41 86.61 44.6 87.54 44.37 87.94 43.94 85.48 38.78 83.95 39.35"/><path class="cls-71" d="M99.44,38.14l.14,2.17,1.53-.57-1.52-1.65A.09.09,0,0,0,99.44,38.14Z" transform="translate(-15.63 -0.96)"/><path class="cls-72" d="M99.45,38.11l.6,2,.67-.25-1.17-1.82A.1.1,0,0,0,99.45,38.11Z" transform="translate(-15.63 -0.96)"/><path class="cls-73" d="M99.44,38.14l.14,2.17.47-.18-.6-2Z" transform="translate(-15.63 -0.96)"/><path class="cls-59" d="M100.71,39.89a.46.46,0,0,0-.67.25l2.2,5.42.93-.23h0l-2.46-5.44Z" transform="translate(-15.63 -0.96)"/><path class="cls-82" d="M100.85,39.69a.17.17,0,0,0-.14.2l2.46,5.44.4-.43-2.46-5.16A.23.23,0,0,0,100.85,39.69Z" transform="translate(-15.63 -0.96)"/><path class="cls-60" d="M99.75,40.09a.23.23,0,0,0-.17.22l2,5.06.71.19L100,40.14A.27.27,0,0,0,99.75,40.09Z" transform="translate(-15.63 -0.96)"/><path class="cls-40" d="M99.44,38.14l0,.59.52-.19-.41-.45A.09.09,0,0,0,99.44,38.14Z" transform="translate(-15.63 -0.96)"/><path class="cls-69" d="M99.48,38.07l.28.56.24-.09-.41-.45A.11.11,0,0,0,99.48,38.07Z" transform="translate(-15.63 -0.96)"/><rect class="cls-40" x="85.02" y="43.67" width="6.14" height="9.38"/><path class="cls-43" d="M100.9,51.37a.86.86,0,0,0,1.7,0V44.53h-1.7Z" transform="translate(-15.63 -0.96)"/><path class="cls-83" d="M105.08,48.5c0,2.61-1.57,4.65-3.62,4.65h-.83V54h6.15V44.54h-1.7Z" transform="translate(-15.63 -0.96)"/><path class="cls-43" d="M100.65,44.74h6.15a.05.05,0,0,0,0-.05v-.11a0,0,0,0,0,0,0h-6.15s-.06,0-.06,0v.11A.06.06,0,0,0,100.65,44.74Z" transform="translate(-15.63 -0.96)"/><path class="cls-25" d="M102.07,37a.1.1,0,0,0-.09.11l0,.58a.1.1,0,0,0,.11.09.11.11,0,0,0,.1-.11l0-.58A.12.12,0,0,0,102.07,37Z" transform="translate(-15.63 -0.96)"/><path class="cls-84" d="M89.19,47.89a2,2,0,1,0,2.23,2A2.13,2.13,0,0,0,89.19,47.89Zm0,3a1,1,0,1,1,1.14-1A1.1,1.1,0,0,1,89.19,50.93Z" transform="translate(-15.63 -0.96)"/><rect class="cls-84" x="74.1" y="45.33" width="7.09" height="7.77"/><path class="cls-85" d="M90.29,52A.36.36,0,1,0,91,52V46.38h-.71Z" transform="translate(-15.63 -0.96)"/><path class="cls-86" d="M94.91,49.54a4,4,0,0,1-4.24,3.84h-1v.67h7.1V46.31H94.91Z" transform="translate(-15.63 -0.96)"/><rect class="cls-85" x="74.1" y="45.33" width="7.09" height="0.17"/><path class="cls-85" d="M89,48.1a1.85,1.85,0,0,0-.41,0,1.22,1.22,0,0,0-.54.23,1.25,1.25,0,0,0-.26.25.18.18,0,0,0,.1.27.23.23,0,0,0,.25-.07.64.64,0,0,1,.16-.17.82.82,0,0,1,.37-.15.88.88,0,0,1,.28,0,.21.21,0,0,0,.22-.14h0A.19.19,0,0,0,89,48.1Z" transform="translate(-15.63 -0.96)"/><path class="cls-87" d="M92.43,44.85v0h0v0a.36.36,0,0,0-.08-.12,1.06,1.06,0,0,0-.2-.17.83.83,0,0,1-.31-.24.18.18,0,0,1,0-.13.37.37,0,0,1,.07-.12.71.71,0,0,1,.22-.16l.09-.06h-.11a1,1,0,0,0-.29.11.44.44,0,0,0-.16.17s0,0,0,.06h0v.09s0,.06,0,.08a.68.68,0,0,0,.17.21l.2.14.17.12,0,.06v0h0v0a.2.2,0,0,1,0,.13.47.47,0,0,1-.09.12.57.57,0,0,1-.13.08l-.11,0-.11,0h.12a.56.56,0,0,0,.31-.06.32.32,0,0,0,.17-.14.35.35,0,0,0,.07-.25Z" transform="translate(-15.63 -0.96)"/><path class="cls-87" d="M93.73,44.85v0h0v0a.36.36,0,0,0-.08-.12,1.51,1.51,0,0,0-.2-.17.83.83,0,0,1-.31-.24.14.14,0,0,1,0-.13.37.37,0,0,1,.07-.12.83.83,0,0,1,.21-.16l.1-.06h-.11a1,1,0,0,0-.3.11.51.51,0,0,0-.15.17.08.08,0,0,0,0,.06h0s0,0,0,0h0v0s0,0,0,.06a.19.19,0,0,0,0,.08.68.68,0,0,0,.17.21l.2.14a1.11,1.11,0,0,1,.16.12.13.13,0,0,1,0,.06v0h0v0a.2.2,0,0,1,0,.13.47.47,0,0,1-.09.12l-.13.08-.11,0-.11,0h.12a.57.57,0,0,0,.31-.06.37.37,0,0,0,.17-.14.35.35,0,0,0,.07-.25Z" transform="translate(-15.63 -0.96)"/><path class="cls-87" d="M94.9,44.85v0h0v0a.36.36,0,0,0-.08-.12,1.06,1.06,0,0,0-.2-.17.83.83,0,0,1-.31-.24.18.18,0,0,1,0-.13.37.37,0,0,1,.07-.12.71.71,0,0,1,.22-.16l.09-.06h-.11a1,1,0,0,0-.29.11.44.44,0,0,0-.16.17s0,0,0,.06h0v.09s0,.06,0,.08a.68.68,0,0,0,.17.21l.2.14.17.12,0,.06v0h0v0a.2.2,0,0,1,0,.13.47.47,0,0,1-.09.12.57.57,0,0,1-.13.08l-.11,0-.11,0h.12a.56.56,0,0,0,.31-.06.32.32,0,0,0,.17-.14.35.35,0,0,0,.07-.25Z" transform="translate(-15.63 -0.96)"/><path class="cls-45" d="M104.24,23.76a5.53,5.53,0,0,0-7.15,1.3c-.14.19-.23.32-.39.57l7.9,5.18a6.48,6.48,0,0,0,.47-.52A4.36,4.36,0,0,0,104.24,23.76Z" transform="translate(-15.63 -0.96)"/><path class="cls-45" d="M105.34,22.38a2.4,2.4,0,0,0-3.24.38c-.07.08-.07.1-.19.26l3.82,2.51a3.39,3.39,0,0,0,.23-.25A1.91,1.91,0,0,0,105.34,22.38Z" transform="translate(-15.63 -0.96)"/><path class="cls-88" d="M102.07,23a4.71,4.71,0,0,0-1.71.09,2.6,2.6,0,0,1,2,.38c3.21,2,2.51,4.45,1,6.57l1.18.77a6.48,6.48,0,0,0,.47-.52,4.46,4.46,0,0,0,.63-4.93A16,16,0,0,0,102.07,23Z" transform="translate(-15.63 -0.96)"/><path class="cls-88" d="M105.34,22.38l-.1-.06a1.5,1.5,0,0,1,.65,1.35c-.13.93-.84,1.08-1.35.75L102,22.86l-.11.16,3.82,2.51a3.39,3.39,0,0,0,.23-.25A1.91,1.91,0,0,0,105.34,22.38Z" transform="translate(-15.63 -0.96)"/><path class="cls-85" d="M99,24.4c-.5.3-.76.75-.58,1s.75.22,1.26-.07.77-.76.58-1S99.48,24.1,99,24.4Z" transform="translate(-15.63 -0.96)"/><path class="cls-85" d="M103.77,22.58a.46.46,0,0,0-.6.07.36.36,0,0,0,.12.53.44.44,0,0,0,.59-.07A.37.37,0,0,0,103.77,22.58Z" transform="translate(-15.63 -0.96)"/><polygon class="cls-88" points="80.88 24.85 88.81 30.05 89.17 29.6 81.24 24.4 80.88 24.85"/><path class="cls-25" d="M104.62,30.78l-7.9-5.18a.33.33,0,0,0-.43.06.27.27,0,0,0,.07.4l7.89,5.17a.33.33,0,0,0,.44-.06A.26.26,0,0,0,104.62,30.78Z" transform="translate(-15.63 -0.96)"/><path class="cls-89" d="M80.76,43.69,64.07,43a1.17,1.17,0,0,1-1.18-1.17L63,39.24a1.19,1.19,0,0,1,1.3-1.06L81,38.92a1.17,1.17,0,0,1,1.18,1.17l-.14,2.54A1.2,1.2,0,0,1,80.76,43.69Z" transform="translate(-15.63 -0.96)"/><text class="cls-90" transform="matrix(0.98, 0.04, -0.05, 1, 48.58, 41.19)">TR<tspan class="cls-91" x="5.88" y="0">U</tspan><tspan class="cls-92" x="8.89" y="0">MP</tspan></text><polygon class="cls-93" points="67.35 47.34 56.49 48.42 56.13 45.45 66.98 44.37 67.35 47.34"/><text class="cls-94" transform="matrix(0.97, -0.1, 0.12, 0.99, 57.91, 47.61)">#MAGA</text><image width="1024" height="1024" transform="matrix(0, 0, 0, 0, 45.35, 43.71)" xlink:href="../../../../Desktop/dWeb Branding/dweb-emblem-v3-shadow.png"/></svg>