<svg id="Layer_1" data-name="Layer 1" xmlns="http://www.w3.org/2000/svg" xmlns:xlink="http://www.w3.org/1999/xlink" viewBox="0 0 153.33 127.95"><defs><style>.cls-1{fill:#e4f3f4;}.cls-116,.cls-119,.cls-2{fill:#fff;}.cls-3{fill:#b5c8d6;}.cls-4{fill:#8ad3d6;}.cls-5{fill:#1f2c3f;}.cls-6{fill:#2b3a4f;}.cls-7{fill:#16141c;}.cls-8{fill:#505068;}.cls-9{fill:#2e7dbe;}.cls-10{fill:#a5c3d6;}.cls-11{fill:#4badff;}.cls-12{fill:#dfefec;}.cls-13{fill:#252533;}.cls-14{fill:#262534;}.cls-15{fill:#6ec0ce;}.cls-16{fill:#e4efec;}.cls-17{fill:#baf7f4;}.cls-18{fill:#5fb1c4;}.cls-19{fill:#58b1c6;}.cls-20{fill:#a2c506;}.cls-21{fill:#96af05;}.cls-22{fill:#7ba007;}.cls-23{fill:#f4f4f4;}.cls-24{fill:#bebecb;}.cls-25{fill:#232020;}.cls-26{fill:#2c2b3f;}.cls-27{fill:#2d6fbd;}.cls-28{fill:#0a4191;}.cls-29{fill:#3e92cc;}.cls-30{fill:#4a9add;}.cls-31{fill:#49a4e2;}.cls-32{fill:#ffb288;}.cls-33{fill:#f08b6d;}.cls-34{fill:#1a1a28;}.cls-35{fill:#602828;}.cls-36{fill:#491b1b;}.cls-37{fill:#632b2a;}.cls-38{fill:#101019;}.cls-39{fill:#0a0a0f;}.cls-40{fill:#1f1f2b;}.cls-41{fill:#141517;}.cls-42{opacity:0.27;}.cls-43{fill:#262635;}.cls-44{fill:#202028;}.cls-45{fill:#4f5e89;}.cls-46{fill:#d8d8d8;}.cls-47{fill:#d1d1d1;}.cls-48{fill:#efefef;}.cls-49{fill:#fcba00;}.cls-50{fill:#ff9700;}.cls-51{fill:#ffe18d;}.cls-52{fill:#ffa300;}.cls-53{fill:#774701;}.cls-54{fill:#f1ff9c;opacity:0.24;}.cls-55{fill:#41442e;opacity:0.15;}.cls-56{fill:#e81515;}.cls-57{fill:#ea9639;}.cls-58{fill:#feae4d;}.cls-59{fill:#ffd59d;}.cls-60{fill:#97af0b;}.cls-61{fill:#728c04;}.cls-62{fill:#bad807;}.cls-63{fill:#1f4975;}.cls-64{fill:#fe411b;}.cls-65{fill:#ff6f4d;}.cls-66{fill:#d42900;}.cls-67{fill:#e5ad88;}.cls-68{fill:#d85567;}.cls-69{fill:#7cb23d;}.cls-70{fill:#67532f;}.cls-71{fill:#fcbc86;}.cls-72{fill:#f99c60;}.cls-73{fill:#fbfffa;}.cls-74{fill:#e6f5ff;}.cls-75{fill:#725a33;}.cls-76{fill:#c74124;}.cls-77{fill:#8e6e47;}.cls-78{fill:#492e1f;}.cls-79{fill:#fe625c;}.cls-80{fill:#ff474d;}.cls-81{fill:#d33137;}.cls-82{fill:#ff7178;}.cls-83{fill:#4d6642;opacity:0.1;}.cls-84{fill:#bc7025;}.cls-85{fill:#b7631b;}.cls-86{fill:#4c4848;}.cls-87{fill:#befcf9;}.cls-88{fill:#faffff;}.cls-89{fill:#d7fffc;}.cls-90{fill:#393951;}.cls-91{fill:#d66a3f;}.cls-92{fill:#ef875f;}.cls-93{fill:#ffc533;}.cls-94{fill:#f9ba2d;}.cls-95{fill:#f7af2f;}.cls-96{fill:#ffce33;}.cls-97{fill:#ffd45a;}.cls-98{fill:#ffdc83;}.cls-99{fill:#ffd16c;}.cls-100{fill:#ffeb99;}.cls-101{fill:#fff5ca;}.cls-102{fill:#ffcf57;}.cls-103{fill:#ffd150;}.cls-104{fill:#ffd96e;}.cls-105{fill:#e3a000;}.cls-106{fill:#e8a63d;}.cls-107{fill:#f9cd75;}.cls-108{fill:#f9cc69;}.cls-109{fill:#e5e5e5;}.cls-110{fill:#398fc9;}.cls-111{fill:#e6e6e6;}.cls-112{fill:#999;}.cls-113{fill:#ccc;}.cls-114{fill:#262533;}.cls-115{fill:#f92828;}.cls-116{font-size:4.63px;font-family:Reisenberg, Reisenberg;}.cls-117{letter-spacing:-0.05em;}.cls-118{fill:#33f;}.cls-119{font-size:3.44px;font-family:Eternal, Eternal;}</style></defs><title>hero-2</title><polygon class="cls-1" points="140.32 54.98 109.67 54.98 109.24 47.32 140.32 47.32 140.32 54.98"/><polygon class="cls-2" points="131.57 54.98 109.67 54.98 109.24 47.32 131.57 47.32 131.57 54.98"/><polygon class="cls-1" points="142.48 47.32 110.93 47.32 110.93 42.07 142 42.07 142.48 47.32"/><polygon class="cls-2" points="133.63 47.32 110.61 47.32 110.93 42.07 133.26 42.07 133.63 47.32"/><path class="cls-3" d="M130.23,60.11V57.86H114.86c2.71.26,5.52.59,8.45,1C125.7,59.26,128,59.67,130.23,60.11Z" transform="translate(1.99 -10.54)"/><path class="cls-3" d="M123.32,62.12s2.09.34,6.26.7V62C126.11,62,123.32,62.12,123.32,62.12Z" transform="translate(1.99 -10.54)"/><polygon class="cls-3" points="122.46 43.87 130.42 43.87 129.73 45.02 122.46 43.87"/><polygon class="cls-4" points="141.4 124.84 47.4 125.29 47.4 72.28 151.42 72.28 141.4 124.84"/><path class="cls-5" d="M67.81,98.83c-.65,0,.67-.4.66-1.07,0-2-.13-6-.37-9.47,0-.15-.29-3.73-3.23-4.56-2.58-.73-7.32-.86-14.09-.4-.65,0-1.17.21-1.22-.47l-1.33.73a3.34,3.34,0,0,1,2.4-2.73c7.12-.48,12-.33,14.86.48,3.64,1,4.85,4.74,5,6.77a98.81,98.81,0,0,1,.38,10.16c-.11,1.39-1.82,2.1-2.49,2.11Z" transform="translate(1.99 -10.54)"/><path class="cls-6" d="M68.37,100.38a1.22,1.22,0,0,1-1.19-1.22c0-2-.13-6-.37-9.47,0-.15-.29-3.73-3.23-4.56-2.58-.72-7.32-.86-14.09-.4a1.19,1.19,0,0,1-1.26-1.14h0a1.23,1.23,0,0,1,1.11-1.33c7.12-.48,12-.32,14.86.48,3.64,1,4.85,4.74,5,6.77.24,3.53.34,7.55.37,9.61a1.22,1.22,0,0,1-1.19,1.26Z" transform="translate(1.99 -10.54)"/><path class="cls-7" d="M59,135h0a1,1,0,0,0,1-1v-2.46a1,1,0,0,0-1-1h0a1,1,0,0,0-1,1V134C58.06,134.2,58.5,135,59,135Z" transform="translate(1.99 -10.54)"/><path class="cls-8" d="M79,134.83h.08a.23.23,0,0,0,.23-.25l-.06-4a.24.24,0,0,0-.24-.24h-.08a.24.24,0,0,0-.23.25l.06,4A.25.25,0,0,0,79,134.83Z" transform="translate(1.99 -10.54)"/><path class="cls-7" d="M22.63,135h0a1,1,0,0,1-1-1v-2.46a1,1,0,0,1,1-1h0a1,1,0,0,1,1,1V134C23.6,134.23,23.16,135,22.63,135Z" transform="translate(1.99 -10.54)"/><rect class="cls-9" x="106.48" y="65.53" width="34.78" height="6.42" transform="translate(249.73 126.95) rotate(180)"/><rect class="cls-2" x="106.48" y="66.3" width="13.23" height="5.24" transform="translate(228.17 127.3) rotate(180)"/><rect class="cls-10" x="106.48" y="66.26" width="13.23" height="0.98" transform="translate(228.17 122.97) rotate(180)"/><polygon class="cls-11" points="108.1 60.66 121.27 60.66 121.27 55.76 108.16 55.76 108.16 54.99 121.27 54.99 122.13 54.99 122.13 55.76 122.13 61.42 121.27 61.42 108.1 61.42 108.1 60.66"/><rect class="cls-12" x="131.89" y="67.24" width="7.41" height="2.99" transform="translate(273.18 126.94) rotate(180)"/><rect class="cls-13" x="138.09" y="67.24" width="1.21" height="2.99" transform="translate(279.38 126.94) rotate(180)"/><rect class="cls-10" x="134.22" y="67.74" width="0.8" height="2" transform="translate(271.22 126.94) rotate(180)"/><rect class="cls-10" x="132.96" y="67.74" width="0.8" height="2" transform="translate(268.71 126.94) rotate(180)"/><ellipse class="cls-11" cx="125.35" cy="58.21" rx="1.35" ry="1.4"/><path class="cls-14" d="M124.31,68.74A1.15,1.15,0,1,0,123.16,70,1.21,1.21,0,0,0,124.31,68.74Z" transform="translate(1.99 -10.54)"/><rect class="cls-15" x="114.88" y="71.12" width="3.88" height="53.72"/><rect class="cls-16" x="113.48" y="71.12" width="3.34" height="53.72"/><rect class="cls-15" x="137.51" y="71.12" width="3.88" height="53.72"/><rect class="cls-16" x="136.11" y="71.12" width="3.34" height="53.72"/><polygon class="cls-17" points="113.43 71.08 113.43 85.27 116.87 88.75 116.87 71.08 113.43 71.08"/><polygon class="cls-17" points="139.5 71.08 136.06 71.08 136.06 108.78 139.5 112.25 139.5 71.08"/><polygon class="cls-18" points="118.77 73.65 113.43 73.65 113.43 72.06 118.77 72.28 118.77 73.65"/><polygon class="cls-19" points="141.4 73.65 136.06 73.65 136.06 72.23 141.4 72.28 141.4 73.65"/><rect class="cls-20" x="108.06" y="61.45" width="33.66" height="6.22"/><path class="cls-21" d="M106.07,72.3c7.93.23,20.43-1,20.7,4.65,0,.49,0,.93,0,1.26l12.86,0V72H106.05Z" transform="translate(1.99 -10.54)"/><rect class="cls-12" x="128.92" y="61.45" width="12.8" height="6.22"/><polygon class="cls-22" points="129.33 62.19 142.01 62.19 142.01 61.45 129.33 61.45 128.5 61.45 128.5 62.19 128.5 67.67 129.33 67.67 142.07 67.67 142.07 66.93 129.33 66.93 129.33 62.19"/><rect class="cls-10" x="129.33" y="62.19" width="12.39" height="0.74"/><rect class="cls-23" x="109.95" y="63.11" width="7.17" height="2.89"/><rect class="cls-13" x="109.95" y="63.11" width="1.17" height="2.89"/><rect class="cls-24" x="114.1" y="63.59" width="0.77" height="1.94"/><rect class="cls-24" x="115.32" y="63.59" width="0.77" height="1.94"/><ellipse class="cls-22" cx="125.38" cy="64.56" rx="1.3" ry="1.35"/><path class="cls-14" d="M123.58,73.87a1.24,1.24,0,1,0,1.11,1.23A1.18,1.18,0,0,0,123.58,73.87Z" transform="translate(1.99 -10.54)"/><path class="cls-25" d="M33.26,109.93l-.41-.46a35.3,35.3,0,0,1,4.83-3.69l.09-.06,11-.48,0,.8L38,106.51C37.38,106.93,34.41,109.06,33.26,109.93Z" transform="translate(1.99 -10.54)"/><ellipse class="cls-7" cx="33.98" cy="109.08" rx="2.31" ry="0.86" transform="translate(-58.58 34.41) rotate(-38.55)"/><polygon class="cls-26" points="34.09 90.93 48.68 97.56 62.11 90.84 34.09 90.93"/><path class="cls-7" d="M52.81,105l7.31-3.66-28,.1,14.59,6.62.36-.18-3.8-2.62C42.83,105.1,52.81,105,52.81,105Z" transform="translate(1.99 -10.54)"/><rect class="cls-7" x="45.42" y="107.49" width="2.38" height="5.72" transform="translate(95.21 210.16) rotate(180)"/><path class="cls-27" d="M17.72,50c1.32-1.42,5.12-1.89,12.85-2C45.8,47.79,46.67,51.46,47,54.9,48.53,68.8,51.8,76.56,53,84.42a40,40,0,0,1,0,10.15s-1.22.11-2.58.21c-1.71.14-2.57.21-3.81.22-5.28,0-19.83,6.09-23.67,1.82-1.41-1.57-.61-4-.72-6C21.1,70.94,15.14,52.75,17.72,50Z" transform="translate(1.99 -10.54)"/><path class="cls-27" d="M25.29,102.56c.46,1.26,34.28,2.65,46.41-2.51,1.41-.6,1.07-5.68-.94-5.67C70,94.39,50.23,98,35,96.6,32.32,96.36,24.7,100.92,25.29,102.56Z" transform="translate(1.99 -10.54)"/><path class="cls-28" d="M21.43,97c0-.26,2-.47,10.73-1.12C43.5,95,47.74,94.78,53,94.57c1.68-.07,4.79-.26,7.64-.27,1.6,0,10.09-.44,10.11.08s-10.7,2.05-15.44,2.49c-10.14.94-17.5.59-26.17.16C27.69,97,21.43,97.39,21.43,97Z" transform="translate(1.99 -10.54)"/><path class="cls-26" d="M69.62,134a29.54,29.54,0,0,0,0-3,14.06,14.06,0,0,0-.24-2.66c-1.27-4-22.22-7.09-22.75-6.24s.65,4.1.65,4.1,15.93.66,19.47,3.69c.62.54.08,3.05.37,4.16A1.24,1.24,0,0,0,69.62,134Z" transform="translate(1.99 -10.54)"/><path class="cls-28" d="M70.76,94.38c-.44,0-6.61,1.1-14.6,1.85,3.9,1.24,3.32,6.88.23,6.88,5.27-.57,12.08-1.69,15.31-3.06C73.11,99.45,72.77,94.37,70.76,94.38Z" transform="translate(1.99 -10.54)"/><path class="cls-26" d="M23.6,134c0-1-.12-1.78,0-3a15,15,0,0,1,.24-2.66c1.27-4,22.23-7.09,22.75-6.24s-.64,4.1-.64,4.1-15.93.66-19.48,3.69c-.62.54-.08,3.05-.37,4.16A1.24,1.24,0,0,1,23.6,134Z" transform="translate(1.99 -10.54)"/><path class="cls-7" d="M67.15,129a2.73,2.73,0,0,1,.67,2c.05.83-.68,3.5,1.27,4a1.25,1.25,0,0,1-1.94-.92c-.29-1.11.25-3.62-.37-4.16-3.54-3-19.47-3.69-19.47-3.69s-.19-.54-.37-1.23c2.2.06,4.12.21,5.69.37C61.43,126.25,66.57,128.36,67.15,129Z" transform="translate(1.99 -10.54)"/><path class="cls-7" d="M25.31,131.1a2.73,2.73,0,0,1,.67-2c.58-.63,5.72-2.75,14.51-3.67,1.59-.16,3.54-.32,5.77-.39-.18.66-.34,1.15-.34,1.15s-15.93.66-19.48,3.69c-.62.54-.08,3.05-.37,4.16a1.26,1.26,0,0,1-1.83,1C26,134.42,25.26,131.91,25.31,131.1Z" transform="translate(1.99 -10.54)"/><path class="cls-29" d="M40,97.6l.59,0c.38,0,.91,0,1.56,0h2.18l2.51,0,4.69-.11.87,0h1.27l-.58.13-.67.14c-.26,0-.55.1-.87.14l-.5.08-.54.07c-.36,0-.75.09-1.15.12l-.62,0-.62,0-1.28,0H45.58l-1.24,0-1.16-.08-.53,0-.5-.06-1.54-.23C40.23,97.65,40,97.6,40,97.6Z" transform="translate(1.99 -10.54)"/><path class="cls-7" d="M46.61,122.21a1.17,1.17,0,0,1,0-.11c.14-.22,1.64-.17,3.81.08a4.19,4.19,0,0,0-.89,1,5.39,5.39,0,0,0-.61,1.56,11.33,11.33,0,0,0-.31,1.53l-1.35-.07a19.57,19.57,0,0,1-.7-2.72A3,3,0,0,0,46.61,122.21Z" transform="translate(1.99 -10.54)"/><path class="cls-7" d="M43.64,123.18a4.19,4.19,0,0,0-.89-1c2.17-.25,3.67-.3,3.81-.08a.37.37,0,0,1,0,.11,3,3,0,0,0,0,1.27,20.24,20.24,0,0,1-.69,2.72l-1.36.07a13.38,13.38,0,0,0-.3-1.53A5.72,5.72,0,0,0,43.64,123.18Z" transform="translate(1.99 -10.54)"/><rect class="cls-26" x="44.62" y="110.75" width="3.98" height="3.77" transform="translate(95.21 214.73) rotate(180)"/><rect class="cls-7" x="44.62" y="110.75" width="1.52" height="3.77" transform="translate(92.76 214.73) rotate(180)"/><rect class="cls-7" x="44.62" y="113.03" width="3.98" height="1.48" transform="translate(95.21 217.01) rotate(180)"/><rect class="cls-26" x="44.99" y="121.63" width="3.24" height="13.46" rx="1.62" ry="1.62" transform="translate(95.21 246.19) rotate(180)"/><path class="cls-7" d="M46.25,121.68a1.67,1.67,0,0,0-.23.94v10.09a1.64,1.64,0,0,0,1.59,1.69,1.42,1.42,0,0,0,.36-.05,1.64,1.64,0,0,1-1.37.74,1.88,1.88,0,0,1-1.73-1.83v-9.74A2.06,2.06,0,0,1,46.25,121.68Z" transform="translate(1.99 -10.54)"/><path class="cls-30" d="M16.88,52C16.19,55.8,19.06,90.29,20,99.5a3.67,3.67,0,0,0,2.76,3.26c5.94,1.44,19.21,2.73,19.21-2.19,0-4.17-11.29-4.09-16.22-3.71a2,2,0,0,1-2.09-2c-.25-8.08-2.33-36.12-3.44-43.1C19.86,49.85,17.6,48.06,16.88,52Z" transform="translate(1.99 -10.54)"/><rect class="cls-7" x="43.83" y="117.98" width="5.57" height="5.12" rx="2.56" ry="2.56" transform="translate(95.21 230.54) rotate(-180)"/><rect class="cls-26" x="43.83" y="113.61" width="5.57" height="8.88" rx="2.78" ry="2.78" transform="translate(95.21 225.56) rotate(180)"/><path class="cls-7" d="M43.83,113.61h0a2.32,2.32,0,0,1,2.32,2.32v4.24a2.32,2.32,0,0,1-2.32,2.32h0a0,0,0,0,1,0,0v-8.88A0,0,0,0,1,43.83,113.61Z" transform="translate(91.97 225.56) rotate(180)"/><path class="cls-31" d="M41.92,100.57c0-2.67-4.64-3.6-9.27-3.82,2.64.85,4.63,2,5.23,3.33a6.26,6.26,0,0,1,.61,2.08,3.07,3.07,0,0,1-.45,1.53C40.35,103.22,41.92,102.27,41.92,100.57Z" transform="translate(1.99 -10.54)"/><path class="cls-31" d="M19.32,51.62a1.49,1.49,0,0,1,.85.2v0c-.31-1.95-2.57-3.74-3.29.21a25.66,25.66,0,0,0-.08,3.92,8.21,8.21,0,0,1,1-3.17A2.17,2.17,0,0,1,19.32,51.62Z" transform="translate(1.99 -10.54)"/><path class="cls-32" d="M73.17,66.41a.91.91,0,0,0,.07-.14A.91.91,0,0,1,73.17,66.41Z" transform="translate(1.99 -10.54)"/><path class="cls-32" d="M73.11,66.58a.78.78,0,0,1,0-.14A.78.78,0,0,0,73.11,66.58Z" transform="translate(1.99 -10.54)"/><polygon class="cls-33" points="74.17 57.84 74.17 57.84 74.17 57.84 74.17 57.84"/><polygon class="cls-33" points="75.23 55.74 75.23 55.74 75.23 55.74 75.23 55.74"/><path class="cls-34" d="M73.18,133.53c.34.63-.25,1.17-.32,1.25-1.42,1.43-13.58.21-14-.06-.61-.39-.3-1.38.46-1.92,1-.68,2.32.19,5.32.44C68.66,133.59,73.18,133.53,73.18,133.53Z" transform="translate(1.99 -10.54)"/><path class="cls-35" d="M59.09,129.2a13.58,13.58,0,0,0-.12,4.31c.46.46,13.38,2,14.32.37.24-.43.68-2.2-2.32-3.06-1-.28-3.74-.8-4.91-1.9C64.38,127.34,60.19,128,59.09,129.2Z" transform="translate(1.99 -10.54)"/><path class="cls-34" d="M46.53,131.9a2.5,2.5,0,0,0-.35,1.74c.12.33.5.52.89.69,1.39.6,11.43,2,14.53.94a1.12,1.12,0,0,0,.44-1.74c-.63-.63-2.36.21-4.83.42C51.82,134.4,47.84,130.77,46.53,131.9Z" transform="translate(1.99 -10.54)"/><path class="cls-36" d="M62.81,130.73c.32-.28.79,0,1.88-.1a4.72,4.72,0,0,0,2.19-.68,2.08,2.08,0,0,0,.35-.29,4.19,4.19,0,0,1-1.17-.74c-1.68-1.58-5.87-1-7,.28a13.58,13.58,0,0,0-.12,4.31,16.22,16.22,0,0,0,4.05.7c-.15-1.15-.35-2.13-.38-2.52S62.59,130.91,62.81,130.73Z" transform="translate(1.99 -10.54)"/><path class="cls-37" d="M47.74,128.37c-.61.33-1.87,4.06-1.42,4.63,1.19,1.47,15.13,2.41,15.72,1.34a1.7,1.7,0,0,0,0-1.43c-1.12-2.56-5.77-2.85-9.21-3.71C49.73,128.43,48.67,127.86,47.74,128.37Z" transform="translate(1.99 -10.54)"/><path class="cls-36" d="M49,130.31c2.65.67,6.64.39,7.24-.39-1.15-.24-2.33-.45-3.39-.72-3.1-.77-4.16-1.34-5.09-.83-.61.33-1.87,4.06-1.42,4.63a4.17,4.17,0,0,0,1.94.78C48.54,132.09,48.35,130.15,49,130.31Z" transform="translate(1.99 -10.54)"/><path class="cls-38" d="M48.79,82a52.21,52.21,0,0,1,17.86,5c2.36,1.47,2,3,2.25,3.93.67,2.22-.24,32.77-1.89,37.69-.7,2.08-8.47,2-8.47.49,0-1.72.51-13.25,1.53-21.73,1.73-14.26,1-9.67-.63-11.91-1.88-2.52-5.11-3.28-10.51-4.54-4.73-1.11-7.46-.72-10.76-3.2-1.7-1.27-3.8-3.49-3.31-4.54S41.92,81.44,48.79,82Z" transform="translate(1.99 -10.54)"/><path class="cls-39" d="M62.08,129.32a2.51,2.51,0,0,1-1.76-.73c-.5-.57-.48-1.28-.36-3.12.25-3.87.44-5.5.44-5.5.09-.71.25-2,.36-2.84.67-4.79,3-13.41,4.05-20.07a9.24,9.24,0,0,0-.26-4.49,7.14,7.14,0,0,0-1.85-3c-1.1-1-2.35-1.33-4.85-1.93-4-1-5.12-1.1-5.12-1.1C52,86.43,51,86.33,51,86s.37-.52,1.41-1.19L53.56,84c-3.57-.59-7.25-1.09-10.16-1.31-6.87-.52-8-.7-8.54.44s1.61,3.27,3.31,4.54c3.3,2.48,6,2.09,10.76,3.2,5.4,1.26,8.63,2,10.51,4.54,1.68,2.24,2.36-2.35.63,11.91-1,8.48-1.53,20-1.53,21.73,0,1.38,6.83,1.57,8.26-.13A12.71,12.71,0,0,1,62.08,129.32Z" transform="translate(1.99 -10.54)"/><path class="cls-40" d="M33.56,81.68c-.36.52-.79,4.35-.71,5.89a10.31,10.31,0,0,0,1.66,5.65c3.85,5.4,17.47,3.65,18.32,5,.49.8-7.09,27.62-6.27,29.22,1.38,2.67,7.21,2.87,8.51,2.21,2.4-1.22,8.63-30,8.75-33.76a6.6,6.6,0,0,0-.83-4,5.59,5.59,0,0,0-2.48-2C57,88.3,50.23,86.78,42.66,85.12,35.55,83.56,34.28,80.66,33.56,81.68Z" transform="translate(1.99 -10.54)"/><path class="cls-41" d="M50.67,97.06c-1-.17-2-.37-3.06-.55A26,26,0,0,1,43,95.23,8.2,8.2,0,0,1,40.44,94a7.41,7.41,0,0,1-1.91-2.48,9.61,9.61,0,0,1-.84-3.39,24.85,24.85,0,0,1-.06-4.62c-2.8-1.31-3.57-2.49-4.07-1.78-.36.52-.79,4.35-.71,5.89a10.31,10.31,0,0,0,1.66,5.65c3.74,5.26,16.74,3.73,18.22,4.93a1.14,1.14,0,0,0-.15-.54C52.38,97.31,52.06,97.29,50.67,97.06Z" transform="translate(1.99 -10.54)"/><path class="cls-41" d="M48.58,128c-.6-1-.24-3.77-.24-3.77.32-2.15,4.5-21.87,5-24.55.19-1,.29-1.62,0-1.92-.56-.57-3.8-1-4.82-.27,2.3.15,4,.26,4.3.72.49.8-7.09,27.62-6.27,29.22S49.85,129.79,52,130A5.2,5.2,0,0,1,48.58,128Z" transform="translate(1.99 -10.54)"/><path class="cls-42" d="M45.22,86.13c4.49-.18,8.3-2.35,9.18-3.34-2.07-.79.42-1.34-11-.08-4.67.52-6.7-.55-7.68-.28-1.3-.79-1.8-1.26-2.16-.75a7.37,7.37,0,0,0-.46,2.13C35.42,85.43,39.14,86.37,45.22,86.13Z" transform="translate(1.99 -10.54)"/><path class="cls-41" d="M52.39,97.64c0-.16.74-.23,1.39-.52,1.23-.55,1.75-1.72,1.85-1.65a3.73,3.73,0,0,1-.7,1.34c-.57.83-1.42,1.76-1.75,1.58-.11-.06-.07-.2-.26-.41S52.39,97.73,52.39,97.64Z" transform="translate(1.99 -10.54)"/><path class="cls-43" d="M59.23,91.29c.64-.57-10-3.43-11.38-3.69-1.61-.3-4.17-1-4.36-.25-.27,1.07,3.12,1.63,7,2.52C54.86,90.86,58.55,91.92,59.23,91.29Z" transform="translate(1.99 -10.54)"/><path class="cls-44" d="M54.4,84.92c0-.14,1.26.07,3.71.48,3.69.62,7.73,3.08,7.66,3.32-.11.4-4.58-1.54-4.81-1.6C57.89,86.33,54.34,85.17,54.4,84.92Z" transform="translate(1.99 -10.54)"/><path class="cls-44" d="M67.9,93.49c.62,0-.31,17.49-.61,22.09C66.93,121.05,67,127,66,127,65.17,127.05,67.11,93.49,67.9,93.49Z" transform="translate(1.99 -10.54)"/><path class="cls-43" d="M62.34,97.06c.67.1-.82,6.35-2.2,12.56-2.24,10.09-4.5,19.07-5.38,18.79-.55-.18.85-7,3.83-19.24C60.44,101.57,61.89,97,62.34,97.06Z" transform="translate(1.99 -10.54)"/><path class="cls-33" d="M73.16,66.44v0Z" transform="translate(1.99 -10.54)"/><rect class="cls-15" x="57.32" y="71.12" width="3.88" height="54.17"/><rect class="cls-16" x="55.91" y="71.12" width="3.34" height="54.17"/><rect class="cls-15" x="79.95" y="71.12" width="3.88" height="54.17"/><rect class="cls-16" x="78.54" y="71.12" width="3.34" height="54.17"/><polygon class="cls-17" points="55.87 71.08 55.91 85.74 59.26 89 59.31 71.08 55.87 71.08"/><polygon class="cls-17" points="81.94 71.08 78.5 71.08 78.5 109.1 81.94 112.6 81.94 71.08"/><rect class="cls-18" x="55.87" y="72.29" width="5.33" height="1.38"/><polygon class="cls-18" points="83.83 73.67 78.5 73.67 78.5 72.01 83.83 72.29 83.83 73.67"/><path class="cls-45" d="M32.56,50.94l-.06,0,.06,0Z" transform="translate(1.99 -10.54)"/><path class="cls-2" d="M148.3,51.76a1.11,1.11,0,0,0-1.55.47L133.68,76.94c-.3.57,2,1.11,2.33.53l12.74-24.1A1.2,1.2,0,0,0,148.3,51.76Z" transform="translate(1.99 -10.54)"/><path class="cls-46" d="M147.51,52a.53.53,0,0,0-.73.22L134.1,76.1a.58.58,0,0,0,.21.77.53.53,0,0,0,.73-.22l12.69-23.92A.58.58,0,0,0,147.51,52Z" transform="translate(1.99 -10.54)"/><path class="cls-2" d="M144.74,76.37H128.33a.78.78,0,0,0-.67.85v.08a.77.77,0,0,0,.67.84h16.41a.78.78,0,0,0,.68-.84v-.08A.78.78,0,0,0,144.74,76.37Z" transform="translate(1.99 -10.54)"/><path class="cls-47" d="M127.66,77.37s0,.83.49.84l16.57.05c.37,0,.7-.46.7-.92Z" transform="translate(1.99 -10.54)"/><path class="cls-2" d="M123.81,31.55l-1.57,1.63a.54.54,0,0,0,0,.75.51.51,0,0,0,.72,0l1.56-1.63a.54.54,0,0,0,0-.75A.48.48,0,0,0,123.81,31.55Z" transform="translate(1.99 -10.54)"/><path class="cls-2" d="M137.75,31H125a.53.53,0,0,0,0,1.06h12.72a.53.53,0,0,0,0-1.06Z" transform="translate(1.99 -10.54)"/><path class="cls-2" d="M138.94,31.77a.49.49,0,0,0-.68-.22.54.54,0,0,0-.22.71l9.83,19.41a.5.5,0,0,0,.69.22.53.53,0,0,0,.21-.71Z" transform="translate(1.99 -10.54)"/><path class="cls-46" d="M137.28,31.55H125.16a.26.26,0,0,0-.25.26.26.26,0,0,0,.25.27h12.12a.27.27,0,0,0,0-.53Z" transform="translate(1.99 -10.54)"/><path class="cls-46" d="M138.72,32.55a.22.22,0,0,0-.31-.1.24.24,0,0,0-.1.33l9.28,18.3a.24.24,0,0,0,.32.11.26.26,0,0,0,.1-.33Z" transform="translate(1.99 -10.54)"/><path class="cls-46" d="M124.15,32.06l-1.33,1.31a.25.25,0,0,0,0,.34.23.23,0,0,0,.33,0l1.33-1.31a.24.24,0,0,0,0-.34A.23.23,0,0,0,124.15,32.06Z" transform="translate(1.99 -10.54)"/><path class="cls-3" d="M138.19,30.76a1,1,0,1,0,1,1A1,1,0,0,0,138.19,30.76Z" transform="translate(1.99 -10.54)"/><path class="cls-2" d="M138.13,30.76a.93.93,0,1,0,.89.92A.91.91,0,0,0,138.13,30.76Z" transform="translate(1.99 -10.54)"/><path class="cls-3" d="M138.13,31.19a.5.5,0,1,0,.48.49A.49.49,0,0,0,138.13,31.19Z" transform="translate(1.99 -10.54)"/><ellipse class="cls-3" cx="150.23" cy="41.16" rx="1.34" ry="1.39"/><path class="cls-2" d="M148.15,50.31a1.29,1.29,0,1,0,1.25,1.29A1.27,1.27,0,0,0,148.15,50.31Z" transform="translate(1.99 -10.54)"/><path class="cls-3" d="M148.15,50.91a.69.69,0,1,0,.67.69A.68.68,0,0,0,148.15,50.91Z" transform="translate(1.99 -10.54)"/><path class="cls-3" d="M124.46,30.63a1,1,0,1,0,1,1A1,1,0,0,0,124.46,30.63Z" transform="translate(1.99 -10.54)"/><path class="cls-2" d="M124.4,30.63a.92.92,0,1,0,.89.92A.91.91,0,0,0,124.4,30.63Z" transform="translate(1.99 -10.54)"/><path class="cls-3" d="M124.4,31.05a.49.49,0,0,0-.48.5.48.48,0,1,0,1,0A.49.49,0,0,0,124.4,31.05Z" transform="translate(1.99 -10.54)"/><path class="cls-48" d="M122,32.86a1.2,1.2,0,0,0-.81,1.46,1.14,1.14,0,0,0,1.41.83,1.18,1.18,0,0,0,.8-1.45A1.13,1.13,0,0,0,122,32.86Z" transform="translate(1.99 -10.54)"/><path class="cls-2" d="M122.2,33a.43.43,0,0,0,0,.85.43.43,0,1,0,0-.85Z" transform="translate(1.99 -10.54)"/><path class="cls-49" d="M120.63,36.28c-2.65-2-6.49-1.18-8.57,1.8a7.21,7.21,0,0,0-.48.78L121.06,46a7.07,7.07,0,0,0,.57-.71C123.72,42.32,123.27,38.28,120.63,36.28Z" transform="translate(1.99 -10.54)"/><path class="cls-49" d="M122,34.38a2.64,2.64,0,0,0-3.9.52,3.86,3.86,0,0,0-.22.36l4.58,3.46c.17-.2.19-.22.27-.33A2.87,2.87,0,0,0,122,34.38Z" transform="translate(1.99 -10.54)"/><path class="cls-50" d="M118,35.23a5.09,5.09,0,0,0-2,.12,2.79,2.79,0,0,1,2.42.53c3.85,2.7,3,6.14,1.25,9.07L121.06,46a7.07,7.07,0,0,0,.57-.71,6.93,6.93,0,0,0,.75-6.81A18.93,18.93,0,0,0,118,35.23Z" transform="translate(1.99 -10.54)"/><path class="cls-50" d="M122,34.38l-.13-.09a2.18,2.18,0,0,1,.78,1.87c-.15,1.28-1,1.49-1.61,1L118,35s-.06.11-.13.22l4.58,3.46c.17-.2.19-.22.27-.33A2.87,2.87,0,0,0,122,34.38Z" transform="translate(1.99 -10.54)"/><path class="cls-51" d="M114.31,37.17c-.61.41-.92,1-.69,1.39s.9.31,1.51-.1.91-1,.69-1.4S114.92,36.75,114.31,37.17Z" transform="translate(1.99 -10.54)"/><path class="cls-51" d="M120.07,34.66a.5.5,0,0,0-.72.09.53.53,0,0,0,.14.73.49.49,0,0,0,.71-.09A.54.54,0,0,0,120.07,34.66Z" transform="translate(1.99 -10.54)"/><polygon class="cls-50" points="113.35 28.58 122.86 35.75 123.3 35.14 113.78 27.96 113.35 28.58"/><path class="cls-2" d="M121.09,46l-9.48-7.15a.36.36,0,0,0-.52.09.39.39,0,0,0,.08.54l9.48,7.16a.37.37,0,0,0,.52-.09A.4.4,0,0,0,121.09,46Z" transform="translate(1.99 -10.54)"/><path class="cls-15" d="M149.48,138.48H5.63A1.7,1.7,0,0,1,3.78,137h0a1.7,1.7,0,0,1,1.85-1.49H149.48a1.71,1.71,0,0,1,1.86,1.49h0A1.7,1.7,0,0,1,149.48,138.48Z" transform="translate(1.99 -10.54)"/><polygon class="cls-52" points="131.16 66.38 127.65 65.66 132.5 40.06 136 40.78 131.16 66.38"/><polygon class="cls-53" points="132.46 42.16 132.49 42.01 133.89 42.3 133.87 42.44 132.46 42.16"/><polygon class="cls-53" points="132.09 44.07 132.12 43.93 133.53 44.22 133.5 44.36 132.09 44.07"/><polygon class="cls-53" points="132.7 41.4 132.73 41.26 133.34 41.38 133.31 41.52 132.7 41.4"/><polygon class="cls-53" points="132.63 41.77 132.66 41.63 133.26 41.75 133.24 41.9 132.63 41.77"/><polygon class="cls-53" points="132.78 41.01 132.8 40.87 133.41 40.99 133.38 41.13 132.78 41.01"/><polygon class="cls-53" points="132.41 42.96 132.43 42.82 133.04 42.95 133.01 43.09 132.41 42.96"/><polygon class="cls-53" points="132.34 43.34 132.36 43.19 132.97 43.32 132.94 43.46 132.34 43.34"/><polygon class="cls-53" points="132.26 43.74 132.29 43.59 132.89 43.72 132.87 43.86 132.26 43.74"/><polygon class="cls-53" points="132.48 42.57 132.51 42.43 133.11 42.55 133.09 42.7 132.48 42.57"/><polygon class="cls-53" points="131.74 45.97 131.76 45.82 133.17 46.11 133.14 46.25 131.74 45.97"/><polygon class="cls-53" points="132.05 44.86 132.07 44.71 132.68 44.84 132.65 44.98 132.05 44.86"/><polygon class="cls-53" points="131.98 45.23 132 45.08 132.61 45.21 132.58 45.35 131.98 45.23"/><polygon class="cls-53" points="131.9 45.63 131.93 45.48 132.53 45.61 132.51 45.75 131.9 45.63"/><polygon class="cls-53" points="132.12 44.47 132.15 44.32 132.75 44.45 132.73 44.59 132.12 44.47"/><polygon class="cls-53" points="131.38 47.85 131.41 47.71 132.81 48 132.79 48.14 131.38 47.85"/><polygon class="cls-53" points="131.69 46.74 131.72 46.6 132.32 46.72 132.3 46.87 131.69 46.74"/><polygon class="cls-53" points="131.62 47.12 131.65 46.97 132.25 47.09 132.23 47.24 131.62 47.12"/><polygon class="cls-53" points="131.54 47.52 131.57 47.37 132.18 47.5 132.15 47.64 131.54 47.52"/><polygon class="cls-53" points="131.76 46.35 131.79 46.21 132.4 46.33 132.37 46.48 131.76 46.35"/><polygon class="cls-53" points="131.01 49.81 131.04 49.67 132.44 49.95 132.42 50.1 131.01 49.81"/><polygon class="cls-53" points="131.32 48.7 131.35 48.56 131.95 48.68 131.93 48.82 131.32 48.7"/><polygon class="cls-53" points="131.25 49.07 131.28 48.93 131.88 49.05 131.86 49.2 131.25 49.07"/><polygon class="cls-53" points="131.17 49.47 131.2 49.33 131.81 49.45 131.78 49.6 131.17 49.47"/><polygon class="cls-53" points="131.39 48.31 131.42 48.17 132.03 48.29 132 48.43 131.39 48.31"/><polygon class="cls-53" points="130.64 51.75 130.67 51.61 132.07 51.9 132.05 52.04 130.64 51.75"/><polygon class="cls-53" points="130.95 50.64 130.98 50.5 131.59 50.62 131.56 50.77 130.95 50.64"/><polygon class="cls-53" points="130.88 51.02 130.91 50.87 131.51 50.99 131.49 51.14 130.88 51.02"/><polygon class="cls-53" points="130.81 51.42 130.83 51.27 131.44 51.4 131.41 51.54 130.81 51.42"/><polygon class="cls-53" points="131.03 50.25 131.05 50.11 131.66 50.23 131.63 50.38 131.03 50.25"/><polygon class="cls-53" points="130.28 53.65 130.31 53.51 131.72 53.8 131.69 53.94 130.28 53.65"/><polygon class="cls-53" points="130.59 52.54 130.62 52.4 131.22 52.52 131.2 52.67 130.59 52.54"/><polygon class="cls-53" points="130.52 52.91 130.55 52.77 131.16 52.9 131.13 53.04 130.52 52.91"/><polygon class="cls-53" points="130.44 53.32 130.47 53.17 131.08 53.3 131.05 53.44 130.44 53.32"/><polygon class="cls-53" points="130.67 52.15 130.69 52.01 131.3 52.13 131.27 52.28 130.67 52.15"/><polygon class="cls-53" points="129.92 55.55 129.95 55.4 131.36 55.69 131.33 55.83 129.92 55.55"/><polygon class="cls-53" points="130.23 54.44 130.26 54.29 130.87 54.41 130.84 54.56 130.23 54.44"/><polygon class="cls-53" points="130.16 54.81 130.19 54.66 130.8 54.79 130.77 54.93 130.16 54.81"/><polygon class="cls-53" points="130.09 55.21 130.11 55.06 130.72 55.19 130.69 55.33 130.09 55.21"/><polygon class="cls-53" points="130.31 54.05 130.34 53.9 130.94 54.02 130.91 54.17 130.31 54.05"/><polygon class="cls-53" points="129.56 57.43 129.59 57.29 131 57.58 130.97 57.72 129.56 57.43"/><polygon class="cls-53" points="129.88 56.32 129.9 56.18 130.51 56.3 130.48 56.45 129.88 56.32"/><polygon class="cls-53" points="129.81 56.69 129.83 56.55 130.44 56.67 130.41 56.82 129.81 56.69"/><polygon class="cls-53" points="129.73 57.1 129.76 56.95 130.36 57.08 130.34 57.22 129.73 57.1"/><polygon class="cls-53" points="129.95 55.93 129.98 55.79 130.58 55.91 130.56 56.06 129.95 55.93"/><polygon class="cls-53" points="129.19 59.39 129.22 59.24 130.63 59.53 130.6 59.68 129.19 59.39"/><polygon class="cls-53" points="129.5 58.28 129.53 58.13 130.14 58.26 130.11 58.4 129.5 58.28"/><polygon class="cls-53" points="129.44 58.65 129.46 58.51 130.07 58.63 130.04 58.77 129.44 58.65"/><polygon class="cls-53" points="129.36 59.05 129.39 58.91 129.99 59.03 129.97 59.18 129.36 59.05"/><polygon class="cls-53" points="129.58 57.89 129.61 57.74 130.21 57.87 130.19 58.01 129.58 57.89"/><polygon class="cls-53" points="129.14 60.22 129.16 60.08 129.77 60.2 129.74 60.35 129.14 60.22"/><polygon class="cls-53" points="129.21 59.83 129.24 59.69 129.84 59.81 129.82 59.96 129.21 59.83"/><polygon class="cls-54" points="136.01 40.72 135.68 40.65 130.73 49.37 129.86 53.97 135.32 44.38 136.01 40.72"/><polygon class="cls-55" points="129.2 57.44 127.65 65.66 131.16 66.38 134.66 47.86 129.2 57.44"/><polygon class="cls-56" points="126.9 47.18 129.98 54.61 129.47 55.22 128.32 55.55 127.43 55.27 124.99 48 126.9 47.18"/><path class="cls-57" d="M123,58.54l-.17-3.12a.1.1,0,0,1,.18-.07l1.9,2.37Z" transform="translate(1.99 -10.54)"/><path class="cls-58" d="M122.84,55.37l.74,2.92.84-.36L123,55.31A.1.1,0,0,0,122.84,55.37Z" transform="translate(1.99 -10.54)"/><path class="cls-59" d="M122.83,55.42l.17,3.12.58-.25-.74-2.92A.09.09,0,0,0,122.83,55.42Z" transform="translate(1.99 -10.54)"/><path class="cls-60" d="M126.33,66.08l1.15-.32h0l-3.07-7.83h0a.58.58,0,0,0-.84.36Z" transform="translate(1.99 -10.54)"/><path class="cls-61" d="M127.48,65.76l.51-.62-3.08-7.42a.28.28,0,0,0-.33-.08.25.25,0,0,0-.17.29Z" transform="translate(1.99 -10.54)"/><path class="cls-62" d="M123,58.54l2.44,7.27.89.27-2.76-7.79a.3.3,0,0,0-.36-.07A.34.34,0,0,0,123,58.54Z" transform="translate(1.99 -10.54)"/><path class="cls-27" d="M122.83,55.42l0,.84.66-.27-.52-.64A.1.1,0,0,0,122.83,55.42Z" transform="translate(1.99 -10.54)"/><path class="cls-63" d="M123.22,56.12l.31-.13-.52-.64a.1.1,0,0,0-.13,0Z" transform="translate(1.99 -10.54)"/><rect class="cls-64" x="126.33" y="54.06" width="7.67" height="13.64"/><path class="cls-65" d="M125.71,75.54h0a1.08,1.08,0,0,1-1.06-1.1V64.6h2.12v9.84A1.09,1.09,0,0,1,125.71,75.54Z" transform="translate(1.99 -10.54)"/><path class="cls-66" d="M129.87,64.62v5.69c0,3.75-2,6.68-4.52,6.68h-1v1.24H132V64.62Z" transform="translate(1.99 -10.54)"/><rect class="cls-65" x="126.33" y="54.06" width="5.35" height="0.3"/><path class="cls-2" d="M90.3,61.78H90a.14.14,0,0,0-.14.14h0a.15.15,0,0,0,.14.15h.31a.15.15,0,0,0,.14-.15h0A.14.14,0,0,0,90.3,61.78Z" transform="translate(1.99 -10.54)"/><path class="cls-2" d="M90.15,62.46h-.32a.14.14,0,0,0,0,.28h.32a.14.14,0,0,0,0-.28Z" transform="translate(1.99 -10.54)"/><path class="cls-2" d="M90,63.16h-.32a.14.14,0,0,0-.13.14.14.14,0,0,0,.13.15H90a.15.15,0,0,0,.14-.15A.14.14,0,0,0,90,63.16Z" transform="translate(1.99 -10.54)"/><path class="cls-2" d="M47,81a12.73,12.73,0,0,1,5.1-2.71H45.47v4.33A9.86,9.86,0,0,1,47,81Z" transform="translate(1.99 -10.54)"/><path class="cls-67" d="M64.74,48.18a.14.14,0,0,1,0,.06h0a.07.07,0,0,0,0-.06Z" transform="translate(1.99 -10.54)"/><polygon class="cls-68" points="33.53 21.84 33.8 20.39 37.62 21.18 37.35 22.62 33.53 21.84"/><polygon class="cls-69" points="62.05 39.26 60.75 38.68 62.3 34.97 63.6 35.55 62.05 39.26"/><polygon class="cls-69" points="35.45 32.25 34.15 31.66 35.7 27.95 37 28.54 35.45 32.25"/><path class="cls-70" d="M34.11,31.13c-.11-.45-1.24-.55-1.88-.52a4,4,0,0,0-2.54,1,3.64,3.64,0,0,1,2.07-.22c.83.23,1.11.69,1.68.56C33.83,31.85,34.17,31.41,34.11,31.13Z" transform="translate(1.99 -10.54)"/><path class="cls-71" d="M17.19,41.25C17,41,17,41,16.56,39.72c-.8-2.18-.87-2.11-1-2.74a4.91,4.91,0,0,1,0-3.32,4,4,0,0,1,3.78-2,3.84,3.84,0,0,1,2.94,1.43,4.76,4.76,0,0,1,.64,3.07,6.78,6.78,0,0,1-.42,2.26c-.14.35-.18.35-.45.95-.66,1.47-.53,1.7-.83,2.06C20.35,42.39,18.13,42.33,17.19,41.25Z" transform="translate(1.99 -10.54)"/><path class="cls-72" d="M17,38.06a3.94,3.94,0,0,0,2.77-.1c1-.46,1.66-1.36,1.55-1.52s-1.48,1.15-3.25,1A3.72,3.72,0,0,1,15.62,36a3.64,3.64,0,0,1-.4-.71,10.62,10.62,0,0,0,.31,1.7,3.61,3.61,0,0,0,.15.49A4.93,4.93,0,0,0,17,38.06Z" transform="translate(1.99 -10.54)"/><path class="cls-71" d="M66.08,41.66c.22-.15.24-.24,1-1.33,1.27-1.92,1.32-1.83,1.62-2.41a4.87,4.87,0,0,0,.79-3.21,4.08,4.08,0,0,0-3.22-2.87,3.78,3.78,0,0,0-3.18.66,4.75,4.75,0,0,0-1.32,2.84,6.67,6.67,0,0,0-.1,2.29c0,.37.09.39.21,1a19.88,19.88,0,0,0,.34,2.21A3,3,0,0,0,66.08,41.66Z" transform="translate(1.99 -10.54)"/><path class="cls-72" d="M67,38.62a3.91,3.91,0,0,1-2.66-.78c-.86-.69-1.31-1.72-1.16-1.85s1.17,1.48,2.94,1.72a3.69,3.69,0,0,0,2.67-.77,3.74,3.74,0,0,0,.55-.59,10.52,10.52,0,0,1-.69,1.57,4,4,0,0,1-.26.44A4.35,4.35,0,0,1,67,38.62Z" transform="translate(1.99 -10.54)"/><path class="cls-73" d="M35.81,53.18c-.86.14-1.15-.72-2.22-.19-2.21,1.1-4.08,1.46-5.53,1.11s-3.4-.45-4.56-2a6.6,6.6,0,0,1-1.08-2.6,29.45,29.45,0,0,1-.55-8.95c-.07-.8-4.89-.52-5.11.43-1,4.26.43,9.64.5,9.89a21.73,21.73,0,0,0,1.19,3.8,12.64,12.64,0,0,0,4.18,4.74c3.42,2.25,6.16,2.54,6.87,3.48a4.74,4.74,0,0,1,.82,2.35c.53,6.92,4.75,15.83,6.06,16.65A10.89,10.89,0,0,0,49.83,78c.14-.19-2.37-12.07-.57-15.74.28-.58,2.61.58,8.91-3.25,5.55-3.37,9-16.58,8.55-17.86-.35-.93-3.69-1.24-4.6-.82-.49.23-3.15,10.86-7.58,13.12a13.3,13.3,0,0,1-8.52.82c-.05,0-.77-.2-1.76-.41a8.69,8.69,0,0,0-2.89-.38c-.85.08-.76.28-1.52.37C38,54.1,37.3,53,35.81,53.18Z" transform="translate(1.99 -10.54)"/><path class="cls-74" d="M32.56,71.58a27.1,27.1,0,0,1-1-4.88c0-.44-.53-2.61-.9-4.09s-5.05-2.93-7.41-4.54a14.32,14.32,0,0,1-2.93-3.49,12.36,12.36,0,0,1-1.35-3.15,23.11,23.11,0,0,1-.89-5.12,41.12,41.12,0,0,1,0-6c-.68.15-1.19.38-1.26.68-1,4.26.43,9.64.5,9.89a21.73,21.73,0,0,0,1.19,3.8,12.64,12.64,0,0,0,4.18,4.74c3.42,2.25,6.75,3.06,7,4.09A24.23,24.23,0,0,1,30,66.33c.53,6.93,2.4,13.86,3.72,14.68a23.41,23.41,0,0,0,3.6,1.24A46.07,46.07,0,0,1,32.56,71.58Z" transform="translate(1.99 -10.54)"/><path class="cls-74" d="M49.44,60.65c-.49,0-.82-.17-1.13,0-.54.36-.2,1.32-.27,3.74-.08,3.12.42,12-.64,14.13s2.09-1,2.36.91c.39-.42-1.51-13.29-.5-17.19.16-.62,2.61.58,8.91-3.25,5.55-3.37,9-16.58,8.55-17.86a1.4,1.4,0,0,0-.93-.65C64.53,45.32,62.76,59.54,49.44,60.65Z" transform="translate(1.99 -10.54)"/><path class="cls-72" d="M33,43.67c-.16.37.11.79.36,1.24a14.8,14.8,0,0,1,1.44,4.63c.4,2.18-.52,2.75-.18,3.29,1.17,1.85,4.31,2.11,4.65,2.12,1.19,0,3-.27,3.26-1.18a7.2,7.2,0,0,0-.27-1.1c-.48-1.52,0-2.15-.28-3-.43-1.53-2.17-1-4-3C36.33,45,36.6,43.54,35.2,43.11,34.33,42.84,33.2,43.09,33,43.67Z" transform="translate(1.99 -10.54)"/><path class="cls-71" d="M46.07,34.67a9.47,9.47,0,0,1,1.6,4A15,15,0,0,1,48,44.84a9.24,9.24,0,0,1-1.1,3.36,7,7,0,0,1-3,2.92,6.44,6.44,0,0,1-4.47.4,7.79,7.79,0,0,1-4.15-3.46,12.58,12.58,0,0,1-2.25-9.16c.23-1.44.63-3.84,2.58-5.44C38.7,31,43.82,31.9,46.07,34.67Z" transform="translate(1.99 -10.54)"/><path class="cls-75" d="M37.88,40.59c.12,0,.06-.57.49-1,.56-.61,1.41-.39,1.49-.76s-.2-.49-.44-.6c-.53-.23-1.28.25-1.58.85S37.73,40.57,37.88,40.59Z" transform="translate(1.99 -10.54)"/><path class="cls-75" d="M44.24,38.07c.16.1.3,0,.53,0,.62,0,.95,1,1.13.92s.14-.72-.2-1.19a1.43,1.43,0,0,0-1-.54c-.18,0-.51,0-.64.18A.55.55,0,0,0,44.24,38.07Z" transform="translate(1.99 -10.54)"/><path class="cls-72" d="M43.56,43.75a1.31,1.31,0,0,1-.49.08,1.13,1.13,0,0,1-1-.49,1,1,0,0,1-.13-.3.26.26,0,0,1,.25-.33h0a.24.24,0,0,1,.23.19,1.47,1.47,0,0,0,.06.14.67.67,0,0,0,.59.24.57.57,0,0,0,.5-.2.61.61,0,0,0,.09-.36.51.51,0,0,0,0-.13.27.27,0,0,1,.11-.3l0,0a.26.26,0,0,1,.38.15,1.1,1.1,0,0,1,0,.27,1.15,1.15,0,0,1-.19.71A1,1,0,0,1,43.56,43.75Z" transform="translate(1.99 -10.54)"/><path class="cls-76" d="M39.4,45.39c.26-.24,6.85-1.18,7.22-.89s-.3,3.85-3.68,4.17C40.51,48.9,39.05,45.72,39.4,45.39Z" transform="translate(1.99 -10.54)"/><path class="cls-74" d="M48.09,71.75a51.4,51.4,0,0,1,.11,8.88c-1.08,1.05-8,5.18-14-.39a10.45,10.45,0,0,1-1.48-3.75c-1.4-7.78-1.55-10.81-1.3-10.34C32.05,67.25,41.15,87.57,48.09,71.75Z" transform="translate(1.99 -10.54)"/><path class="cls-70" d="M34.25,35.11c0,.42.78.52,1.34,1.63.1.2-1.77.25-1.8,2-.08,4.65,2.19,8.12.46,8.42-1.43.25-8.44-7.69-2.87-14.44,3.2-3.87,7.11-4.38,11.84-3.18a6.65,6.65,0,0,1,4.05,2.55,6.45,6.45,0,0,1,.87,2.32c.64,2.89.63,6.53,0,8-.07.17-.6-3.91-1-5a7.19,7.19,0,0,0-2-3.64C41.88,30.79,34.4,33.91,34.25,35.11Z" transform="translate(1.99 -10.54)"/><path class="cls-75" d="M33.51,36.4c.31-.2.52-.14.47.13h0c-.06.31-.13.75-.19,1.27s-.1,1.09-.11,1.69c0,.3,0,.6,0,.9s0,.3,0,.45l0,.44a10.13,10.13,0,0,0,.34,1.61,7.49,7.49,0,0,0,.48,1.24,6.64,6.64,0,0,0,.45.79l.19.28L35,45a6.36,6.36,0,0,1-.58-.66,7.3,7.3,0,0,1-1.25-2.52l-.11-.4c0-.15-.06-.28-.09-.42a8.13,8.13,0,0,1-.13-.84,13.13,13.13,0,0,1-.09-1.61c0-.5,0-.92,0-1.23v0a1.36,1.36,0,0,1,.61-.82Z" transform="translate(1.99 -10.54)"/><path class="cls-75" d="M49.68,36.29a7.6,7.6,0,0,0-3.17-1.12A10.41,10.41,0,0,0,40.8,36.4c-1.21.57-1.28.58-3.13,1.48a4.18,4.18,0,0,1-3.31.5,1.83,1.83,0,0,1-1.29-.93,3.92,3.92,0,0,1-1-3.23,7.09,7.09,0,0,1,2.43-4.46c1.18-.88,3.39-2.72,5.63-3.23a7.37,7.37,0,0,1,3.49.07c2.68.66,4.46,2.58,4.35,2.77s-.37-.13-1.29-.33c-.64-.13-1.7-.3-1.75-.15s1.14.5,2.12,1.13C50.32,32.07,50.33,36.51,49.68,36.29Z" transform="translate(1.99 -10.54)"/><path class="cls-77" d="M34.81,36.33a1.86,1.86,0,0,0,1.49.47c.25,0,.42,0,1.34-.63s.9-.76,1.4-1.11a5.76,5.76,0,0,1,3.17-1.14c.9,0,1.48.25,1.51.16a3.44,3.44,0,0,0-2-.83,8.28,8.28,0,0,0-1.67,0,11.8,11.8,0,0,1-1.43.11,6.48,6.48,0,0,1,4.4-1.21,14,14,0,0,1,3.88,1c.67.28,1.11.54,1.3.35s-.31-1.76-1.23-2.71a5.34,5.34,0,0,0-2.09-1.31c-3.41-1.23-6.75.77-7,.92-.92.58-1.35,1.09-1.44,1s1.32-2.71,3.73-3.59c3.08-1.14,3.8-.55,4.36-.74a6.08,6.08,0,0,0-3.44-.44,7.81,7.81,0,0,0-4.6,2.32A7,7,0,0,0,34,32.67,3.74,3.74,0,0,0,34.81,36.33Z" transform="translate(1.99 -10.54)"/><path class="cls-71" d="M33.49,41.55a1.33,1.33,0,0,0-1-.36c-.65.11-1,1.07-1,1.89a3,3,0,0,0,.75,1.55A2.86,2.86,0,0,0,33.85,46c.47.11,1.14,0,1.36-.39.11-.22.08-.47,0-.94A5,5,0,0,0,33.49,41.55Z" transform="translate(1.99 -10.54)"/><path class="cls-72" d="M33.83,42.72a.72.72,0,0,0-.71.16c-.3.32-.09.9.12,1.21.44.63,1.4.77,1.56.56s-.25-.3-.53-1C34.07,43.11,34.09,42.83,33.83,42.72Z" transform="translate(1.99 -10.54)"/><path class="cls-75" d="M33.68,35.93c.27-.07.21.61.31,1.24.31,2,2.12,2.59,2,2.72a3.64,3.64,0,0,1-2-.4c-1.45-1-1.83-3.82-1.75-4.22C32.3,34.7,33.43,36,33.68,35.93Z" transform="translate(1.99 -10.54)"/><path class="cls-75" d="M34.36,38.38c.09.25,1.85.43,5-1a7.2,7.2,0,0,1,1.91-.64,4,4,0,0,1,1.39,0,3.09,3.09,0,0,1,.54.15c.54.2.8.48.84.44s-.24-.59-.71-.95c-1.06-.81-2.74-.45-3.71-.22C37.48,36.62,34.26,38.1,34.36,38.38Z" transform="translate(1.99 -10.54)"/><path class="cls-78" d="M38.59,41.73a1.16,1.16,0,0,1,0-.13,1.08,1.08,0,0,1,.09-.34,1.34,1.34,0,0,1,.3-.41l.11-.09.13-.08.13-.06.14,0a1,1,0,0,1,.3,0,1.33,1.33,0,0,1,.28,0l.25.08a.82.82,0,0,1,.2.12l.15.12a.47.47,0,0,1,.09.12.59.59,0,0,1,.07.1l-.11,0-.3-.09-.19,0-.21,0h-.21l-.22,0-.1,0-.12,0-.09,0-.09,0a2.13,2.13,0,0,0-.32.26,2,2,0,0,0-.21.23Z" transform="translate(1.99 -10.54)"/><path class="cls-78" d="M43.88,40.71a1.26,1.26,0,0,1,0-.12.91.91,0,0,1,.18-.3,1.14,1.14,0,0,1,.39-.31l.13,0,.15,0,.13,0h.16a1.6,1.6,0,0,1,.29,0,1.19,1.19,0,0,1,.26.11,1.7,1.7,0,0,1,.22.15,1.29,1.29,0,0,1,.16.17l.11.16a.53.53,0,0,1,.06.14l0,.12-.1-.07a1.68,1.68,0,0,0-.26-.17l-.17-.09-.2-.07-.21-.06-.22,0h-.23l-.09,0-.11,0a2.06,2.06,0,0,0-.37.16,1.74,1.74,0,0,0-.26.16Z" transform="translate(1.99 -10.54)"/><path class="cls-79" d="M43.41,46.16a3.14,3.14,0,0,0-1.66.34,4.21,4.21,0,0,0-.91.59.35.35,0,0,0,0,.55,3,3,0,0,0,2,.67,3.88,3.88,0,0,0,2.32-.89.35.35,0,0,0,0-.55A3.45,3.45,0,0,0,43.41,46.16Z" transform="translate(1.99 -10.54)"/><path class="cls-2" d="M43.35,46.47a5,5,0,0,0,3-2,43,43,0,0,0-6.59.82A3.61,3.61,0,0,0,43.35,46.47Z" transform="translate(1.99 -10.54)"/><path class="cls-70" d="M32.77,31.52c-.19-.2-1.18.39-1.67.73a4,4,0,0,0-1.34,1.29,4.18,4.18,0,0,1,1.57-.87c.4-.09.59,0,.89-.2S32.91,31.66,32.77,31.52Z" transform="translate(1.99 -10.54)"/><path class="cls-75" d="M33.2,32.08c-.35-.11-.43-1.2-.17-2,.15-.46.43-.89.51-.85s-.06.3,0,.69c.1.57.49.68.53,1.08S33.51,32.17,33.2,32.08Z" transform="translate(1.99 -10.54)"/><path class="cls-80" d="M39.67,56.38c.84-.13,3.84,15.36,4.29,17.72a32.93,32.93,0,0,1-1.9,3.33,1,1,0,0,1-1,0,32.4,32.4,0,0,1-2.11-2.8C38.92,72.39,38.83,56.51,39.67,56.38Z" transform="translate(1.99 -10.54)"/><path class="cls-81" d="M39.67,56.38c.09,0,.2.12.32.38-.41,3.71-.32,13-.34,14.79,0,.78-.09,2.69,0,2.86l1.61,2.15c.37.48.8.71,1.36,0l-.55.9a.62.62,0,0,1-1,0,32.4,32.4,0,0,1-2.11-2.8C38.92,72.39,38.83,56.51,39.67,56.38Z" transform="translate(1.99 -10.54)"/><path class="cls-82" d="M43.09,72.12c-.49,0-1.8-9.38-1.8-9.38S43.3,72.1,43.09,72.12Z" transform="translate(1.99 -10.54)"/><path class="cls-80" d="M41.4,56.13c.06.29,0,2.81-1.88,2.86-.37,0-.6-.28-.9-.58a2.43,2.43,0,0,1-.78-1.3A1.9,1.9,0,0,1,38,55.78a2,2,0,0,1,2.18-.64C40.27,55.17,41.26,55.46,41.4,56.13Z" transform="translate(1.99 -10.54)"/><path class="cls-81" d="M38,55.78l.13-.17a6.8,6.8,0,0,0,1,2.26c.35.49.65.54.75.55a.91.91,0,0,0,.6-.19,1,1,0,0,0,.29-.35,5,5,0,0,0,.49-1.3c0-.19.08-.36.11-.52a.14.14,0,0,0,0,.07c.06.29,0,2.81-1.88,2.86-.37,0-.6-.28-.9-.58a2.43,2.43,0,0,1-.78-1.3A1.9,1.9,0,0,1,38,55.78Z" transform="translate(1.99 -10.54)"/><path class="cls-83" d="M33,55.24c.8,1.94,3.4,4.57,4.06,4.35.88-.29,2.81-3.74,2.81-3.74s2.23,3.34,2.9,3.19c.85-.19,2-1.72,2.45-2.74a11,11,0,0,0,.76-2l-.72-.22S44.93,54,44,53.66c-1.69-.56-.61-.75-1-.32-3.85,3.87-8.24-.77-9.35-.35a7.22,7.22,0,0,0-1.09.49A8.18,8.18,0,0,0,33,55.24Z" transform="translate(1.99 -10.54)"/><path class="cls-2" d="M32.76,53.11c-.51.34,1.93,5.32,4.26,5.65.65.09,2.32-3.44,2.75-3.44s1.79,2.45,2.81,3c.71.37,3.36-3.75,3-4.26a18.27,18.27,0,0,0-3.29-1.21c-.09.09-.05,2.29-3.84,1.72-4.17-.63-3.42-3.32-3.67-3.23A6.57,6.57,0,0,1,32.76,53.11Z" transform="translate(1.99 -10.54)"/><path class="cls-74" d="M45.35,55c.21-.46.31-.82.22-1a18.27,18.27,0,0,0-3.29-1.21,2.92,2.92,0,0,1-.27.76l1.21.53Q44.3,54.59,45.35,55Z" transform="translate(1.99 -10.54)"/><path class="cls-74" d="M35,52.45c-.25-.64-.16-1.17-.27-1.13a6.57,6.57,0,0,1-2,1.79c-.16.11,0,.65.28,1.37A20.26,20.26,0,0,0,34.54,53C34.72,52.83,34.88,52.64,35,52.45Z" transform="translate(1.99 -10.54)"/><path class="cls-84" d="M32.82,79.73a5.54,5.54,0,0,0,.35,2.3c8.28,4.46,16.72.6,16.5-1.31,0,0,.09-1.67-.1-1.38C48.53,81,40.2,83.15,32.82,79.73Z" transform="translate(1.99 -10.54)"/><path class="cls-85" d="M33.7,80.11c-.34-.09-.8-.41-.89-.38a5.45,5.45,0,0,0,.36,2.3c.26.16.58.29.85.43C34,82.16,33.73,80.57,33.7,80.11Z" transform="translate(1.99 -10.54)"/><path class="cls-85" d="M49.66,80.88s.1-1.68-.09-1.54A9.59,9.59,0,0,1,47,80.78c-.13,0,.11,1.46,0,2.26C48.78,82.16,49.63,81.71,49.66,80.88Z" transform="translate(1.99 -10.54)"/><path class="cls-86" d="M44.41,84.48l-.94.07a.9.9,0,0,1-.95-.86l-.13-1.93a.92.92,0,0,1,.83-1l1-.07a.91.91,0,0,1,.95.86l.12,1.93A.91.91,0,0,1,44.41,84.48Zm-1.15-3a.26.26,0,0,0-.23.28l.13,1.93a.25.25,0,0,0,.27.25l.94-.07a.27.27,0,0,0,.24-.28l-.13-1.93a.26.26,0,0,0-.27-.25Z" transform="translate(1.99 -10.54)"/><path class="cls-86" d="M44.65,82.67l-.62.07a.27.27,0,0,1-.3-.25h0a.28.28,0,0,1,.24-.32l.61-.07a.28.28,0,0,1,.31.25h0A.28.28,0,0,1,44.65,82.67Z" transform="translate(1.99 -10.54)"/><rect class="cls-87" x="47.39" y="67.72" width="104.02" height="4.56"/><rect class="cls-88" x="47.39" y="67.72" width="44.73" height="4.56"/><path class="cls-89" d="M92.26,81a8.83,8.83,0,0,1,3-1.56c1.74-.49,10.5-.81,22.32-1.16l-27.42-.1-.06,4.66h.68A6.8,6.8,0,0,1,92.26,81Z" transform="translate(1.99 -10.54)"/><path class="cls-2" d="M88,81.47a8.68,8.68,0,0,0-3-1.83c-1.74-.57-9.33-.91-21.15-1.32l26.37-.16-.06,4.66h-1A4.16,4.16,0,0,0,88,81.47Z" transform="translate(1.99 -10.54)"/><path class="cls-7" d="M38.4,98.8c-.65,0,.68-.4.67-1.07,0-2-.13-6-.37-9.47,0-.15-.29-3.73-3.24-4.56-2.58-.73-7.31-.86-14.08-.4-.66,0-1.17.21-1.22-.47l-1.34.73a3.34,3.34,0,0,1,2.4-2.73c7.13-.48,12-.33,14.86.48,3.64,1,4.85,4.74,5,6.77a96,96,0,0,1,.38,10.16c-.1,1.39-1.82,2.1-2.48,2.11Z" transform="translate(1.99 -10.54)"/><path class="cls-90" d="M39,100.35a1.22,1.22,0,0,1-1.19-1.22c0-2-.13-6-.37-9.47,0-.15-.29-3.73-3.24-4.56-2.58-.72-7.31-.86-14.08-.4a1.2,1.2,0,0,1-1.27-1.14h0a1.23,1.23,0,0,1,1.11-1.33c7.13-.48,12-.32,14.86.48,3.64,1,4.85,4.74,5,6.77.25,3.53.35,7.55.38,9.61A1.23,1.23,0,0,1,39,100.35Z" transform="translate(1.99 -10.54)"/><path class="cls-2" d="M55,25.13l-.09-.42-.11.44a.48.48,0,0,1-.34.35l-.44.13.45.12a.47.47,0,0,1,.33.35l.11.45.13-.54a.38.38,0,0,1,.26-.26l.49-.12-.46-.14A.48.48,0,0,1,55,25.13Z" transform="translate(1.99 -10.54)"/><path class="cls-2" d="M50.11,14.81,50,14.39l-.11.44a.47.47,0,0,1-.33.35l-.44.13.44.12a.47.47,0,0,1,.34.35l.1.45.14-.54a.35.35,0,0,1,.26-.26l.49-.12-.47-.14A.5.5,0,0,1,50.11,14.81Z" transform="translate(1.99 -10.54)"/><path class="cls-2" d="M34.45,23.12l-.1-.42-.11.44a.47.47,0,0,1-.33.35l-.44.13.44.12a.47.47,0,0,1,.34.35l.1.45.14-.54a.36.36,0,0,1,.26-.26l.49-.12-.47-.14A.49.49,0,0,1,34.45,23.12Z" transform="translate(1.99 -10.54)"/><path class="cls-2" d="M8.29,36.8l-.09-.42-.11.44a.47.47,0,0,1-.33.35l-.44.13.44.12a.47.47,0,0,1,.34.35l.1.45.14-.54a.35.35,0,0,1,.26-.26l.48-.12-.46-.14A.5.5,0,0,1,8.29,36.8Z" transform="translate(1.99 -10.54)"/><path class="cls-2" d="M14.42,26.05l-.09-.42-.11.44a.5.5,0,0,1-.34.35l-.44.13.45.11a.5.5,0,0,1,.33.36l.11.44.13-.53a.38.38,0,0,1,.26-.26l.49-.12-.47-.15A.47.47,0,0,1,14.42,26.05Z" transform="translate(1.99 -10.54)"/><path class="cls-2" d="M7.41,21.63l-.09-.42-.11.44a.48.48,0,0,1-.34.35l-.44.13.45.12a.47.47,0,0,1,.33.35l.11.45.13-.54a.38.38,0,0,1,.26-.26l.49-.12L7.73,22A.49.49,0,0,1,7.41,21.63Z" transform="translate(1.99 -10.54)"/><path class="cls-2" d="M11.77,13.89l-.09-.42-.11.44a.48.48,0,0,1-.34.35l-.44.13.45.12a.47.47,0,0,1,.33.35l.11.45.13-.54a.38.38,0,0,1,.26-.26l.49-.12-.46-.14A.48.48,0,0,1,11.77,13.89Z" transform="translate(1.99 -10.54)"/><path class="cls-2" d="M2,42.3l-.09-.42-.11.44a.5.5,0,0,1-.34.35L1,42.79l.45.12a.5.5,0,0,1,.33.36l.11.44L2,43.18a.38.38,0,0,1,.26-.26l.49-.13-.46-.14A.47.47,0,0,1,2,42.3Z" transform="translate(1.99 -10.54)"/><path class="cls-2" d="M-1,59.4l-.1-.42-.11.44a.5.5,0,0,1-.33.36L-2,59.9l.44.12a.48.48,0,0,1,.34.36l.1.44.14-.53A.36.36,0,0,1-.71,60l.49-.12-.47-.14A.47.47,0,0,1-1,59.4Z" transform="translate(1.99 -10.54)"/><path class="cls-2" d="M12.65,47.4,12.56,47l-.11.44a.47.47,0,0,1-.33.35l-.44.13.44.12a.47.47,0,0,1,.34.35l.1.45.14-.54A.35.35,0,0,1,13,48l.49-.12L13,47.76A.5.5,0,0,1,12.65,47.4Z" transform="translate(1.99 -10.54)"/><path class="cls-2" d="M3.59,68.81l-.09-.42-.11.44a.47.47,0,0,1-.33.35l-.44.13.44.12a.48.48,0,0,1,.34.36l.1.44.14-.53a.36.36,0,0,1,.26-.27l.48-.12-.46-.14A.5.5,0,0,1,3.59,68.81Z" transform="translate(1.99 -10.54)"/><path class="cls-2" d="M10.06,74.54,10,74.12l-.11.44a.5.5,0,0,1-.34.36L9.08,75l.45.12a.48.48,0,0,1,.33.36L10,76l.14-.53a.37.37,0,0,1,.26-.27l.48-.12-.46-.14A.48.48,0,0,1,10.06,74.54Z" transform="translate(1.99 -10.54)"/><path class="cls-2" d="M12.65,56.91l-.09-.42-.11.44a.49.49,0,0,1-.33.35l-.44.12.44.12a.5.5,0,0,1,.34.36l.1.44.14-.53a.35.35,0,0,1,.26-.26l.49-.13L13,57.26A.49.49,0,0,1,12.65,56.91Z" transform="translate(1.99 -10.54)"/><path class="cls-2" d="M-.13,91l-.09-.42L-.33,91a.48.48,0,0,1-.34.35l-.44.13.45.12A.47.47,0,0,1-.33,92l.11.45.13-.54a.38.38,0,0,1,.26-.26l.49-.12L.2,91.34A.48.48,0,0,1-.13,91Z" transform="translate(1.99 -10.54)"/><path class="cls-2" d="M5.32,85.67l-.09-.42-.11.44a.49.49,0,0,1-.33.35l-.44.13.44.12a.47.47,0,0,1,.34.35l.1.44.14-.53a.35.35,0,0,1,.26-.26l.49-.12L5.65,86A.47.47,0,0,1,5.32,85.67Z" transform="translate(1.99 -10.54)"/><path class="cls-2" d="M12.94,90l-.1-.42-.11.44a.5.5,0,0,1-.33.36l-.44.12.44.12a.48.48,0,0,1,.34.36l.1.44.14-.53a.36.36,0,0,1,.26-.27l.49-.12-.47-.14A.49.49,0,0,1,12.94,90Z" transform="translate(1.99 -10.54)"/><path class="cls-2" d="M28.55,18.3l-.09-.42-.11.44a.47.47,0,0,1-.33.35l-.44.13.44.12a.47.47,0,0,1,.34.35l.1.45.14-.53a.34.34,0,0,1,.26-.27l.49-.12-.47-.14A.5.5,0,0,1,28.55,18.3Z" transform="translate(1.99 -10.54)"/><path class="cls-2" d="M36,11l-.09-.42-.11.44a.5.5,0,0,1-.34.35l-.44.13.45.11a.5.5,0,0,1,.33.36l.11.44.13-.53a.38.38,0,0,1,.26-.26l.49-.12-.47-.15A.47.47,0,0,1,36,11Z" transform="translate(1.99 -10.54)"/><path class="cls-2" d="M40.25,19.22l-.09-.42-.11.44a.47.47,0,0,1-.34.35l-.44.13.45.12a.47.47,0,0,1,.33.35l.11.45.14-.54a.35.35,0,0,1,.25-.26l.49-.12-.46-.14A.48.48,0,0,1,40.25,19.22Z" transform="translate(1.99 -10.54)"/><path class="cls-2" d="M61.64,28.85l-.09-.42-.11.44a.48.48,0,0,1-.33.36l-.44.12.44.12a.48.48,0,0,1,.34.36l.1.44.14-.53a.37.37,0,0,1,.26-.27l.48-.12L62,29.21A.48.48,0,0,1,61.64,28.85Z" transform="translate(1.99 -10.54)"/><path class="cls-2" d="M79.11,30.56,79,30.14l-.11.44a.49.49,0,0,1-.33.35l-.44.12.44.12a.5.5,0,0,1,.34.36L79,32l.14-.53a.35.35,0,0,1,.26-.26l.48-.13-.46-.14A.49.49,0,0,1,79.11,30.56Z" transform="translate(1.99 -10.54)"/><path class="cls-2" d="M82.93,38.87l-.1-.42-.11.44a.47.47,0,0,1-.33.35l-.44.13.44.12a.47.47,0,0,1,.34.35l.1.45.14-.54a.35.35,0,0,1,.26-.26l.49-.12-.47-.14A.47.47,0,0,1,82.93,38.87Z" transform="translate(1.99 -10.54)"/><path class="cls-2" d="M87.82,30.14l-.09-.42-.11.44a.48.48,0,0,1-.34.35l-.44.13.45.12a.49.49,0,0,1,.33.35l.11.45.13-.53a.37.37,0,0,1,.26-.27l.49-.12-.46-.14A.48.48,0,0,1,87.82,30.14Z" transform="translate(1.99 -10.54)"/><path class="cls-2" d="M82.93,50.91l-.1-.42-.11.44a.49.49,0,0,1-.33.35L82,51.4l.44.12a.5.5,0,0,1,.34.36l.1.44.14-.53a.35.35,0,0,1,.26-.26l.49-.13-.47-.14A.46.46,0,0,1,82.93,50.91Z" transform="translate(1.99 -10.54)"/><path class="cls-2" d="M91.61,47.81l-.1-.42-.11.44a.49.49,0,0,1-.33.35l-.44.13.44.12a.47.47,0,0,1,.34.35l.1.45.14-.54a.35.35,0,0,1,.26-.26l.49-.12-.47-.14A.47.47,0,0,1,91.61,47.81Z" transform="translate(1.99 -10.54)"/><path class="cls-2" d="M97.51,41.22l-.09-.42-.11.44a.48.48,0,0,1-.34.35l-.44.13.45.12a.47.47,0,0,1,.33.35l.11.45.13-.54a.38.38,0,0,1,.26-.26l.49-.12-.47-.14A.49.49,0,0,1,97.51,41.22Z" transform="translate(1.99 -10.54)"/><path class="cls-2" d="M58.54,61.86l-.09-.42-.11.44a.51.51,0,0,1-.34.36l-.44.12.45.12a.48.48,0,0,1,.33.36l.11.44.13-.53a.41.41,0,0,1,.26-.27l.49-.12-.47-.14A.49.49,0,0,1,58.54,61.86Z" transform="translate(1.99 -10.54)"/><path class="cls-2" d="M10.89,107l-.1-.42-.11.44a.49.49,0,0,1-.33.35l-.44.13.44.12a.47.47,0,0,1,.34.35l.1.45.14-.54a.35.35,0,0,1,.26-.26l.49-.12-.47-.14A.47.47,0,0,1,10.89,107Z" transform="translate(1.99 -10.54)"/><path class="cls-2" d="M57.41,73.62l-.09-.41-.11.43a.5.5,0,0,1-.34.36l-.44.12.45.12a.48.48,0,0,1,.33.36l.11.44.13-.53a.38.38,0,0,1,.26-.26l.49-.13L57.73,74A.47.47,0,0,1,57.41,73.62Z" transform="translate(1.99 -10.54)"/><path class="cls-2" d="M64.91,21.32l-.15-.68-.18.71a.76.76,0,0,1-.54.57l-.71.21.72.19a.78.78,0,0,1,.54.58l.17.72.22-.87a.59.59,0,0,1,.42-.42l.8-.2-.76-.23A.78.78,0,0,1,64.91,21.32Z" transform="translate(1.99 -10.54)"/><path class="cls-2" d="M78.11,54.23,78,53.55l-.18.71a.81.81,0,0,1-.55.58l-.71.2.72.19a.81.81,0,0,1,.55.58l.17.72.22-.87a.56.56,0,0,1,.42-.42l.79-.2-.76-.23A.77.77,0,0,1,78.11,54.23Z" transform="translate(1.99 -10.54)"/><path class="cls-2" d="M54.16,65.34,54,64.66l-.18.72a.8.8,0,0,1-.54.57l-.71.2.72.2a.75.75,0,0,1,.54.57l.17.72.22-.86a.6.6,0,0,1,.43-.43l.79-.2-.76-.23A.78.78,0,0,1,54.16,65.34Z" transform="translate(1.99 -10.54)"/><path class="cls-2" d="M5.25,97.6l-.15-.68-.18.72a.81.81,0,0,1-.55.57l-.71.2.72.2a.78.78,0,0,1,.55.57l.17.73L5.32,99a.59.59,0,0,1,.42-.43l.79-.2-.75-.23A.76.76,0,0,1,5.25,97.6Z" transform="translate(1.99 -10.54)"/><path class="cls-2" d="M3.65,32.73l-.15-.68-.18.71a.79.79,0,0,1-.54.58l-.71.2.72.2a.75.75,0,0,1,.54.57L3.5,35l.22-.86a.59.59,0,0,1,.42-.43l.8-.2-.76-.23A.78.78,0,0,1,3.65,32.73Z" transform="translate(1.99 -10.54)"/><path class="cls-2" d="M55.5,34.15l-.17-.78-.21.82a.91.91,0,0,1-.61.65l-.82.23.82.22a.87.87,0,0,1,.62.66l.2.82.25-1a.64.64,0,0,1,.48-.48l.9-.23-.86-.26A.88.88,0,0,1,55.5,34.15Z" transform="translate(1.99 -10.54)"/><path class="cls-2" d="M24.41,25.62l-.17-.77-.2.81a.89.89,0,0,1-.62.65l-.81.24.82.22a.89.89,0,0,1,.62.65l.19.82.25-1a.66.66,0,0,1,.48-.49l.9-.22L25,26.28A.88.88,0,0,1,24.41,25.62Z" transform="translate(1.99 -10.54)"/><path class="cls-2" d="M33.56,115.39l-.17-.77-.2.81a.89.89,0,0,1-.62.65l-.81.24.82.22a.86.86,0,0,1,.62.65l.19.82.26-1a.67.67,0,0,1,.47-.49l.9-.22-.86-.27A.88.88,0,0,1,33.56,115.39Z" transform="translate(1.99 -10.54)"/><path class="cls-2" d="M6.74,59.43l-.17-.77-.2.81a.89.89,0,0,1-.62.65l-.81.23.82.23a.89.89,0,0,1,.62.65l.19.82.25-1a.66.66,0,0,1,.48-.49l.9-.23-.86-.26A.88.88,0,0,1,6.74,59.43Z" transform="translate(1.99 -10.54)"/><path class="cls-91" d="M72.44,66.06l-.08-4a5.14,5.14,0,0,0-2.59-1.34,6.45,6.45,0,0,0-3.18.15,4.46,4.46,0,0,0-3.15,2.51,4.41,4.41,0,0,0,3.28,5.9A5.27,5.27,0,0,0,72.58,67c-.21-.6,0-.23,0-.76Z" transform="translate(1.99 -10.54)"/><path class="cls-92" d="M65.52,65.78c.84,1.15,1.79,3.3,1.2,3.51s-2.38-1-3-2.23c-.78-1.54-1.3-4.27,1.53-5.63C65.52,61.28,64.65,64.61,65.52,65.78Z" transform="translate(1.99 -10.54)"/><path class="cls-93" d="M69.73,65.11l-1.11-5.7-2.23.47,1.11,5.6a.37.37,0,0,1,0,.11c.11,4.11-1.27,5.15-1.27,5.15l6.66-1.4A8.48,8.48,0,0,1,69.73,65.11Z" transform="translate(1.99 -10.54)"/><path class="cls-94" d="M69.73,65.11l-1-5.21h-.64c.05.25.88,4.43,1,4.72a10.46,10.46,0,0,0,.61,1.78c.77,1.66,1.61,2,1.41,2.5a27.13,27.13,0,0,1-3.39.78c-.42.09-.57.11-.43-.53a5.6,5.6,0,0,0,.11-.86,4,4,0,0,1-1.09,2.44l6.66-1.4A8.48,8.48,0,0,1,69.73,65.11Z" transform="translate(1.99 -10.54)"/><path class="cls-95" d="M69.91,65.53a7.3,7.3,0,0,1-.27-.91l-.88-4.47-.28,0c0,.21.78,4.06.81,4.29a8.2,8.2,0,0,0,.76,2.18c1.13,1.83,1.73,2.09,1.61,2.48s-3,.86-4,1.13c-1.39.34-.28-1-.28-1.89a4,4,0,0,1-1.09,2.44l6.66-1.4A8,8,0,0,1,69.91,65.53Z" transform="translate(1.99 -10.54)"/><path class="cls-96" d="M67.8,65.2a4.82,4.82,0,0,1,0,1.66c-.13,1.72-.47,2.12,0,2.24l.84-.18c.38-.08.19-.45-.23-1.94S67.9,65.18,67.8,65.2Z" transform="translate(1.99 -10.54)"/><path class="cls-97" d="M68.24,67.24h0c0-.19-.2-.2-.21,0s0,.59,0,.82,0,.23,0,.34.07.24.14.23l.29,0c.06,0,.1-.1.08-.21C68.43,68.08,68.34,67.66,68.24,67.24Z" transform="translate(1.99 -10.54)"/><path class="cls-98" d="M73.07,69.33a.12.12,0,0,0-.15-.1l-6.74,1.41a.14.14,0,0,0-.1.16l.12.59a.12.12,0,0,0,.15.1l6.74-1.41a.14.14,0,0,0,.1-.16Z" transform="translate(1.99 -10.54)"/><polygon class="cls-99" points="68.13 60.56 68.28 61.31 75.27 59.85 75.12 59.09 68.13 60.56"/><path class="cls-100" d="M69.53,70l-3.26.69a.12.12,0,0,0-.09.14.12.12,0,0,0,.14.1l3.26-.68a.13.13,0,0,0,.09-.15A.12.12,0,0,0,69.53,70Z" transform="translate(1.99 -10.54)"/><path class="cls-101" d="M67.55,70.4l-.56.12a.11.11,0,0,0-.09.14.12.12,0,0,0,.14.1l.55-.12a.12.12,0,0,0,.1-.14A.13.13,0,0,0,67.55,70.4Z" transform="translate(1.99 -10.54)"/><path class="cls-102" d="M73.08,69.38a.19.19,0,0,0-.21-.16l-1.51.34.17.86L73,70.11a.16.16,0,0,0,.15-.19Z" transform="translate(1.99 -10.54)"/><path class="cls-96" d="M73.53,69.87a.23.23,0,0,0-.28-.19l-7.2,1.51a.25.25,0,0,0-.19.29l.57,3a.24.24,0,0,0,.28.19l7.21-1.51a.24.24,0,0,0,.18-.29Z" transform="translate(1.99 -10.54)"/><path class="cls-94" d="M73.53,69.87a.23.23,0,0,0-.28-.19L71.94,70a.25.25,0,0,0-.19.3l.57,2.94a.24.24,0,0,0,.28.19l1.32-.27a.24.24,0,0,0,.18-.29Z" transform="translate(1.99 -10.54)"/><polygon class="cls-99" points="73.35 59.02 73.45 59.52 74.38 59.32 74.29 58.82 73.35 59.02"/><path class="cls-93" d="M72.44,70.11a.24.24,0,0,0-.29-.2l-.69.14.66,3.44.7-.15A.25.25,0,0,0,73,73Z" transform="translate(1.99 -10.54)"/><path class="cls-103" d="M68.74,71.19a.28.28,0,0,0-.33-.23l-1.79.38a.25.25,0,0,0-.2.3L67,74.49a.24.24,0,0,0,.29.21l1.8-.38a.28.28,0,0,0,.21-.34Z" transform="translate(1.99 -10.54)"/><path class="cls-104" d="M67.17,71.61a.2.2,0,0,0-.24-.17.22.22,0,0,0-.16.25l.48,2.45a.2.2,0,0,0,.24.17.22.22,0,0,0,.16-.25Z" transform="translate(1.99 -10.54)"/><path class="cls-98" d="M74.61,72.46a.24.24,0,0,0-.28-.2L66,74a.24.24,0,0,0-.19.29l.16.82a.23.23,0,0,0,.28.2l8.31-1.75a.24.24,0,0,0,.19-.29Z" transform="translate(1.99 -10.54)"/><path class="cls-100" d="M72,73a.25.25,0,0,0-.29-.19L66,74a.24.24,0,0,0-.19.29l0,.24a.25.25,0,0,0,.29.2l5.72-1.2a.25.25,0,0,0,.19-.3Z" transform="translate(1.99 -10.54)"/><path class="cls-101" d="M69.12,73.59s0,0-.06,0l-2.9.6a.06.06,0,0,0,0,.07v.08a.08.08,0,0,0,.07,0l2.89-.61a.08.08,0,0,0,0-.07Z" transform="translate(1.99 -10.54)"/><path class="cls-99" d="M74.66,72.56a.43.43,0,0,0-.47-.29l-1.13.27.16.86L66,74.91c0,.17.08.49.21.47l7.18-1.54,1.14-.23a.35.35,0,0,0,.27-.24.63.63,0,0,0,0-.2Z" transform="translate(1.99 -10.54)"/><path class="cls-2" d="M68.1,67.66,68,67.51l0,.18a.19.19,0,0,1-.1.16l-.16.09h.18a.15.15,0,0,1,.14.1l.07.16,0-.21a.13.13,0,0,1,.08-.12l.17-.09-.18,0A.15.15,0,0,1,68.1,67.66Z" transform="translate(1.99 -10.54)"/><path class="cls-2" d="M67.1,73.69l-.09-.2v.24a.26.26,0,0,1-.14.21l-.21.11h.24a.23.23,0,0,1,.2.15l.1.21,0-.28a.18.18,0,0,1,.1-.16l.24-.12-.25,0A.23.23,0,0,1,67.1,73.69Z" transform="translate(1.99 -10.54)"/><path class="cls-2" d="M67.24,70.48l-.07-.15v.17a.18.18,0,0,1-.1.16l-.16.09h.18a.15.15,0,0,1,.15.11l.08.16v-.22a.13.13,0,0,1,.08-.12l.18-.08-.19,0A.18.18,0,0,1,67.24,70.48Z" transform="translate(1.99 -10.54)"/><path class="cls-93" d="M72,42.36,57,45.49s5.45,16.44,10.67,15.35C73.2,59.68,72,42.36,72,42.36Z" transform="translate(1.99 -10.54)"/><path class="cls-94" d="M72,42.34l-4.47.93c.19,5.18,0,12.26-2.59,12.79s-5.26-5.93-7-10.77l-.9.19S62.48,61.92,67.7,60.83C73.21,59.67,72,42.34,72,42.34Z" transform="translate(1.99 -10.54)"/><path class="cls-95" d="M72,42.34l-2.29.48c.25,4.41.51,15.7-3.24,16.49-3.56.75-7.56-9.76-9-13.92l-.45.09S62.48,61.92,67.7,60.83C73.21,59.67,72,42.34,72,42.34Z" transform="translate(1.99 -10.54)"/><path class="cls-96" d="M58.8,45.1c1,2.62,3.47,8.61,4.76,8.24s1.07-6.35.87-9.42Z" transform="translate(1.99 -10.54)"/><polygon class="cls-105" points="59.08 35.17 59.35 35.94 74.02 32.87 74 32.04 59.08 35.17"/><path class="cls-98" d="M72.43,42.34a.19.19,0,0,0-.22-.16L56.73,45.43a.2.2,0,0,0-.15.23l.06.29a.2.2,0,0,0,.23.16l15.47-3.25a.2.2,0,0,0,.15-.23Z" transform="translate(1.99 -10.54)"/><path class="cls-100" d="M72.12,42.31,56.86,45.52a.14.14,0,0,0-.11.18.14.14,0,0,0,.17.12l15.26-3.2a.15.15,0,0,0,.12-.18A.16.16,0,0,0,72.12,42.31Z" transform="translate(1.99 -10.54)"/><path class="cls-101" d="M62,44.43l-3,.62a.17.17,0,0,0-.12.19.16.16,0,0,0,.18.12l3-.62a.16.16,0,0,0-.06-.31Z" transform="translate(1.99 -10.54)"/><path class="cls-104" d="M60.69,47c.22,1,1.47,3.87,1.57,3.26a11.16,11.16,0,0,0-.51-3.47C61.4,46,60.57,46.47,60.69,47Z" transform="translate(1.99 -10.54)"/><path class="cls-94" d="M60.73,54.88c-1.85-1.48-2.43-1.74-4.08-3.17a13.24,13.24,0,0,1-2.15-2.65,9.2,9.2,0,0,1-1.22-2.82,1.17,1.17,0,0,1,.08-1A.78.78,0,0,1,54.2,45c.56.24.25,1.2,1,2.18a1.74,1.74,0,0,0,1,.76,1.7,1.7,0,0,0,1.35-.48c.18-.17-.13-.57-.36-.63s-.48.43-.86.42-.78-.8-.81-.85c-.24-.62,0-.88-.08-1.57a2.25,2.25,0,0,0-1.06-1.65,1.85,1.85,0,0,0-2.06.41,2.46,2.46,0,0,0-.53,1.77,4.17,4.17,0,0,0,.38,1.8,12.12,12.12,0,0,0,2.44,3.6,44,44,0,0,0,5.8,4.46c.48.28.83.84.5,1.15-.62.59-.86-.72-.88-.55C59.77,58.33,63.1,56.78,60.73,54.88Z" transform="translate(1.99 -10.54)"/><path class="cls-94" d="M61.1,55.82a1.75,1.75,0,0,0-.4-.49,2.61,2.61,0,0,0-.38-.3h0c-.21-.15-.28-.21-.39-.3s-.26-.22-.71-.55-.44-.33-.58-.42-.26-.18-.52-.38-.7-.52-1.15-.9a11.44,11.44,0,0,1-1.25-1.14c-.21-.23-.36-.43-.67-.83s-.58-.77-.95-1.35a9.28,9.28,0,0,1-.51-.88,9.56,9.56,0,0,1-.43-.89A5.3,5.3,0,0,1,52.77,46a1.47,1.47,0,0,1,0-.61,1.11,1.11,0,0,1,1.08-.89,1,1,0,0,1,.59.13,1.24,1.24,0,0,1,.47.67,1.81,1.81,0,0,1,.08.34.78.78,0,0,0,0,.14,3.44,3.44,0,0,0,.21.71,2.21,2.21,0,0,0,.53.72c.22.2.3.28.45.31a.86.86,0,0,0,.58-.07,1.08,1.08,0,0,0,.3-.2l0,0h0c-.06-.09-.22-.1-.27-.1V47a.77.77,0,0,1-.51.28c-.47,0-.78-.8-.81-.85-.24-.62,0-.88-.08-1.57a2.25,2.25,0,0,0-1.06-1.65,1.85,1.85,0,0,0-2.06.41,2.46,2.46,0,0,0-.53,1.77,4.17,4.17,0,0,0,.38,1.8,12.12,12.12,0,0,0,2.44,3.6,44,44,0,0,0,5.8,4.46c.48.28.83.84.5,1.15-.62.59-.86-.72-.88-.55a1.79,1.79,0,0,0,.08.85l.13-.12a.68.68,0,0,0,.59.25.44.44,0,0,0,.27-.16.58.58,0,0,0,.11-.3A.92.92,0,0,0,61.1,55.82Z" transform="translate(1.99 -10.54)"/><path class="cls-95" d="M60.73,54.88c-1.85-1.48-2.43-1.74-4.08-3.17a13.24,13.24,0,0,1-2.15-2.65,9.2,9.2,0,0,1-1.22-2.82,1.17,1.17,0,0,1,.08-1A.78.78,0,0,1,54.2,45c.56.24.25,1.2,1,2.18a1.74,1.74,0,0,0,1,.76,1.7,1.7,0,0,0,1.35-.48c.18-.17-.13-.57-.36-.63a.42.42,0,0,0-.35.14v.11s.21,0,.27.1h0l0,0a1.08,1.08,0,0,1-.3.2.86.86,0,0,1-.58.07c-.15,0-.23-.11-.45-.31a2.21,2.21,0,0,1-.53-.72,3.44,3.44,0,0,1-.21-.71.78.78,0,0,1,0-.14,1.81,1.81,0,0,0-.08-.34,1.24,1.24,0,0,0-.47-.67,1,1,0,0,0-.59-.13,1.11,1.11,0,0,0-1.08.89,1.47,1.47,0,0,0,0,.61,5.3,5.3,0,0,0,.38,1.41,9.56,9.56,0,0,0,.43.89,9.28,9.28,0,0,0,.51.88c.37.58.69,1,.95,1.35s.46.6.67.83A11.44,11.44,0,0,0,57,52.47c.45.38.8.64,1.15.9s.39.29.52.38.27.21.58.42.58.46.85.61c1.77,1,1.15,1.75,1,1.85-.56.6-1-.12-1-.12C60.45,58,62.75,56.51,60.73,54.88Z" transform="translate(1.99 -10.54)"/><path class="cls-106" d="M60.73,54.88c-1.85-1.48-2.43-1.74-4.08-3.17a13.24,13.24,0,0,1-2.15-2.65,9.2,9.2,0,0,1-1.22-2.82,1.17,1.17,0,0,1,.08-1A.78.78,0,0,1,54.2,45c.56.24.25,1.2,1,2.18a1.74,1.74,0,0,0,1,.76,1.7,1.7,0,0,0,1.35-.48c.18-.17-.13-.57-.36-.63h-.1a.52.52,0,0,1,.26.19.38.38,0,0,1,.07.22.36.36,0,0,1-.13.2,1.24,1.24,0,0,1-.38.25,1.08,1.08,0,0,1-.74.09,1.24,1.24,0,0,1-.57-.38,2.54,2.54,0,0,1-.6-.81,3.84,3.84,0,0,1-.23-.78,1.82,1.82,0,0,0-.09-.43.92.92,0,0,0-.35-.52.74.74,0,0,0-.44-.1,1,1,0,0,0-.61.26,1.09,1.09,0,0,0-.22.43,1.27,1.27,0,0,0,0,.5,5.28,5.28,0,0,0,.36,1.33,8.74,8.74,0,0,0,.42.86,7.19,7.19,0,0,0,.5.86,13.69,13.69,0,0,0,.94,1.33c.3.39.45.59.65.81a9.6,9.6,0,0,0,1.22,1.12c.44.37.8.64,1.14.89.53.4.51.36,1.1.8.85.63.66.54,1.1.85a2.86,2.86,0,0,1,.41.33,1.86,1.86,0,0,1,.46.57,1.19,1.19,0,0,1,.15.67.82.82,0,0,1-.17.45.69.69,0,0,1-.42.26.8.8,0,0,1-.58-.11C61,57.59,62.55,56.34,60.73,54.88Z" transform="translate(1.99 -10.54)"/><path class="cls-93" d="M54.42,43.43a1.39,1.39,0,0,0-1.22-.1,1.51,1.51,0,0,0-.8.53,2.17,2.17,0,0,0-.34,1,3.92,3.92,0,0,0,0,.8,3.45,3.45,0,0,0,.86,2.1,14.67,14.67,0,0,1-.39-1.61c-.15-1,.09-1.94,1-2.11s1.3.33,1.43.16S54.76,43.66,54.42,43.43Z" transform="translate(1.99 -10.54)"/><path class="cls-104" d="M54.15,43.59a1.08,1.08,0,0,0-.67-.12,1.33,1.33,0,0,0-.86.46c-.2.25-.3.57-.25.6s.23-.37.69-.61a1.48,1.48,0,0,1,1-.14c.2,0,.34.15.37.11S54.33,43.69,54.15,43.59Z" transform="translate(1.99 -10.54)"/><path class="cls-94" d="M76.73,40.12a2.37,2.37,0,0,0-1.15-1.41,1.82,1.82,0,0,0-2,.44,2.33,2.33,0,0,0-.37,2c.16.67.51.81.51,1.48,0,0,0,.9-.42,1.1s-.69-.23-1,0-.33.64-.1.72a1.7,1.7,0,0,0,1.43-.1,1.86,1.86,0,0,0,.66-1.12c.31-1.2-.33-1.95.09-2.4a.77.77,0,0,1,.86-.13c.32.16.41.59.46.9a9.39,9.39,0,0,1-.08,3.1,13.8,13.8,0,0,1-1,3.31c-1,2-1.42,2.45-2.57,4.56-1.48,2.71,2.17,2.8,1,.58-.08-.15.18,1.16-.61.86-.42-.15-.3-.8,0-1.26a46.84,46.84,0,0,0,3.68-6.45,12.67,12.67,0,0,0,.9-4.3A4.27,4.27,0,0,0,76.73,40.12Z" transform="translate(1.99 -10.54)"/><path class="cls-94" d="M76.73,40.12a2.37,2.37,0,0,0-1.15-1.41,1.82,1.82,0,0,0-2,.44,2.33,2.33,0,0,0-.37,2c.16.67.51.81.51,1.48,0,0,0,.9-.42,1.1a.73.73,0,0,1-.58,0l0,.11s-.2.09-.21.19v0h0l0,0a1.2,1.2,0,0,0,.34.06.91.91,0,0,0,.56-.16,1,1,0,0,0,.3-.48,2.28,2.28,0,0,0,.22-.87,3.35,3.35,0,0,0-.07-.74l0-.14a1.44,1.44,0,0,1,0-.34,1.21,1.21,0,0,1,.17-.8,1,1,0,0,1,.51-.37,1.11,1.11,0,0,1,.85,0,1.16,1.16,0,0,1,.47.39,1.64,1.64,0,0,1,.27.55,5.89,5.89,0,0,1,.17,1.45,8.31,8.31,0,0,1-.06,1c0,.18-.06.54-.14,1-.12.69-.27,1.21-.38,1.63s-.2.74-.31,1a11.85,11.85,0,0,1-.71,1.55c-.28.53-.51.92-.73,1.3l-.34.56c-.09.14-.19.29-.38.62s-.38.66-.45.79a4.09,4.09,0,0,1-.25.44h0a4.37,4.37,0,0,0-.24.44,1.8,1.8,0,0,0-.18.61.87.87,0,0,0,.07.51.54.54,0,0,0,.22.24.46.46,0,0,0,.31,0c.31-.06.45-.46.45-.47l.16.06a1.83,1.83,0,0,0-.24-.82c-.08-.15.18,1.16-.61.86-.42-.15-.3-.8,0-1.26a46.84,46.84,0,0,0,3.68-6.45,12.67,12.67,0,0,0,.9-4.3A4.27,4.27,0,0,0,76.73,40.12Z" transform="translate(1.99 -10.54)"/><path class="cls-95" d="M76.24,42.54a5.89,5.89,0,0,0-.17-1.45,1.64,1.64,0,0,0-.27-.55,1.16,1.16,0,0,0-.47-.39,1.11,1.11,0,0,0-.85,0,1,1,0,0,0-.51.37,1.21,1.21,0,0,0-.17.8,1.44,1.44,0,0,0,0,.34l0,.14a3.35,3.35,0,0,1,.07.74,2.28,2.28,0,0,1-.22.87,1,1,0,0,1-.3.48.91.91,0,0,1-.56.16,1.2,1.2,0,0,1-.34-.06l0,0h0v0c0-.1.16-.17.21-.19l0-.11a.37.37,0,0,0-.37,0c-.19.14-.33.64-.1.72a1.7,1.7,0,0,0,1.43-.1,1.86,1.86,0,0,0,.66-1.12c.31-1.2-.33-1.95.09-2.4a.77.77,0,0,1,.86-.13c.32.16.41.59.46.9a9.39,9.39,0,0,1-.08,3.1,13.8,13.8,0,0,1-1,3.31c-1,2-1.42,2.45-2.57,4.56-1.26,2.32,1.41,2.73,1.21,1.24,0,0-.17.85-.91.53-.13-.05-1-.49.28-2.13.19-.25.26-.45.55-.9s.29-.48.38-.62l.34-.56c.22-.38.45-.77.73-1.3a11.85,11.85,0,0,0,.71-1.55c.11-.3.18-.55.31-1s.26-.94.38-1.63c.08-.47.12-.83.14-1A8.31,8.31,0,0,0,76.24,42.54Z" transform="translate(1.99 -10.54)"/><path class="cls-106" d="M76,42.54a5.21,5.21,0,0,0-.17-1.37,1.06,1.06,0,0,0-.21-.45,1,1,0,0,0-.36-.31.92.92,0,0,0-.66,0,.78.78,0,0,0-.38.26,1,1,0,0,0-.12.62,2.41,2.41,0,0,0,.08.44,3.83,3.83,0,0,1,.08.81,2.64,2.64,0,0,1-.25,1,1.4,1.4,0,0,1-.38.58,1.22,1.22,0,0,1-.72.22,1.47,1.47,0,0,1-.45-.09.26.26,0,0,1-.2-.36.52.52,0,0,1,.16-.28l-.09,0c-.19.14-.33.64-.1.72a1.7,1.7,0,0,0,1.43-.1,1.86,1.86,0,0,0,.66-1.12c.31-1.2-.33-1.95.09-2.4a.77.77,0,0,1,.86-.13c.32.16.41.59.46.9a9.39,9.39,0,0,1-.08,3.1,13.8,13.8,0,0,1-1,3.31c-1,2-1.42,2.45-2.57,4.56s.75,2.61,1.15,1.75a.8.8,0,0,1-.49.34.74.74,0,0,1-.49-.07.81.81,0,0,1-.33-.35,1.24,1.24,0,0,1-.1-.67,2,2,0,0,1,.2-.71c.11-.23.21-.39.26-.48.29-.46.15-.3.7-1.22.38-.65.37-.6.71-1.18.22-.37.45-.76.72-1.28a11.25,11.25,0,0,0,.71-1.52c.1-.29.17-.53.3-1s.25-.94.37-1.6.13-.89.14-1A8.33,8.33,0,0,0,76,42.54Z" transform="translate(1.99 -10.54)"/><path class="cls-93" d="M76.31,39.79a2.05,2.05,0,0,0-.69-.8,1.55,1.55,0,0,0-.94-.17,1.46,1.46,0,0,0-1.09.59c-.22.35-.28.84-.15.92s.51-.56,1.25-.72c.89-.2,1.47.58,1.69,1.55a13,13,0,0,1,.25,1.63,3.48,3.48,0,0,0,0-2.27A4.37,4.37,0,0,0,76.31,39.79Z" transform="translate(1.99 -10.54)"/><path class="cls-104" d="M75.44,39.14a1.27,1.27,0,0,0-1-.07,1,1,0,0,0-.58.38c-.12.16-.2.38-.16.4s.13-.13.29-.25a1.52,1.52,0,0,1,1-.29c.52,0,.82.35.86.29S75.72,39.29,75.44,39.14Z" transform="translate(1.99 -10.54)"/><path class="cls-2" d="M59.88,44.81l-.07-.18,0,.21a.23.23,0,0,1-.12.19l-.19.11h.21a.21.21,0,0,1,.18.12l.08.19,0-.26a.16.16,0,0,1,.09-.14l.21-.11-.22,0A.19.19,0,0,1,59.88,44.81Z" transform="translate(1.99 -10.54)"/><path class="cls-105" d="M68.26,50.08a.51.51,0,0,0,0-.71.49.49,0,0,0-.14-.11l-.08,0h0a.58.58,0,0,0,.2-.21.5.5,0,0,0-.21-.67h0L68,48.26h0l-.08,0-.07,0a.68.68,0,0,0,.07-.2.49.49,0,0,0-.26-.51l-.08-.06a.51.51,0,0,0-.24-.1h-.09a.92.92,0,0,0,0-.16.48.48,0,0,0-.25-.33l-.08-.06a.53.53,0,0,0-.41-.09l-.13,0a.42.42,0,0,0,0-.1.44.44,0,0,0-.19-.17L66,46.39a.48.48,0,0,0-.56,0l-.14.14-.06-.06-.08-.05h0l-.08,0h0a.47.47,0,0,0-.68.1.54.54,0,0,0-.09.25h0l-.08,0a.38.38,0,0,0-.15-.09.48.48,0,0,0-.6.33.5.5,0,0,0,0,.32.47.47,0,0,0-.31-.09.48.48,0,0,0-.45.52.46.46,0,0,0,.11.3.45.45,0,0,0-.32,0,.51.51,0,0,0-.26.65.5.5,0,0,0,.21.24.46.46,0,0,0-.29.13.51.51,0,0,0,0,.71.57.57,0,0,0,.13.1l.08.06h0a.48.48,0,0,0-.19.21.51.51,0,0,0,.21.67h0l.08.05h0l.08,0,.07,0a.48.48,0,0,0-.07.2.49.49,0,0,0,.26.51l.08,0a.54.54,0,0,0,.23.11h.1a.76.76,0,0,0,0,.15.47.47,0,0,0,.25.34l.08.05a.48.48,0,0,0,.4.1.31.31,0,0,0,.13-.06l0,.1a.54.54,0,0,0,.19.18l.08,0a.45.45,0,0,0,.55,0,.4.4,0,0,0,.14-.15l.07.07.08,0h0l.08,0h0A.47.47,0,0,0,66,52.6a.62.62,0,0,0,.09-.26l0,0,.08,0a.36.36,0,0,0,.15.08.49.49,0,0,0,.59-.64.53.53,0,0,0,.3.09.49.49,0,0,0,.46-.52.44.44,0,0,0-.11-.3.51.51,0,0,0,.32,0,.51.51,0,0,0,.26-.65.5.5,0,0,0-.21-.24A.51.51,0,0,0,68.26,50.08Z" transform="translate(1.99 -10.54)"/><path class="cls-107" d="M66.46,46.67a.51.51,0,0,0-.36.6.49.49,0,0,0,.58.38.5.5,0,0,0,.36-.6A.49.49,0,0,0,66.46,46.67Z" transform="translate(1.99 -10.54)"/><path class="cls-100" d="M67.3,47.31a.5.5,0,0,0-.12,1,.47.47,0,0,0,.54-.43A.5.5,0,0,0,67.3,47.31Z" transform="translate(1.99 -10.54)"/><path class="cls-100" d="M67.88,48.21a.48.48,0,0,0-.65.22.52.52,0,0,0,.21.67.47.47,0,0,0,.65-.21A.52.52,0,0,0,67.88,48.21Z" transform="translate(1.99 -10.54)"/><path class="cls-100" d="M68.13,49.26a.47.47,0,0,0-.68,0,.5.5,0,0,0,0,.7.46.46,0,0,0,.68,0A.51.51,0,0,0,68.13,49.26Z" transform="translate(1.99 -10.54)"/><path class="cls-100" d="M67.39,50.07a.51.51,0,0,0-.26.66.48.48,0,0,0,.63.27.52.52,0,0,0,.26-.66A.49.49,0,0,0,67.39,50.07Z" transform="translate(1.99 -10.54)"/><path class="cls-100" d="M67.05,50.84a.5.5,0,0,0,0,1,.5.5,0,0,0,0-1Z" transform="translate(1.99 -10.54)"/><path class="cls-100" d="M66.48,51.43a.48.48,0,0,0-.6.33.5.5,0,0,0,.32.63.48.48,0,0,0,.6-.33A.51.51,0,0,0,66.48,51.43Z" transform="translate(1.99 -10.54)"/><path class="cls-100" d="M65.76,51.79a.48.48,0,0,0-.68.1.51.51,0,0,0,.09.7.47.47,0,0,0,.68-.09A.53.53,0,0,0,65.76,51.79Z" transform="translate(1.99 -10.54)"/><path class="cls-100" d="M64.29,51.72a.51.51,0,0,0-.15.69.47.47,0,0,0,.67.16.52.52,0,0,0,.14-.7A.47.47,0,0,0,64.29,51.72Z" transform="translate(1.99 -10.54)"/><path class="cls-100" d="M63.59,51.29a.5.5,0,0,0,.22,1,.51.51,0,0,0,.36-.6A.48.48,0,0,0,63.59,51.29Z" transform="translate(1.99 -10.54)"/><path class="cls-100" d="M63.09,50.63a.48.48,0,0,0-.54.43.48.48,0,0,0,.42.56.47.47,0,0,0,.53-.43A.48.48,0,0,0,63.09,50.63Z" transform="translate(1.99 -10.54)"/><path class="cls-100" d="M62.83,49.83a.47.47,0,0,0-.65.22.51.51,0,0,0,.21.67.48.48,0,0,0,.65-.21A.53.53,0,0,0,62.83,49.83Z" transform="translate(1.99 -10.54)"/><path class="cls-100" d="M62.85,49a.47.47,0,0,0-.68,0,.51.51,0,0,0,0,.71.48.48,0,0,0,.68,0A.51.51,0,0,0,62.85,49Z" transform="translate(1.99 -10.54)"/><path class="cls-100" d="M62.51,47.94a.51.51,0,0,0-.26.65.47.47,0,0,0,.63.27.5.5,0,0,0,.26-.65A.47.47,0,0,0,62.51,47.94Z" transform="translate(1.99 -10.54)"/><path class="cls-100" d="M63.17,47.1a.48.48,0,0,0-.45.52.48.48,0,0,0,.5.48.51.51,0,0,0,.46-.53A.49.49,0,0,0,63.17,47.1Z" transform="translate(1.99 -10.54)"/><path class="cls-100" d="M64.07,46.54a.48.48,0,0,0-.6.33.5.5,0,0,0,.32.63.48.48,0,0,0,.6-.33A.51.51,0,0,0,64.07,46.54Z" transform="translate(1.99 -10.54)"/><path class="cls-100" d="M65.1,46.34a.47.47,0,0,0-.68.1.51.51,0,0,0,.09.7.47.47,0,0,0,.68-.1A.51.51,0,0,0,65.1,46.34Z" transform="translate(1.99 -10.54)"/><path class="cls-100" d="M65.46,46.37a.51.51,0,0,0-.14.69.47.47,0,0,0,.66.15.51.51,0,0,0,.15-.69A.48.48,0,0,0,65.46,46.37Z" transform="translate(1.99 -10.54)"/><path class="cls-100" d="M66.46,46.67a.51.51,0,0,0-.36.6.49.49,0,0,0,.58.38.5.5,0,0,0,.36-.6A.49.49,0,0,0,66.46,46.67Z" transform="translate(1.99 -10.54)"/><path class="cls-108" d="M64.6,46.91a2.65,2.65,0,0,0-1.92,3.15,2.55,2.55,0,0,0,3,2,2.65,2.65,0,0,0,1.92-3.16A2.54,2.54,0,0,0,64.6,46.91Z" transform="translate(1.99 -10.54)"/><ellipse class="cls-100" cx="67.15" cy="38.94" rx="2.38" ry="2.48"/><path class="cls-105" d="M66.11,50.88a.17.17,0,0,0-.09-.07c-.06,0-.09,0-.09,0l-.69-3.17-.08-.05a1,1,0,0,0-.19.13,1.32,1.32,0,0,0-.12.22,2.33,2.33,0,0,1-.29.45,1.68,1.68,0,0,1-.26.24s-.08.06-.09.08a.11.11,0,0,0,0,.08l0,.09s0,.07.08.06a1,1,0,0,0,.33-.15l.48,2.18s0,.09-.11.14-.08,0-.08.07a.22.22,0,0,0,0,.16c0,.05.13.08.18.07l1-.24c.05,0,.08,0,.07-.08A.44.44,0,0,0,66.11,50.88Z" transform="translate(1.99 -10.54)"/><path class="cls-93" d="M66,50.83l-.1,0s-.09,0-.09-.06l-.69-3.17L65,47.6l-.08,0-.12.23a2.1,2.1,0,0,1-.29.44,1.28,1.28,0,0,1-.26.24s-.08.06-.09.08a.11.11,0,0,0,0,.08l0,.09c0,.05,0,.07.08.06a1,1,0,0,0,.33-.15L65,50.88s0,.09-.11.14-.08,0-.08.07a.49.49,0,0,0,0,.14.22.22,0,0,0,0,.09H65l1-.24c.06,0,.08,0,.07-.07A.89.89,0,0,0,66,50.83Z" transform="translate(1.99 -10.54)"/><polygon class="cls-104" points="66.68 38.77 66.9 39.76 67.51 38.68 67.3 37.69 66.68 38.77"/><path class="cls-92" d="M72.36,62.07c-.16-.62-.88-.87-2-1.12-.45-.1-1.19.56-2,.94-.51.24-3.08,1.29-2.46,2.9.51,1.33,3.45.12,4.82-.09.81-.12,1.57,1.13,1.66,1.07S72.41,62.25,72.36,62.07Z" transform="translate(1.99 -10.54)"/><path class="cls-109" d="M72.62,61.6l3.57,0,.9,4.43,0,.54-.61.5-1.32.09c-.53-.34.24.38-.57.51a9.42,9.42,0,0,1-2.25.09V61.86A.27.27,0,0,1,72.62,61.6Z" transform="translate(1.99 -10.54)"/><path class="cls-48" d="M72.62,61.6l1.36,0,0,1.7H72.35V61.86A.27.27,0,0,1,72.62,61.6Z" transform="translate(1.99 -10.54)"/><path class="cls-9" d="M73.72,68.41l.16-7.53L92,60.35v7.79S75.14,68.32,73.72,68.41Z" transform="translate(1.99 -10.54)"/><polygon class="cls-110" points="75.86 50.91 75.87 50.34 94.54 49.8 94.64 52.48 75.84 52.71 75.86 50.91"/><path class="cls-111" d="M118,53.43l-23.3,0c-1.37,0-2.06,1-2.38,2.31L88.7,71.27a2.81,2.81,0,0,0,2.63,3.63h23a3,3,0,0,0,2.88-2.29l3.63-15.55A3,3,0,0,0,118,53.43Z" transform="translate(1.99 -10.54)"/><path class="cls-112" d="M115.44,74.87H74a1.56,1.56,0,0,0-1.53,1.58v.18A1.56,1.56,0,0,0,74,78.21h41.4A1.55,1.55,0,0,0,117,76.63v-.18A1.55,1.55,0,0,0,115.44,74.87Z" transform="translate(1.99 -10.54)"/><path class="cls-2" d="M119.1,53.4H96.59a2.93,2.93,0,0,0-2.84,2.29L90.16,71.24A3,3,0,0,0,93,74.87h22.5a2.92,2.92,0,0,0,2.84-2.29L121.94,57A3,3,0,0,0,119.1,53.4Z" transform="translate(1.99 -10.54)"/><path class="cls-41" d="M116,74.85l-25.14,0a1.22,1.22,0,0,1,.71.46,1.06,1.06,0,0,1,.19.48H116.8C116.65,75.26,116.33,74.85,116,74.85Z" transform="translate(1.99 -10.54)"/><path class="cls-113" d="M87,74.87H72.51a1.67,1.67,0,0,0,0,3.34H87a1.67,1.67,0,0,0,0-3.34Z" transform="translate(1.99 -10.54)"/><path class="cls-114" d="M84.32,76.08h-.47a.49.49,0,0,0-.48.5.5.5,0,0,0,.48.51h.47a.5.5,0,0,0,.49-.51A.49.49,0,0,0,84.32,76.08Z" transform="translate(1.99 -10.54)"/><path class="cls-114" d="M81.34,76.21h-5.4a.37.37,0,0,0,0,.74h5.4a.37.37,0,0,0,0-.74Z" transform="translate(1.99 -10.54)"/><path class="cls-41" d="M106.8,62.71h-1.24a.73.73,0,0,0-.71.6l-.28,1.33a.75.75,0,0,0,.72.92h1.22a.73.73,0,0,0,.71-.59l.29-1.33A.75.75,0,0,0,106.8,62.71Z" transform="translate(1.99 -10.54)"/><path class="cls-34" d="M106.46,62.87h-1a.62.62,0,0,0-.57.53l-.21,1.18a.65.65,0,0,0,.56.82h1a.61.61,0,0,0,.56-.52L107,63.7A.66.66,0,0,0,106.46,62.87Z" transform="translate(1.99 -10.54)"/><path class="cls-2" d="M115.51,74.85a2.91,2.91,0,0,0,2.84-2.28L121.94,57s0,0,0-.06L104.23,74.85Z" transform="translate(1.99 -10.54)"/><path class="cls-2" d="M93.75,55.69l-2.24,9.7,11.54-12H96.59A2.93,2.93,0,0,0,93.75,55.69Z" transform="translate(1.99 -10.54)"/><polygon class="cls-20" points="90.43 54.26 95.78 54.26 96.58 50.67 91.18 50.62 90.43 54.26"/><path class="cls-2" d="M93.49,61.78H90c-.1,0-.19.06-.19.14h0a.18.18,0,0,0,.19.15h3.48a.17.17,0,0,0,.18-.15h0A.16.16,0,0,0,93.49,61.78Z" transform="translate(1.99 -10.54)"/><path class="cls-2" d="M91.86,62.46h-2c-.13,0-.23.06-.23.14s.1.14.23.14h2c.13,0,.23-.06.23-.14S92,62.46,91.86,62.46Z" transform="translate(1.99 -10.54)"/><path class="cls-2" d="M93.38,62.46h-.81a.14.14,0,0,0,0,.28h.81a.14.14,0,0,0,0-.28Z" transform="translate(1.99 -10.54)"/><path class="cls-2" d="M90.49,63.16h-.78c-.19,0-.34.07-.34.14s.15.15.34.15h.78c.19,0,.34-.07.34-.15S90.68,63.16,90.49,63.16Z" transform="translate(1.99 -10.54)"/><path class="cls-2" d="M93.22,63.16H91.43a.14.14,0,0,0-.14.14.15.15,0,0,0,.14.15h1.79a.15.15,0,0,0,.14-.15A.14.14,0,0,0,93.22,63.16Z" transform="translate(1.99 -10.54)"/><polygon class="cls-68" points="91.56 49.19 96.92 49.19 97.72 45.6 92.32 45.55 91.56 49.19"/><path class="cls-2" d="M94.66,56.69H91.09a.14.14,0,0,0,0,.28h3.57a.14.14,0,0,0,0-.28Z" transform="translate(1.99 -10.54)"/><path class="cls-2" d="M91.62,57.37h-.71a.15.15,0,0,0-.14.15.14.14,0,0,0,.14.14h.71a.14.14,0,0,0,.14-.14A.15.15,0,0,0,91.62,57.37Z" transform="translate(1.99 -10.54)"/><rect class="cls-2" x="92.66" y="47.5" width="0.59" height="0.29" rx="0.14" ry="0.14"/><path class="cls-2" d="M92,58h-.31a.15.15,0,0,0-.14.15h0a.14.14,0,0,0,.14.14H92a.14.14,0,0,0,.14-.14h0A.15.15,0,0,0,92,58Z" transform="translate(1.99 -10.54)"/><path class="cls-2" d="M94.36,58H92.57a.15.15,0,0,0-.14.15h0a.14.14,0,0,0,.14.14h1.79a.14.14,0,0,0,.14-.14h0A.15.15,0,0,0,94.36,58Z" transform="translate(1.99 -10.54)"/><path class="cls-2" d="M94.45,57.37H92.37a.15.15,0,0,0-.14.15.14.14,0,0,0,.14.14h2.08a.14.14,0,0,0,.14-.14A.15.15,0,0,0,94.45,57.37Z" transform="translate(1.99 -10.54)"/><path class="cls-115" d="M116.18,61.44l-16.06,1.47a1.43,1.43,0,0,1-1.62-1.23l-.17-2.16A1.48,1.48,0,0,1,99.74,58l16.05-1.47a1.44,1.44,0,0,1,1.62,1.23l.17,2.17A1.47,1.47,0,0,1,116.18,61.44Z" transform="translate(1.99 -10.54)"/><text class="cls-116" transform="matrix(0.95, -0.09, 0.08, 1, 102.1, 51.56)">TR<tspan class="cls-117" x="6.05" y="0">U</tspan><tspan x="9.14" y="0">MP</tspan></text><image width="1024" height="1024" transform="matrix(0, 0, 0, 0.01, 97.06, 55.96)" xlink:href="../../../../Desktop/dWeb Branding/dweb-emblem-v3-shadow.png"/><polygon class="cls-118" points="118.95 61.11 105.93 62.61 105.49 58.51 118.52 57.01 118.95 61.11"/><text class="cls-119" transform="matrix(0.85, -0.1, 0.11, 0.99, 107.63, 61.49)">#MAGA</text></svg>