<svg id="Layer_1" data-name="Layer 1" xmlns="http://www.w3.org/2000/svg" xmlns:xlink="http://www.w3.org/1999/xlink" viewBox="0 0 137.03 139.84"><defs><style>.cls-1{fill:#f2f2f2;}.cls-2{fill:#29222d;}.cls-3{fill:#584d5e;}.cls-4{fill:#7e8a98;}.cls-5{fill:#3a0907;}.cls-6{fill:#ebf2f1;}.cls-7{fill:#b5c8d6;}.cls-8{fill:#273044;}.cls-9{fill:#0d3672;}.cls-10{fill:#1b46a8;}.cls-11{fill:#2c2b3f;}.cls-12{fill:#1a1a28;}.cls-13{fill:#143696;}.cls-14{fill:#042751;}.cls-15,.cls-49,.cls-84,.cls-87{fill:#fff;}.cls-16{fill:#fe411b;}.cls-17{fill:#6d3131;}.cls-18{fill:#c6c5c4;}.cls-19{fill:#93afbc;}.cls-20{fill:#cce2e0;}.cls-21{fill:#d3eae9;}.cls-22{fill:#fecb00;}.cls-23{fill:#f2b903;}.cls-24{fill:#dfefec;}.cls-25{fill:#e59e00;}.cls-26{fill:#a5c3d6;}.cls-27{fill:#f4f4f4;}.cls-28{fill:#252533;}.cls-29{fill:#bebecb;}.cls-30{fill:#ff9000;}.cls-31{fill:#262534;}.cls-32{fill:#85c6c6;}.cls-33{fill:#f96;}.cls-34{fill:#d42900;}.cls-35{fill:#c3f5fc;}.cls-36{fill:#602018;}.cls-37{fill:#061428;}.cls-38{fill:#030e1c;}.cls-39{fill:#11253d;}.cls-40{fill:#ad5d3d;}.cls-41{fill:#fffae6;opacity:0.25;}.cls-42{fill:#8e3d34;}.cls-43{fill:#97af0b;}.cls-44{fill:#728c04;}.cls-45{fill:#466b05;}.cls-46{fill:#fcba00;}.cls-47{fill:#ffe18d;}.cls-48{fill:#ff9700;}.cls-49{opacity:0.26;}.cls-50{fill:#002b35;opacity:0.17;}.cls-51{fill:#9db5c4;}.cls-52{fill:#f58c6c;}.cls-53{fill:#ffb288;}.cls-54{fill:#aa1d17;}.cls-55{fill:#ff947b;}.cls-56{fill:#541713;}.cls-57{fill:#f48f6d;}.cls-58{fill:#d1e5e5;}.cls-59{fill:#e2e1de;}.cls-60{fill:#e6e6e6;}.cls-61{fill:#141517;}.cls-62{fill:#262533;}.cls-63{fill:#3a98d8;}.cls-64{fill:#a2c506;}.cls-65{fill:#1f4975;}.cls-66{fill:#d10f0f;}.cls-67{fill:#ea9639;}.cls-68{fill:#feae4d;}.cls-69{fill:#ffd59d;}.cls-70{fill:#ff6f4d;}.cls-71{fill:#2d6fbd;}.cls-72{fill:#f0f7f6;}.cls-73{fill:#dfe5e4;}.cls-74{fill:#ffcd2c;}.cls-75{fill:#ffa300;}.cls-76{fill:#774701;}.cls-77{fill:#f1ff9c;opacity:0.24;}.cls-78{fill:#41442e;opacity:0.15;}.cls-79{fill:#5f890c;}.cls-80{fill:#bad807;}.cls-81{fill:#53b4ea;}.cls-82{fill:#1850aa;}.cls-83{fill:#f92828;}.cls-84{font-size:4.65px;font-family:Reisenberg, Reisenberg;}.cls-85{letter-spacing:-0.05em;}.cls-86{fill:#33f;}.cls-87{font-size:3.45px;font-family:Eternal, Eternal;}</style></defs><title>hero-3</title><ellipse class="cls-1" cx="23.14" cy="15.78" rx="20.88" ry="15.78"/><polygon class="cls-2" points="54.31 105.19 67.17 110.98 79.01 105.11 54.31 105.19"/><ellipse class="cls-3" cx="44.85" cy="134.6" rx="2.5" ry="2.57"/><path class="cls-3" d="M52.31,139.33l-2.38.4-.22-1.38c-.48-3,1.26-5.86,3.89-6.3l20.64-3.47.44,2.75L54,134.8A2.65,2.65,0,0,0,52.09,138Z" transform="translate(-5.73 -5.07)"/><path class="cls-3" d="M92.8,139.33l2.39.4.21-1.38c.48-3-1.26-5.86-3.89-6.3l-20.64-3.47-.44,2.75,20.65,3.47A2.65,2.65,0,0,1,93,138Z" transform="translate(-5.73 -5.07)"/><ellipse class="cls-3" cx="88.81" cy="134.6" rx="2.5" ry="2.57"/><rect class="cls-4" x="65.11" y="110.13" width="3.44" height="11.33"/><rect class="cls-3" x="64.1" y="120.35" width="5.45" height="7.73" rx="2.56" ry="2.56"/><path class="cls-5" d="M71,134.18H61.65v1.65a5.62,5.62,0,0,0-.92-.08c-2.84,0-5.13,2-5.13,4.42,0,1.93,6.37,2.33,9.07,1.22H71Z" transform="translate(-5.73 -5.07)"/><rect class="cls-6" x="20.82" y="82.82" width="3.73" height="54.38"/><rect class="cls-7" x="20.82" y="82.82" width="3.73" height="6.89"/><rect class="cls-6" x="29.59" y="82.82" width="3.73" height="54.38"/><rect class="cls-7" x="29.59" y="82.82" width="3.73" height="17.12"/><rect class="cls-6" x="115.38" y="87.9" width="3.73" height="54.38" transform="translate(228.75 225.1) rotate(180)"/><rect class="cls-7" x="115.38" y="87.9" width="3.73" height="6.89" transform="translate(228.75 177.61) rotate(180)"/><rect class="cls-6" x="106.6" y="87.9" width="3.73" height="54.38" transform="translate(211.21 225.1) rotate(180)"/><rect class="cls-7" x="106.6" y="87.9" width="3.73" height="17.12" transform="translate(211.21 187.84) rotate(180)"/><path class="cls-3" d="M87.85,108.7l5.06,0a5.92,5.92,0,0,0,5.69-6c0-3.78,0-8.84,0-11.42l-2.57,0c0,2.6,0,7.66,0,11.45A3.31,3.31,0,0,1,92.86,106l-5,0Z" transform="translate(-5.73 -5.07)"/><path class="cls-8" d="M93.46,107l-5.67,0v-.94l5,0A3.31,3.31,0,0,0,96,102.71c0-3.79,0-8.85,0-11.45h1.06c0,2.91,0,8.14,0,12.09A3.67,3.67,0,0,1,93.46,107Z" transform="translate(-5.73 -5.07)"/><rect class="cls-9" x="92.5" y="89.2" width="9.62" height="4.79" rx="2.33" ry="2.33" transform="translate(188.9 178.13) rotate(-180)"/><path class="cls-10" d="M94.55,91.28H100a1,1,0,0,0,1-1h0a1,1,0,0,0-1-1H94.55a1,1,0,0,0-1,1h0A1,1,0,0,0,94.55,91.28Z" transform="translate(-5.73 -5.07)"/><rect class="cls-11" x="63.7" y="89.48" width="6.8" height="11.08"/><rect class="cls-12" x="68.4" y="89.48" width="2.1" height="11.08"/><rect class="cls-12" x="63.7" y="92" width="6.8" height="2.06"/><path class="cls-13" d="M65.94,38.44h2.32A17.46,17.46,0,0,1,85.72,55.91V86.12A6.87,6.87,0,0,1,78.85,93H55.35a6.87,6.87,0,0,1-6.87-6.87V55.91A17.46,17.46,0,0,1,65.94,38.44Z"/><path class="cls-9" d="M72.82,43.53h0a15.53,15.53,0,0,0-2.47.19C81.5,43.53,86.5,54.56,86.5,65.86V83.23c0,4.83-3.24,8.83-7.27,8.83H56.64a6.27,6.27,0,0,1-2.16-.4c.86,3.7,3.7,6.43,7.05,6.43H84.12c4,0,7.28-4,7.28-8.82V65.86C92.79,51.54,83.06,43.53,72.82,43.53Z" transform="translate(-5.73 -5.07)"/><path class="cls-9" d="M91.35,60.69c-1-9.61-8.94-17.18-18.52-17.18h0A18.9,18.9,0,0,0,54.34,60.4a48.82,48.82,0,0,0,9.89,3A50.77,50.77,0,0,0,91.35,60.69Z" transform="translate(-5.73 -5.07)"/><path class="cls-3" d="M58.1,108.7l-5.06,0a5.93,5.93,0,0,1-5.69-6c0-3.78,0-8.84,0-11.42l2.58,0c0,2.6,0,7.66,0,11.45A3.29,3.29,0,0,0,53.09,106l5,0Z" transform="translate(-5.73 -5.07)"/><path class="cls-8" d="M52.43,107l5.6,0v-.94l-5,0a3.29,3.29,0,0,1-3.15-3.32c0-3.79,0-8.85,0-11.45h-1c0,2.91,0,8.14,0,12.09A3.64,3.64,0,0,0,52.43,107Z" transform="translate(-5.73 -5.07)"/><rect class="cls-9" x="38.11" y="84.13" width="9.62" height="4.79" rx="2.33" ry="2.33"/><path class="cls-9" d="M88.38,110.53H57.27a3.11,3.11,0,0,1-3.06-3.15h0a3.11,3.11,0,0,1,3.06-3.16H88.38a3.12,3.12,0,0,1,3.07,3.16h0A3.12,3.12,0,0,1,88.38,110.53Z" transform="translate(-5.73 -5.07)"/><path class="cls-10" d="M88.29,107.38H57.54A1.56,1.56,0,0,1,56,105.8h0a1.56,1.56,0,0,1,1.53-1.58H88.29a1.56,1.56,0,0,1,1.53,1.58h0A1.56,1.56,0,0,1,88.29,107.38Z" transform="translate(-5.73 -5.07)"/><path class="cls-10" d="M51.4,91.28H45.93a1,1,0,0,1-1-1h0a1,1,0,0,1,1-1H51.4a1,1,0,0,1,1,1h0A1,1,0,0,1,51.4,91.28Z" transform="translate(-5.73 -5.07)"/><path class="cls-14" d="M88.38,104.16H57.27a3.18,3.18,0,0,0,0,6.35H68.76c0-.27.07-.71.08-1.13.22-10,7.81-8.76,8.37-.86.05.76.11,1.44.09,2H88.38a3.18,3.18,0,0,0,0-6.35Z" transform="translate(-5.73 -5.07)"/><path d="M72.89,89.5c-3.7-.4-6.87-3-9.73-1.9-.22.09-.52.24-.52.24L58.1,96.46l8.08,7.77h13l8.63-7.74-4.34-8.76S77.66,90,72.89,89.5Z" transform="translate(-5.73 -5.07)"/><polygon class="cls-7" points="76.83 85.33 57.86 85.22 57.33 80.1 77.57 79.88 76.83 85.33"/><path class="cls-15" d="M96.41,45.25C88,40.39,86,39.54,86,39.54l-3.44,7,12.7,7.24a68.54,68.54,0,0,1-8.5,3.41c-.46.12-4.24,1.1-4.94.74-5.18-2.71-7.6-2.29-8.61-2.33h-.37c-1,0-3.17.24-8.62,2.33a12,12,0,0,1-4.15.1,38.79,38.79,0,0,1-8.44-4.12l12-7.37-3.44-7s-2,.85-10.41,5.71C45.38,47.79,42.4,50,42.4,53c0,1.86,1.79,6.87,12.41,12.9a47.94,47.94,0,0,0,6,2.69c.39,1.34.83,2.66,1.31,4.27.2.68.36,10.76,1.48,13.17C65.43,90,82,87.37,82,87.37s1.68-13.84,1.88-14.52c.48-1.6.91-2.92,1.3-4.25a37.18,37.18,0,0,0,6.13-2.71c10.62-6,12.41-11,12.41-12.9C103.75,50,100.77,47.79,96.41,45.25Z" transform="translate(-5.73 -5.07)"/><path class="cls-16" d="M73.06,61.79c-1.12,0-2.82,12.75-3.11,15a1,1,0,0,0,.12.6l2.52,4.15a.74.74,0,0,0,1.33-.06L76,77.39a.9.9,0,0,0,.09-.54C75.85,74.73,74.19,61.83,73.06,61.79Z" transform="translate(-5.73 -5.07)"/><path class="cls-16" d="M74.27,59.45a2.27,2.27,0,0,0-2.14-.28,2.9,2.9,0,0,0-1.46,2.51,3.11,3.11,0,0,0,1.39,2.24,1.58,1.58,0,0,0,2,0,3.09,3.09,0,0,0,1.37-2A3.2,3.2,0,0,0,74.27,59.45Z" transform="translate(-5.73 -5.07)"/><path class="cls-7" d="M83.6,68.13A29.33,29.33,0,0,0,86.88,67a41.32,41.32,0,0,0,5.48-2.76,44.66,44.66,0,0,0,5.17-3.59A20.76,20.76,0,0,0,101,57.3c.6-.76,3.76-4.17,1.35-7.67a4.3,4.3,0,0,1,1.4,3.36c0,1.86-1.79,6.87-12.41,12.9-2.69,1.53-7,3.25-7.64,3a.91.91,0,0,1-.4-.67Z" transform="translate(-5.73 -5.07)"/><path class="cls-7" d="M82.81,68.42a19.71,19.71,0,0,1,2.88-1,36.08,36.08,0,0,0-2.13,9c-.31,3.76-.81,9.34-1.55,10.94a3.48,3.48,0,0,1-1.84,1.57c.22-2.37.55-5.92,1-10.15C81.48,76.68,82.06,70.33,82.81,68.42Z" transform="translate(-5.73 -5.07)"/><path class="cls-17" d="M62.38,87.9c-.38.92-1,2.35-1,2.35C65.48,93.67,81.48,94,84.63,90a3.9,3.9,0,0,1-.55-1.75s0,0,0,0a27.51,27.51,0,0,1-11.23,2C68.68,90.23,63.6,88.82,62.38,87.9Z" transform="translate(-5.73 -5.07)"/><path class="cls-17" d="M80.2,88.74A3.42,3.42,0,0,0,82,87.37,6.82,6.82,0,0,0,82.45,86c-.61.22-1.3.43-2,.64Z" transform="translate(-5.73 -5.07)"/><path class="cls-7" d="M95.71,54.32a2.87,2.87,0,0,0,1.75.39,4.21,4.21,0,0,0,1.91-.26c0-.11-.7-.06-1.77-.34C96,53.69,95.14,52.52,95,52.73S95.22,54,95.71,54.32Z" transform="translate(-5.73 -5.07)"/><path class="cls-18" d="M74.85,90.25h-3.5a.55.55,0,0,0-.47.6V92.3a.55.55,0,0,0,.47.6h3.5a.55.55,0,0,0,.48-.6V90.85A.55.55,0,0,0,74.85,90.25Zm.11,2c0,.06,0,.27-.11.27H71.46c-.12,0-.25-.06-.25-.31V90.89c0-.14.08-.25.18-.25h3.5s.07,0,.07.11Z" transform="translate(-5.73 -5.07)"/><path class="cls-18" d="M73.09,91.76h2v-.37h-2a.19.19,0,0,0-.18.18h0A.2.2,0,0,0,73.09,91.76Z" transform="translate(-5.73 -5.07)"/><path class="cls-7" d="M63.27,68.56c-.19,0-2.66-.93-2.66-.93a60.76,60.76,0,0,1,1.7,9.08c.31,3.76.54,9.78,1.28,11.38.3.65,1.38.45,2.26.85-.21-2.37-.73-5.9-1-10.15A56.92,56.92,0,0,0,63.27,68.56Z" transform="translate(-5.73 -5.07)"/><path class="cls-19" d="M31.35,88.85h0Z" transform="translate(-5.73 -5.07)"/><path class="cls-19" d="M88.32,88.19h0Z" transform="translate(-5.73 -5.07)"/><path class="cls-20" d="M84.39,88.06h0Z" transform="translate(-5.73 -5.07)"/><path class="cls-19" d="M110.45,88.7h0Z" transform="translate(-5.73 -5.07)"/><path class="cls-19" d="M131.92,91.29h0Z" transform="translate(-5.73 -5.07)"/><path class="cls-21" d="M27.38,88.09h0Z" transform="translate(-5.73 -5.07)"/><rect class="cls-15" x="13.11" y="78.49" width="43.55" height="5.15"/><rect class="cls-22" x="2.26" y="70.78" width="40.45" height="7.41"/><path class="cls-23" d="M8,76.21c9.53.28,24.55-1.25,24.88,5.54,0,.58,0,1.11,0,1.5l15.45,0V75.85H8Z" transform="translate(-5.73 -5.07)"/><rect class="cls-24" x="27.33" y="70.78" width="15.38" height="7.41"/><polygon class="cls-25" points="27.83 71.66 43.07 71.66 43.07 70.78 27.83 70.78 26.83 70.78 26.83 71.66 26.83 78.18 27.83 78.18 43.14 78.18 43.14 77.3 27.83 77.3 27.83 71.66"/><rect class="cls-26" x="27.83" y="71.66" width="14.88" height="0.88"/><rect class="cls-27" x="4.54" y="72.75" width="8.62" height="3.45"/><rect class="cls-28" x="4.54" y="72.75" width="1.41" height="3.45"/><rect class="cls-29" x="9.52" y="73.31" width="0.93" height="2.31"/><rect class="cls-29" x="10.98" y="73.31" width="0.93" height="2.31"/><ellipse class="cls-30" cx="23.07" cy="74.48" rx="1.57" ry="1.61"/><ellipse class="cls-31" cx="23.31" cy="74.48" rx="1.33" ry="1.47"/><polygon class="cls-7" points="6.4 70.71 36.34 70.71 36.85 65.65 6.4 65.65 6.4 70.71"/><rect class="cls-15" x="6.4" y="65.65" width="21.84" height="5.07"/><polygon class="cls-7" points="5.27 65.65 35.1 65.65 35.1 58.26 4.86 58.26 5.27 65.65"/><polygon class="cls-15" points="5.27 65.65 26.59 65.65 26.59 58.26 4.86 58.26 5.27 65.65"/><polygon class="cls-7" points="6.5 53.19 6.5 58.26 37.21 58.26 36.75 53.19 6.5 53.19"/><polygon class="cls-15" points="6.5 53.19 6.19 58.26 28.59 58.26 28.23 53.19 6.5 53.19"/><path class="cls-7" d="M12.12,72.73c2.18-.22,4.37-.44,6.56-.64q7.72-.7,15.28-1.25v-.12H12.12Z" transform="translate(-5.73 -5.07)"/><path class="cls-7" d="M26.21,64.33c2.33.35,4.58.75,6.74,1.17V63.33H18C20.63,63.58,23.37,63.9,26.21,64.33Z" transform="translate(-5.73 -5.07)"/><path class="cls-7" d="M32.32,68.12v-.8c-3.38,0-6.1.13-6.1.13S28.25,67.77,32.32,68.12Z" transform="translate(-5.73 -5.07)"/><polygon class="cls-7" points="24.8 56.04 25.47 54.93 17.73 54.93 24.8 56.04"/><polygon class="cls-7" points="12.14 69.34 17.78 67.76 9.83 68.34 12.14 69.34"/><path class="cls-15" d="M40.63,68.88l.12-1.18c-2.3-.07-4.64-.19-4.64-.19S38.1,68.16,40.63,68.88Z" transform="translate(-5.73 -5.07)"/><path class="cls-19" d="M53.45,88.73h0Z" transform="translate(-5.73 -5.07)"/><path class="cls-32" d="M134.48,144.91h-123a1.32,1.32,0,0,1,0-2.63h123a1.32,1.32,0,0,1,0,2.63Z" transform="translate(-5.73 -5.07)"/><path class="cls-7" d="M93.48,51.51c-1.13-.69-6-3.83-10.28-6.26l-.64,1.27,12,7.37S87.6,57,83.88,57.17c-6,.34-9.66-1.55-10.67-1.59h-.37c-1,0-4.41,1.7-11.05,1.86-2.39.07-10.16-3.55-10.16-3.55l12-7.37L63,45.25c-4.24,2.43-9.15,5.57-10.28,6.26-.65.4-3.15,2.2-2.91,2.55.43.61,8.73,4.55,12.3,4.75a21.53,21.53,0,0,0,5.83-.61,19.55,19.55,0,0,1,10.73,0,13.44,13.44,0,0,0,6.84.06c2.1-.1,10.49-3.58,10.93-4.2C96.63,53.71,94.13,51.91,93.48,51.51Z" transform="translate(-5.73 -5.07)"/><path class="cls-7" d="M50.44,54.32a2.87,2.87,0,0,1-1.75.39,4.24,4.24,0,0,1-1.91-.26c0-.11.7-.06,1.77-.34,1.62-.42,2.46-1.59,2.63-1.38S50.93,54,50.44,54.32Z" transform="translate(-5.73 -5.07)"/><path class="cls-16" d="M41.76,75a2.79,2.79,0,1,0,2.71,2.79A2.75,2.75,0,0,0,41.76,75Zm0,4.22a1.43,1.43,0,1,1,1.39-1.43A1.41,1.41,0,0,1,41.76,79.17Z" transform="translate(-5.73 -5.07)"/><rect class="cls-16" x="36.7" y="67.66" width="8.62" height="10.77"/><path class="cls-33" d="M43.09,80.65c0,.71.87.71.87,0v-7.8h-.87Z" transform="translate(-5.73 -5.07)"/><path class="cls-34" d="M48.71,77.24a5.2,5.2,0,0,1-5.15,5.33H42.4v.93H51V72.75H48.71Z" transform="translate(-5.73 -5.07)"/><rect class="cls-33" x="36.7" y="67.66" width="8.61" height="0.24"/><path class="cls-33" d="M41.56,75.25a1.61,1.61,0,0,0-.49,0,1.46,1.46,0,0,0-.66.31,1.27,1.27,0,0,0-.31.36.25.25,0,0,0,.12.37.24.24,0,0,0,.3-.1.7.7,0,0,1,.2-.23,1,1,0,0,1,.45-.21,1.27,1.27,0,0,1,.34,0,.24.24,0,0,0,.26-.18h0A.25.25,0,0,0,41.56,75.25Z" transform="translate(-5.73 -5.07)"/><path class="cls-35" d="M45.7,70.73v0h0l0-.05a.42.42,0,0,0-.09-.16,1.31,1.31,0,0,0-.25-.23A1.3,1.3,0,0,1,45,69.9a.31.31,0,0,1,0-.17.76.76,0,0,1,.09-.18,1.52,1.52,0,0,1,.26-.22l.12-.08-.14,0a.92.92,0,0,0-.36.15.54.54,0,0,0-.18.23l0,.08h0s0,0,0,0h0v.06s0,.05,0,.09a.3.3,0,0,0,0,.1.81.81,0,0,0,.21.29,2.12,2.12,0,0,0,.24.2.85.85,0,0,1,.2.17.16.16,0,0,1,.06.08v0h0v0l0,.07a.29.29,0,0,1,0,.18.36.36,0,0,1-.11.16l-.15.11-.14.06a.41.41,0,0,1-.13,0h0l.11,0a.66.66,0,0,0,.38-.08.56.56,0,0,0,.21-.2.5.5,0,0,0,.08-.35Z" transform="translate(-5.73 -5.07)"/><path class="cls-35" d="M47.28,70.73v0h0l0-.05a.61.61,0,0,0-.09-.16,1.31,1.31,0,0,0-.25-.23,1.18,1.18,0,0,1-.38-.34.24.24,0,0,1,0-.17.51.51,0,0,1,.09-.18,1.52,1.52,0,0,1,.26-.22l.11-.08-.13,0a.92.92,0,0,0-.36.15.48.48,0,0,0-.18.23.11.11,0,0,0,0,.08h0v.06a.13.13,0,0,0,0,.09.3.3,0,0,0,0,.1.7.7,0,0,0,.21.29,2.12,2.12,0,0,0,.24.2.85.85,0,0,1,.2.17.16.16,0,0,1,.06.08v0h0s0,0,0,0h0v0l0,.07A.58.58,0,0,1,47,71a.64.64,0,0,1-.11.16l-.15.11-.14.06a.41.41,0,0,1-.13,0h0l.11,0a.66.66,0,0,0,.38-.08.56.56,0,0,0,.21-.2.55.55,0,0,0,.08-.35Z" transform="translate(-5.73 -5.07)"/><path class="cls-35" d="M48.71,70.73v0h0v-.05a.62.62,0,0,0-.1-.16,1.07,1.07,0,0,0-.25-.23c-.16-.12-.32-.22-.37-.34a.24.24,0,0,1,0-.17.76.76,0,0,1,.09-.18,1.52,1.52,0,0,1,.26-.22l.12-.08-.14,0a.83.83,0,0,0-.35.15.56.56,0,0,0-.19.23l0,.08h0v.15l0,.1a.69.69,0,0,0,.2.29c.08.08.17.14.24.2a1.2,1.2,0,0,1,.21.17l.06.08v0h0v0l0,.07a.29.29,0,0,1,0,.18.36.36,0,0,1-.11.16l-.15.11-.14.06a.41.41,0,0,1-.13,0h0a.22.22,0,0,0,.1,0,.66.66,0,0,0,.38-.08.5.5,0,0,0,.21-.2.56.56,0,0,0,.09-.35Z" transform="translate(-5.73 -5.07)"/><path class="cls-36" d="M65.4,141.48A5.21,5.21,0,0,0,60,136.64c-3.78.12-4.57,1.56-4.69,5.14,0,0,0-.39.19-.21H65.4Z" transform="translate(-5.73 -5.07)"/><path d="M71,142.3H55.67a.9.9,0,0,1-.89-.91h0a.9.9,0,0,1,.89-.91H71a.9.9,0,0,1,.89.91h0A.9.9,0,0,1,71,142.3Z" transform="translate(-5.73 -5.07)"/><path class="cls-37" d="M72,136l-13.68,0-5.1-32.38a6.93,6.93,0,0,1,5.53-8h0a6.78,6.78,0,0,1,7.69,5.75Z" transform="translate(-5.73 -5.07)"/><path class="cls-38" d="M63.65,102.24,69,135.87l2.94-.18-5.52-34.31a6.75,6.75,0,0,0-7.68-5.7h0a6.64,6.64,0,0,0-2.21.8A6.76,6.76,0,0,1,63.65,102.24Z" transform="translate(-5.73 -5.07)"/><path class="cls-39" d="M61.23,132.75h0a1.29,1.29,0,0,1-1.45-1.1l-4.17-27.92a1.33,1.33,0,0,1,1.07-1.5h0a1.29,1.29,0,0,1,1.45,1.1l4.17,27.92A1.32,1.32,0,0,1,61.23,132.75Z" transform="translate(-5.73 -5.07)"/><ellipse class="cls-40" cx="58.13" cy="139.05" rx="1.27" ry="1.02" transform="translate(-88.37 80.14) rotate(-46.38)"/><path class="cls-5" d="M75,134.18h9.37v1.65a5.62,5.62,0,0,1,.92-.08c2.84,0,5.13,2,5.13,4.42,0,1.93-6.37,2.33-9.07,1.22H75Z" transform="translate(-5.73 -5.07)"/><path class="cls-36" d="M80.64,141.48A5.21,5.21,0,0,1,86,136.64c3.78.12,4.58,1.56,4.7,5.14,0,0,0-.39-.2-.21H80.64Z" transform="translate(-5.73 -5.07)"/><path d="M75,142.3H90.38a.9.9,0,0,0,.88-.91h0a.9.9,0,0,0-.88-.91H75a.9.9,0,0,0-.89.91h0A.9.9,0,0,0,75,142.3Z" transform="translate(-5.73 -5.07)"/><path class="cls-37" d="M74.08,136l13.68,0,5.1-32.38a6.92,6.92,0,0,0-5.53-8h0a6.76,6.76,0,0,0-7.68,5.75Z" transform="translate(-5.73 -5.07)"/><path class="cls-38" d="M82.39,102.24l-5.32,33.63-2.94-.18,5.52-34.31a6.75,6.75,0,0,1,7.68-5.7h0a6.64,6.64,0,0,1,2.21.8A6.77,6.77,0,0,0,82.39,102.24Z" transform="translate(-5.73 -5.07)"/><path class="cls-39" d="M84.81,132.75h0a1.29,1.29,0,0,0,1.45-1.1l4.17-27.92a1.33,1.33,0,0,0-1.07-1.5h0a1.29,1.29,0,0,0-1.45,1.1l-4.17,27.92A1.32,1.32,0,0,0,84.81,132.75Z" transform="translate(-5.73 -5.07)"/><path class="cls-40" d="M87.23,139.82a1.12,1.12,0,0,0,1.6.1,1.2,1.2,0,0,0-.24-1.63,1.12,1.12,0,0,0-1.6-.1A1.21,1.21,0,0,0,87.23,139.82Z" transform="translate(-5.73 -5.07)"/><polygon class="cls-41" points="107.82 41.24 106.99 40.34 105.95 39.49 104.7 38.75 103.64 38.31 100.85 36.96 64.5 79.67 108.56 80.2 107.73 46.78 107.82 41.24"/><path class="cls-15" d="M101.06,63.38h-.69a.13.13,0,0,0-.13.13.13.13,0,0,0,.13.14h.69a.14.14,0,0,0,.14-.14A.13.13,0,0,0,101.06,63.38Z" transform="translate(-5.73 -5.07)"/><path class="cls-15" d="M100.57,64h-.31a.14.14,0,0,0-.13.14h0a.13.13,0,0,0,.13.14h.31a.13.13,0,0,0,.13-.14h0A.14.14,0,0,0,100.57,64Z" transform="translate(-5.73 -5.07)"/><path class="cls-15" d="M101.46,64h-.31a.14.14,0,0,0-.14.14h0a.14.14,0,0,0,.14.14h.31a.13.13,0,0,0,.13-.14h0A.14.14,0,0,0,101.46,64Z" transform="translate(-5.73 -5.07)"/><path class="cls-15" d="M99.62,67.63h-.3a.14.14,0,0,0-.14.14h0a.13.13,0,0,0,.14.13h.3a.13.13,0,0,0,.14-.13h0A.14.14,0,0,0,99.62,67.63Z" transform="translate(-5.73 -5.07)"/><path class="cls-15" d="M99.47,68.28h-.3a.14.14,0,0,0,0,.28h.3a.14.14,0,0,0,0-.28Z" transform="translate(-5.73 -5.07)"/><path class="cls-15" d="M101.36,68.28h-1.17a.14.14,0,0,0,0,.28h1.17a.14.14,0,0,0,0-.28Z" transform="translate(-5.73 -5.07)"/><path class="cls-15" d="M99.32,69H99a.13.13,0,0,0-.13.14.14.14,0,0,0,.13.14h.31a.14.14,0,0,0,.14-.14A.14.14,0,0,0,99.32,69Z" transform="translate(-5.73 -5.07)"/><path class="cls-15" d="M100.19,69h-.3a.14.14,0,0,0-.14.14.14.14,0,0,0,.14.14h.3a.14.14,0,0,0,.14-.14A.14.14,0,0,0,100.19,69Z" transform="translate(-5.73 -5.07)"/><path class="cls-17" d="M59.38,41.55Z" transform="translate(-5.73 -5.07)"/><polygon points="53.57 36.51 53.65 36.57 53.95 36.37 53.6 36.42 53.57 36.51"/><path class="cls-42" d="M61.14,33.1a17.53,17.53,0,0,1,.53-2.62c.07-.24.12-.45.17-.64a2.29,2.29,0,0,0-.07-1.37,15.93,15.93,0,0,1-.51-1.63l-.09-.33a7.8,7.8,0,0,0-2.62,5.55,32,32,0,0,0,.71,9.35c.06.16.05.19,0,.2s.1,0,.44.25.27.08.6.29c.68.43.69.89,1.19,1.06a.4.4,0,0,0,.39-.07,23.26,23.26,0,0,1-1-5.23A22.38,22.38,0,0,1,61.14,33.1Z" transform="translate(-5.73 -5.07)"/><path class="cls-7" d="M62.55,68.13A29.33,29.33,0,0,1,59.27,67a41.32,41.32,0,0,1-5.48-2.76,44.66,44.66,0,0,1-5.17-3.59,20.76,20.76,0,0,1-3.47-3.31c-.6-.76-3.76-4.17-1.35-7.67A4.3,4.3,0,0,0,42.4,53c0,1.86,1.79,6.87,12.41,12.9,2.69,1.53,8.95,4.64,8.78,4C63.29,68.78,63.58,68.41,62.55,68.13Z" transform="translate(-5.73 -5.07)"/><ellipse class="cls-1" cx="42.66" cy="28.86" rx="3.07" ry="2.91"/><ellipse class="cls-1" cx="47.62" cy="33" rx="1.92" ry="1.81"/><ellipse class="cls-15" cx="2.97" cy="3.06" rx="2.29" ry="2.36"/><path class="cls-43" d="M37.13,29.57a5.3,5.3,0,0,1-.34-2c0-.93.05-1.35.08-2.12a16.09,16.09,0,0,0-.12-3.06,11.85,11.85,0,0,0-1-3.33,12.12,12.12,0,0,0-2.54-3.46,20.64,20.64,0,0,0-2.73-2.08c-.24-.23,0-.55,0-.55A1.52,1.52,0,0,1,31,12.3,7.3,7.3,0,0,0,32.21,11c.69-.9.83-2.07.65-2.17s-.22.22-.58.34-.64-.07-1-.14c-1-.16-1.47.85-2.45.64-.21,0-.15-.09-.62-.3-.22-.11-2.09-1-2.55-.44-.14.18-.09.43,0,.94a3.28,3.28,0,0,0,.62,1.46,6.33,6.33,0,0,0,1.39,1.26.6.6,0,0,1,.25.27.5.5,0,0,1,0,.56c-.16.25-2,1.16-3,2a10.87,10.87,0,0,0-2.54,3.19A11.54,11.54,0,0,0,21,22.52a21.35,21.35,0,0,0-.09,3.64,25,25,0,0,1-.09,2.66,2.67,2.67,0,0,1-.3,1.33c-.38.65-1,.85-.95,1.06s.69.19.91.18c1.09,0,2.18.22,3.27.18,1.59-.06.68.07,5,0,4.84,0,4-.17,5.08-.09s2.33-.21,3.49-.17c.11,0,.67,0,.73-.18s-.22-.31-.51-.71A3.83,3.83,0,0,1,37.13,29.57Z" transform="translate(-5.73 -5.07)"/><path class="cls-44" d="M32.86,8.84c-.1-.05-.22.22-.58.34s-.64-.07-1-.14c-1-.16-1.47.85-2.45.64-.21,0-.15-.09-.62-.3-.22-.11-2.09-1-2.55-.44-.14.18-.09.43,0,.94a3.28,3.28,0,0,0,.62,1.46,6.33,6.33,0,0,0,1.39,1.26.6.6,0,0,1,.25.27.5.5,0,0,1,0,.56.59.59,0,0,1-.16.15.26.26,0,0,1,.12.15c0,.12-1.12,2.69-.74,2.89.54.28,1.59-2.19,1.82-2.72a.48.48,0,0,1,.85-.08c.34.67,1.34,2,1.68,1.78s-1-2-1-2,0,0,.06-.06h0c-.24-.23,0-.55,0-.55A1.52,1.52,0,0,1,31,12.3,7.3,7.3,0,0,0,32.21,11C32.9,10.11,33,8.94,32.86,8.84Z" transform="translate(-5.73 -5.07)"/><path class="cls-44" d="M31.24,9a1.47,1.47,0,0,0-.67.06c0,.15,0,.31-.05.48s-.09.65-.25,1.39a3.2,3.2,0,0,1-.63,1.53c-.19.24-.27.25-.32.24-.24-.06-.28-.82-.31-1.4s0-.68,0-1.1a4.46,4.46,0,0,0-.06-.54l-.15,0-.08,0a2.07,2.07,0,0,1,.09.39,3.25,3.25,0,0,1,0,.93,3.32,3.32,0,0,0,.13,1.51c.11.35.06.45.17.58a.81.81,0,0,0,.8.13c.46-.14.53-.57,1.18-1.57a11.76,11.76,0,0,0,.86-1.27,3.76,3.76,0,0,0,.32-1.16C31.86,9.29,31.63,9.1,31.24,9Z" transform="translate(-5.73 -5.07)"/><path class="cls-43" d="M28.94,9.7a4.46,4.46,0,0,1,.06.54c0,.42,0,.56,0,1.1s.07,1.34.31,1.4c.05,0,.13,0,.32-.24A3.2,3.2,0,0,0,30.27,11c.16-.74.24-1.31.25-1.39s0-.33.05-.48C30,9.29,29.59,9.76,28.94,9.7Z" transform="translate(-5.73 -5.07)"/><path class="cls-43" d="M27.27,11.7A3.56,3.56,0,0,1,26.46,10a5.64,5.64,0,0,1-.17-1.21.81.81,0,0,0-.67.17c-.14.18-.09.43,0,.94a3.28,3.28,0,0,0,.62,1.46,6.33,6.33,0,0,0,1.39,1.26.6.6,0,0,1,.25.27.51.51,0,0,1,.06.42.37.37,0,0,0,.22-.22c0-.11,0-.22-.13-.4A5.06,5.06,0,0,0,27.27,11.7Z" transform="translate(-5.73 -5.07)"/><path class="cls-44" d="M37.13,29.57a5.3,5.3,0,0,1-.34-2c0-.93.05-1.35.08-2.12a16.09,16.09,0,0,0-.12-3.06,11.85,11.85,0,0,0-1-3.33,12.12,12.12,0,0,0-2.54-3.46A18.84,18.84,0,0,0,31,13.84c-.22-.05-.3,0-.31,0s.54.38,1.37,1.09a10.71,10.71,0,0,1,1.51,1.55,8.88,8.88,0,0,1,1.61,5.1c-.08,1.56,1.1,7.81-14.51,9.16-.13,0,.23-.33.48-.73a4.32,4.32,0,0,0,.38-2.31c0-.88,0-1.42,0-2.06a26.22,26.22,0,0,1,0-3,11.47,11.47,0,0,1,.8-3A10.41,10.41,0,0,1,23.82,17a7.5,7.5,0,0,1,1.28-1.35,20.81,20.81,0,0,1,1.83-1.31c.43-.27.78-.47.75-.57s-.08-.06-.17-.06a30.48,30.48,0,0,0-2.65,1.72,10.87,10.87,0,0,0-2.54,3.19A11.54,11.54,0,0,0,21,22.52a21.35,21.35,0,0,0-.09,3.64,25,25,0,0,1-.09,2.66,2.67,2.67,0,0,1-.3,1.33c-.38.65-1,.85-.95,1.06s.69.19.91.18c1.09,0,2.18.22,3.27.18,1.59-.06.68.07,5,0,4.84,0,4-.17,5.08-.09s2.33-.21,3.49-.17c.11,0,.67,0,.73-.18s-.22-.31-.51-.71A3.83,3.83,0,0,1,37.13,29.57Z" transform="translate(-5.73 -5.07)"/><path class="cls-45" d="M28.26,30.51a31.53,31.53,0,0,0-7.17.89c.9,0,1.79.2,2.69.17,1.59-.06.68.07,5,0,4.84,0,4-.17,5.08-.09a14.92,14.92,0,0,0,2.41-.13A30.13,30.13,0,0,0,28.26,30.51Z" transform="translate(-5.73 -5.07)"/><path class="cls-45" d="M30.24,13.41s.08,0,.17,0a.83.83,0,0,1,0-.15l-.14,0a1.93,1.93,0,0,1-.37.06c-.3,0-.38,0-.76,0l-.46,0a3.68,3.68,0,0,1-.59,0h-.13a.36.36,0,0,1,0,.09.27.27,0,0,1,.17.08c.1.13,0,.36-.26,1a6.77,6.77,0,0,0-.56,1.8,3.16,3.16,0,0,0,1-1.42c.3-.68.3-1.09.71-1.35a.83.83,0,0,1,.73-.11.77.77,0,0,1,.33.39,2.57,2.57,0,0,0,1,1.2,2.42,2.42,0,0,0-.63-1.37C30.31,13.54,30.22,13.46,30.24,13.41Z" transform="translate(-5.73 -5.07)"/><path class="cls-15" d="M31.35,21.6a3.84,3.84,0,0,0-.93-.46,11.94,11.94,0,0,0-1.21-.35l-.76-.2a2.67,2.67,0,0,1-.46-.2,1.07,1.07,0,0,1-.36-.3.68.68,0,0,1-.13-.42.82.82,0,0,1,.37-.68,1.72,1.72,0,0,1,1-.29,1.43,1.43,0,0,1,1,.26,2,2,0,0,1,.52.71,2,2,0,0,0,.32.46.56.56,0,0,0,.41.14A.64.64,0,0,0,31.6,20a.81.81,0,0,0,.2-.53,1.7,1.7,0,0,0-.17-.66,2,2,0,0,0-.52-.64,2.4,2.4,0,0,0-.88-.49,3.37,3.37,0,0,0-.48-.12V15.81H28.22v1.77a4.12,4.12,0,0,0-.84.23,2.2,2.2,0,0,0-1,.81,2.21,2.21,0,0,0,0,2.37,2.36,2.36,0,0,0,.92.75,7.86,7.86,0,0,0,1.42.47,7.94,7.94,0,0,1,1,.27,1.59,1.59,0,0,1,.62.38.93.93,0,0,1,.25.66,1,1,0,0,1-.44.85,1.84,1.84,0,0,1-1.16.35,1.81,1.81,0,0,1-.83-.16,1.41,1.41,0,0,1-.5-.43,4.33,4.33,0,0,1-.33-.65A1.28,1.28,0,0,0,27,23a.6.6,0,0,0-.43-.16.64.64,0,0,0-.51.22.73.73,0,0,0-.2.51,2.06,2.06,0,0,0,.34,1.06,2.71,2.71,0,0,0,.88.87,3.49,3.49,0,0,0,1.18.39v1.78h1.51V25.88a3.74,3.74,0,0,0,.93-.28,2.51,2.51,0,0,0,1.07-.93A2.66,2.66,0,0,0,32,22.3,2.13,2.13,0,0,0,31.35,21.6Z" transform="translate(-5.73 -5.07)"/><path class="cls-46" d="M30.58,12.86H27.9a.35.35,0,0,0-.34.35v.15a.35.35,0,0,0,.34.35h2.68a.35.35,0,0,0,.34-.35v-.15A.35.35,0,0,0,30.58,12.86Z" transform="translate(-5.73 -5.07)"/><path class="cls-47" d="M22.11,7.91h2a.13.13,0,0,1,.13.13V8.1a.14.14,0,0,1-.14.14h-2A.13.13,0,0,1,22,8.1V8A.14.14,0,0,1,22.11,7.91Z"/><path class="cls-45" d="M20.7,30.48a4.46,4.46,0,0,1-.92.47c-.12.11-.2.18-.18.26s.55.19.81.18a3.78,3.78,0,0,0,1.36-1.15c.37-.52.6-1.12.52-1.18S21.71,29.83,20.7,30.48Z" transform="translate(-5.73 -5.07)"/><path class="cls-45" d="M37.21,30.59c-1-.65-1.49-1.49-1.59-1.42a2.28,2.28,0,0,0,.52,1.17,3.84,3.84,0,0,0,1.09,1h.16c.11,0,.67,0,.73-.18a.11.11,0,0,0,0-.12A4.75,4.75,0,0,1,37.21,30.59Z" transform="translate(-5.73 -5.07)"/><path class="cls-48" d="M30.58,12.86h-.37a.52.52,0,0,1,.19.39c0,.26-.12.44-.26.46h.45a.43.43,0,0,0,0-.85Z" transform="translate(-5.73 -5.07)"/><ellipse class="cls-49" cx="25.93" cy="20.11" rx="4.84" ry="2.82" transform="translate(-10.77 25.89) rotate(-57.11)"/><path class="cls-16" d="M73.06,61.79c-1.12,0-2.82,12.75-3.11,15a1,1,0,0,0,.12.6l2.52,4.15a.74.74,0,0,0,1.33-.06L76,77.39a.9.9,0,0,0,.09-.54C75.85,74.73,74.19,61.83,73.06,61.79Z" transform="translate(-5.73 -5.07)"/><path class="cls-34" d="M73.06,61.79c-.12,0-.24.14-.37.39,1,3.39,2.08,12,2.33,13.67a2.53,2.53,0,0,1,0,1.29l-1.28,3.5c-.13.63-.94,1.15-1.47.27l.37.61a.74.74,0,0,0,1.33-.06L76,77.39a.9.9,0,0,0,.09-.54C75.85,74.73,74.19,61.83,73.06,61.79Z" transform="translate(-5.73 -5.07)"/><path class="cls-34" d="M73.06,61.79c-.34,0-.73,1.15-1.12,2.83l.12.09a1.57,1.57,0,0,0,2,0l.13-.1C73.78,63,73.4,61.8,73.06,61.79Z" transform="translate(-5.73 -5.07)"/><path class="cls-16" d="M74.27,59.45a2.27,2.27,0,0,0-2.14-.28,2.9,2.9,0,0,0-1.46,2.51,3.11,3.11,0,0,0,1.39,2.24,1.58,1.58,0,0,0,2,0,3.09,3.09,0,0,0,1.37-2A3.2,3.2,0,0,0,74.27,59.45Z" transform="translate(-5.73 -5.07)"/><path class="cls-50" d="M79.25,56.75c-2.5-.15-9.34-.25-12.08-.09a5.24,5.24,0,0,0-1.71.63c0,4.88,4.74,8.12,4.74,8.12L73,59.91l3.23,5.5s4.69-4.31,4.18-8.19A2.78,2.78,0,0,0,79.25,56.75Z" transform="translate(-5.73 -5.07)"/><path class="cls-15" d="M77.6,55.72a19.33,19.33,0,0,0-9.54,0,3.17,3.17,0,0,0-2,1.4c0,4.14,4.2,6.8,4.2,6.8L73,58.81l3.09,5.13s4.27-3.4,3.77-6.7C79.84,57,79.21,56.18,77.6,55.72Z" transform="translate(-5.73 -5.07)"/><path class="cls-51" d="M73,55c-2.75,0-5,.45-5,1s1.71,2.8,5.22,2.8S78,56.56,78,56,75.77,55,73,55Z" transform="translate(-5.73 -5.07)"/><path class="cls-52" d="M69.82,55.25V58a6.94,6.94,0,0,0,3.44.85,6.41,6.41,0,0,0,3-.64V53.76h-6.4Z" transform="translate(-5.73 -5.07)"/><path class="cls-33" d="M72.22,62.25c-.21.06-.31.37-.21.69s.34.51.55.45.3-.38.21-.69S72.43,62.18,72.22,62.25Z" transform="translate(-5.73 -5.07)"/><path class="cls-33" d="M70.55,76.71c.66,0,1.19-8.86,1.19-8.86S70.29,76.71,70.55,76.71Z" transform="translate(-5.73 -5.07)"/><path class="cls-52" d="M84.51,29.08a12.52,12.52,0,0,0-6.72-5.18C77,23.62,70,21.05,64.53,25a10.85,10.85,0,0,0-3.76,4.66A13.13,13.13,0,0,0,60,34.23a27.67,27.67,0,0,0,.65,9.93,14.78,14.78,0,0,0,2.27,5.34,12.79,12.79,0,0,0,6.31,4.55,12,12,0,0,0,7.85.05,12.42,12.42,0,0,0,5.08-3.57A15.51,15.51,0,0,0,85.22,44a24.27,24.27,0,0,0,.92-8.46A14,14,0,0,0,84.51,29.08Z" transform="translate(-5.73 -5.07)"/><path class="cls-53" d="M83.92,28.79a12,12,0,0,0-6.39-4.94c-.72-.27-7.44-2.72-12.62,1.09a10.36,10.36,0,0,0-3.58,4.45,12.49,12.49,0,0,0-.73,4.32,26.63,26.63,0,0,0,.61,9.47,14.42,14.42,0,0,0,2.17,5.1,12.16,12.16,0,0,0,6,4.33,11.36,11.36,0,0,0,7.47,0,11.82,11.82,0,0,0,4.83-3.4A14.93,14.93,0,0,0,84.6,43,23.06,23.06,0,0,0,85.47,35,13.52,13.52,0,0,0,83.92,28.79Z" transform="translate(-5.73 -5.07)"/><path class="cls-17" d="M68.85,35.24A1.44,1.44,0,0,0,68,34.9a3.2,3.2,0,0,0-2.25.63,2.2,2.2,0,0,0-.86,1.14c-.09.35-.06.82.16.93s.42-.2,1-.55a5,5,0,0,1,1.8-.67c.8-.11,1.2.12,1.35-.13S69.15,35.51,68.85,35.24Z" transform="translate(-5.73 -5.07)"/><path class="cls-17" d="M80.26,35.53A3.19,3.19,0,0,0,78,34.9a1.44,1.44,0,0,0-.82.34c-.29.27-.53.76-.37,1s.55,0,1.35.13a5,5,0,0,1,1.8.67c.58.35.78.65,1,.55s.25-.58.16-.93A2.15,2.15,0,0,0,80.26,35.53Z" transform="translate(-5.73 -5.07)"/><path class="cls-54" d="M77.76,45.92a.23.23,0,0,0-.16-.06.25.25,0,0,0-.19.09,5.82,5.82,0,0,1-4.17,2l-.4,0a5.53,5.53,0,0,1-3.73-2,.26.26,0,0,0-.2-.1.3.3,0,0,0-.16,0,.3.3,0,0,0-.1.19.26.26,0,0,0,.06.21,6.06,6.06,0,0,0,4.09,2.17l.46,0a6.28,6.28,0,0,0,4.54-2.16.31.31,0,0,0,.07-.21A.29.29,0,0,0,77.76,45.92Z" transform="translate(-5.73 -5.07)"/><path class="cls-53" d="M86.39,40.72a1.53,1.53,0,0,0-1.11.29A3.7,3.7,0,0,0,84,42.36c-.74,1.25-.24,1.58-1,3.25-.25.57-.52,1-.33,1.35s.61.36.82.38a3.48,3.48,0,0,0,2.58-1.14,4.36,4.36,0,0,0,1.35-3C87.43,42.35,87.16,40.94,86.39,40.72Z" transform="translate(-5.73 -5.07)"/><path class="cls-55" d="M66.58,42.13c-.81,0-1.47.45-1.47,1s.66,1,1.47,1,1.46-.45,1.46-1S67.39,42.13,66.58,42.13Z" transform="translate(-5.73 -5.07)"/><ellipse class="cls-55" cx="73.74" cy="38.07" rx="1.47" ry="1.01"/><path class="cls-52" d="M85.41,42.85c-.28-.05-.56.35-.79.68a4.2,4.2,0,0,0-.4.72c-.09.22-.52,1.25-.26,1.45s.68-.25.83-.37c.55-.43,1.26-1.31,1-2C85.79,43.27,85.66,42.89,85.41,42.85Z" transform="translate(-5.73 -5.07)"/><path class="cls-42" d="M68.85,35a1.44,1.44,0,0,0-.82-.34,3.2,3.2,0,0,0-2.25.64,2.14,2.14,0,0,0-.86,1.13c-.09.35-.06.83.16.93s.42-.19,1-.55a5,5,0,0,1,1.8-.67c.8-.11,1.2.12,1.35-.13S69.15,35.25,68.85,35Z" transform="translate(-5.73 -5.07)"/><path class="cls-42" d="M80.26,35.28A3.18,3.18,0,0,0,78,34.64a1.44,1.44,0,0,0-.82.34c-.29.27-.53.76-.37,1s.55,0,1.35.13a5,5,0,0,1,1.8.67c.58.36.78.65,1,.55s.25-.58.16-.93A2.09,2.09,0,0,0,80.26,35.28Z" transform="translate(-5.73 -5.07)"/><path class="cls-17" d="M86.84,33.93c-.43-2.43-.64-12.26-12-13.59a18.21,18.21,0,0,0-7.74.93A10,10,0,0,0,61.81,26a7.74,7.74,0,0,0-3.21,5.47,31,31,0,0,0,.74,9.87c.07.16,0,.2,0,.2s.11,0,.49.27c.22.14.3.08.66.29.75.45.76.92,1.31,1.1s.65-.27.74-.51a33.87,33.87,0,0,1-.69-6.54A15,15,0,0,1,63,29.91c2.44,2.88,7.22,3.54,7.22,3.54a11.71,11.71,0,0,1-2.59-2.53,10.66,10.66,0,0,1-1.16-1.73c.07.09.14.19.23.29a13.82,13.82,0,0,0,6.69,4.05,13.55,13.55,0,0,1-2.69-2.64,9.65,9.65,0,0,1-.79-1.17c2.47,3,7.6,3.73,7.6,3.73a12.46,12.46,0,0,1-2.68-2.54,12.1,12.1,0,0,1-1.22-1.78A12.94,12.94,0,0,0,80,32.75c-.87-1-2.84-4.22-3-4.41a16.18,16.18,0,0,0,4.67,3.07,19.71,19.71,0,0,1,1.51,3.65,17.42,17.42,0,0,1,.21,7.83c0,.48.74.13.74.13.3-.11.42-.42.52-.6.51-1,1.47-.82,2.06-1.57C87.07,40.37,87.16,35.75,86.84,33.93Z" transform="translate(-5.73 -5.07)"/><path class="cls-53" d="M61.68,42.36A3.7,3.7,0,0,0,60.37,41a1.53,1.53,0,0,0-1.11-.29c-.77.22-1,1.63-1,2.49a4.4,4.4,0,0,0,1.36,3,3.48,3.48,0,0,0,2.58,1.14c.21,0,.65-.07.82-.38s-.08-.78-.33-1.35C61.92,43.94,62.42,43.61,61.68,42.36Z" transform="translate(-5.73 -5.07)"/><path class="cls-52" d="M61.42,43.53c-.23-.33-.51-.73-.79-.68s-.38.42-.39.45c-.25.72.46,1.6,1,2,.15.12.64.51.83.37s-.17-1.23-.26-1.45A4.2,4.2,0,0,0,61.42,43.53Z" transform="translate(-5.73 -5.07)"/><path class="cls-42" d="M63,26.58c.9,2.24,4.23,3.84,4.23,3.84s-1.64-2.82-1.29-3c.17-.1.61.36,1.88,1.37a23.24,23.24,0,0,0,2.53,1.69s-1.5-2.41-1.18-2.66c.15-.12.65.21,2.43,1.49a9.53,9.53,0,0,0,3.09,1.5s-2-2.83-1.54-3.15c.2-.14.69.24,2.3,1.29a9.14,9.14,0,0,0,2.72,1.37l-1-1.61c-.28-.44-.7-1.32-.48-1.53s5.64,3,5.64,3a21.09,21.09,0,0,1-.79-2.87c0-1.18,3,1.15,4.45,2.19-1-3.52-3.33-8.26-11.22-9.12a19.47,19.47,0,0,0-7.74.87,9,9,0,0,0-4,2.93c-.08.2-.29.29-.33.53A3.56,3.56,0,0,0,63,26.58Z" transform="translate(-5.73 -5.07)"/><path class="cls-56" d="M68,38.77a2.1,2.1,0,0,0-.51,0A1.93,1.93,0,0,0,66.08,40a.26.26,0,0,0,0,.21.34.34,0,0,0,.23.15h.05a.31.31,0,0,0,.3-.18,1.35,1.35,0,0,1,1-.79,1.47,1.47,0,0,1,.36,0,1.71,1.71,0,0,1,1.36.66.3.3,0,0,0,.26.13l.12,0a.27.27,0,0,0,.18-.18.24.24,0,0,0,0-.22A2.32,2.32,0,0,0,68,38.77Z" transform="translate(-5.73 -5.07)"/><path class="cls-56" d="M79.9,40a1.93,1.93,0,0,0-1.42-1.15,2.07,2.07,0,0,0-.5,0,2.33,2.33,0,0,0-1.9.92.24.24,0,0,0,0,.22.27.27,0,0,0,.18.18l.12,0a.3.3,0,0,0,.26-.13A1.71,1.71,0,0,1,78,39.32a1.47,1.47,0,0,1,.36,0,1.35,1.35,0,0,1,1,.79.32.32,0,0,0,.3.18h0a.32.32,0,0,0,.23-.15A.22.22,0,0,0,79.9,40Z" transform="translate(-5.73 -5.07)"/><path class="cls-57" d="M74.36,42.09l-.07,0a.4.4,0,0,0-.32.44.91.91,0,0,1-.91,1,1,1,0,0,1-1-1,.38.38,0,0,0-.35-.39h-.06a.4.4,0,0,0-.39.38,1.82,1.82,0,0,0,.25,1,1.86,1.86,0,0,0,1.53.79h0a1.74,1.74,0,0,0,1.44-.72,1.76,1.76,0,0,0,.24-1.13A.4.4,0,0,0,74.36,42.09Z" transform="translate(-5.73 -5.07)"/><path class="cls-15" d="M141.47,57a1.13,1.13,0,0,0-1.57.47L126.66,82.31c-.31.57,2.05,1.11,2.36.53l12.91-24.19A1.21,1.21,0,0,0,141.47,57Z" transform="translate(-5.73 -5.07)"/><path class="cls-24" d="M140.67,57.24a.54.54,0,0,0-.74.22l-12.85,24a.58.58,0,0,0,.21.77A.55.55,0,0,0,128,82l12.85-24A.57.57,0,0,0,140.67,57.24Z" transform="translate(-5.73 -5.07)"/><path class="cls-58" d="M120.63,82.78H103.12a.24.24,0,0,0-.24.24v.21a.25.25,0,0,0,.24.25h17.51a.25.25,0,0,0,.24-.25V83A.24.24,0,0,0,120.63,82.78Z" transform="translate(-5.73 -5.07)"/><path class="cls-15" d="M137.87,81.74H121.24a.78.78,0,0,0-.68.85v.08a.78.78,0,0,0,.68.85h16.63a.78.78,0,0,0,.68-.85v-.08A.78.78,0,0,0,137.87,81.74Z" transform="translate(-5.73 -5.07)"/><path class="cls-24" d="M120.54,82.77v-.1a.73.73,0,0,0,.7.79h16.63c.37,0,.64-.32.64-.79v.1Z" transform="translate(-5.73 -5.07)"/><path class="cls-15" d="M116.65,36.73l-1.59,1.64a.54.54,0,0,0,0,.75.5.5,0,0,0,.73,0l1.59-1.64a.54.54,0,0,0,0-.75A.52.52,0,0,0,116.65,36.73Z" transform="translate(-5.73 -5.07)"/><path class="cls-15" d="M130.78,36.2H117.9a.52.52,0,0,0-.52.53.52.52,0,0,0,.52.53h12.88a.52.52,0,0,0,.51-.53A.52.52,0,0,0,130.78,36.2Z" transform="translate(-5.73 -5.07)"/><path class="cls-24" d="M114.78,38.05a1.2,1.2,0,0,0-.82,1.46,1.16,1.16,0,0,0,1.43.84,1.19,1.19,0,0,0,.81-1.46A1.15,1.15,0,0,0,114.78,38.05Z" transform="translate(-5.73 -5.07)"/><path class="cls-15" d="M132,37a.52.52,0,0,0-.7-.23.54.54,0,0,0-.21.72L141,56.94a.53.53,0,0,0,.7.22.54.54,0,0,0,.21-.72Z" transform="translate(-5.73 -5.07)"/><path class="cls-24" d="M130.31,36.73H118a.26.26,0,0,0-.25.27.26.26,0,0,0,.25.26h12.29a.26.26,0,0,0,.25-.26A.26.26,0,0,0,130.31,36.73Z" transform="translate(-5.73 -5.07)"/><path class="cls-24" d="M131.77,37.74a.24.24,0,0,0-.33-.1.25.25,0,0,0-.1.33l9.41,18.38a.24.24,0,0,0,.32.1.24.24,0,0,0,.1-.33Z" transform="translate(-5.73 -5.07)"/><path class="cls-15" d="M115,38.14a.43.43,0,1,0,.43.43A.43.43,0,0,0,115,38.14Z" transform="translate(-5.73 -5.07)"/><path class="cls-24" d="M117,37.24l-1.35,1.32a.26.26,0,0,0,0,.35.24.24,0,0,0,.34,0l1.35-1.31a.26.26,0,0,0,0-.35A.25.25,0,0,0,117,37.24Z" transform="translate(-5.73 -5.07)"/><path class="cls-59" d="M131.23,35.94a1,1,0,1,0,1,1A1,1,0,0,0,131.23,35.94Z" transform="translate(-5.73 -5.07)"/><path class="cls-15" d="M131.16,35.94a.93.93,0,1,0,.91.93A.92.92,0,0,0,131.16,35.94Z" transform="translate(-5.73 -5.07)"/><path class="cls-7" d="M131.16,36.37a.5.5,0,1,0,.49.5A.49.49,0,0,0,131.16,36.37Z" transform="translate(-5.73 -5.07)"/><ellipse class="cls-59" cx="135.68" cy="51.89" rx="1.35" ry="1.39"/><path class="cls-15" d="M141.32,55.57a1.3,1.3,0,1,0,1.26,1.3A1.28,1.28,0,0,0,141.32,55.57Z" transform="translate(-5.73 -5.07)"/><path class="cls-7" d="M141.32,56.17a.7.7,0,1,0,.67.7A.69.69,0,0,0,141.32,56.17Z" transform="translate(-5.73 -5.07)"/><path class="cls-59" d="M117.32,35.81a1,1,0,1,0,1,1A1,1,0,0,0,117.32,35.81Z" transform="translate(-5.73 -5.07)"/><path class="cls-15" d="M117.25,35.81a.93.93,0,1,0,.9.92A.91.91,0,0,0,117.25,35.81Z" transform="translate(-5.73 -5.07)"/><path class="cls-7" d="M117.25,36.24a.5.5,0,1,0,.48.49A.48.48,0,0,0,117.25,36.24Z" transform="translate(-5.73 -5.07)"/><path class="cls-46" d="M113.43,41.49c-2.68-2-6.57-1.19-8.68,1.8a7.43,7.43,0,0,0-.48.79l9.6,7.18c.26-.3.4-.46.58-.71C116.56,47.55,116.11,43.49,113.43,41.49Z" transform="translate(-5.73 -5.07)"/><path class="cls-46" d="M114.78,39.58a2.69,2.69,0,0,0-4,.51c-.08.12-.09.15-.22.37l4.64,3.47.28-.33A2.87,2.87,0,0,0,114.78,39.58Z" transform="translate(-5.73 -5.07)"/><path class="cls-48" d="M110.8,40.43a5.24,5.24,0,0,0-2.08.12,2.88,2.88,0,0,1,2.46.53c3.9,2.71,3,6.17,1.26,9.11l1.43,1.07c.26-.3.4-.46.58-.71a6.91,6.91,0,0,0,.76-6.84C114.92,43.08,111.24,40.51,110.8,40.43Z" transform="translate(-5.73 -5.07)"/><path class="cls-48" d="M114.78,39.58l-.13-.09a2.18,2.18,0,0,1,.79,1.88c-.15,1.28-1,1.49-1.63,1l-3.07-2.17c0,.05-.06.12-.13.23l4.64,3.47.28-.33A2.87,2.87,0,0,0,114.78,39.58Z" transform="translate(-5.73 -5.07)"/><path class="cls-47" d="M107,42.37c-.61.42-.93,1-.7,1.4s.91.31,1.53-.1.93-1,.7-1.4S107.65,42,107,42.37Z" transform="translate(-5.73 -5.07)"/><path class="cls-47" d="M112.86,39.85a.5.5,0,0,0-.72.1.53.53,0,0,0,.14.73.5.5,0,0,0,.72-.09A.55.55,0,0,0,112.86,39.85Z" transform="translate(-5.73 -5.07)"/><polygon class="cls-48" points="98.32 39.26 107.95 46.46 108.39 45.84 98.75 38.63 98.32 39.26"/><path class="cls-15" d="M113.9,51.22,104.3,44a.37.37,0,0,0-.53.08.4.4,0,0,0,.08.55l9.6,7.18a.38.38,0,0,0,.54-.09A.39.39,0,0,0,113.9,51.22Z" transform="translate(-5.73 -5.07)"/><path class="cls-60" d="M126.75,59.56l-22.68,0c-1.33,0-2,.94-2.31,2.23l-3.54,15a2.71,2.71,0,0,0,2.56,3.5h22.44a2.86,2.86,0,0,0,2.8-2.2l3.54-15A2.86,2.86,0,0,0,126.75,59.56Z" transform="translate(-5.73 -5.07)"/><path class="cls-60" d="M124.25,80.24H84a1.52,1.52,0,0,0-1.49,1.53v.17A1.52,1.52,0,0,0,84,83.47h40.3a1.51,1.51,0,0,0,1.48-1.53v-.17A1.51,1.51,0,0,0,124.25,80.24Z" transform="translate(-5.73 -5.07)"/><path class="cls-15" d="M127.81,59.53H105.9a2.84,2.84,0,0,0-2.76,2.21l-3.49,15a2.84,2.84,0,0,0,2.76,3.5h21.91a2.84,2.84,0,0,0,2.77-2.2l3.49-15A2.85,2.85,0,0,0,127.81,59.53Z" transform="translate(-5.73 -5.07)"/><path class="cls-61" d="M124.77,80.22l-24.47,0a1.2,1.2,0,0,1,.7.45.92.92,0,0,1,.18.46h24.39C125.42,80.62,125.12,80.22,124.77,80.22Z" transform="translate(-5.73 -5.07)"/><path class="cls-15" d="M96.57,80.24H82.46a1.62,1.62,0,0,0,0,3.23H96.57a1.62,1.62,0,0,0,0-3.23Z" transform="translate(-5.73 -5.07)"/><path class="cls-62" d="M94,81.41H93.5a.49.49,0,0,0,0,1H94a.49.49,0,0,0,0-1Z" transform="translate(-5.73 -5.07)"/><path class="cls-62" d="M91.06,81.54H85.8a.36.36,0,0,0,0,.71h5.26a.36.36,0,0,0,0-.71Z" transform="translate(-5.73 -5.07)"/><path class="cls-61" d="M115.84,68.51h-1.2a.72.72,0,0,0-.7.58l-.27,1.29a.73.73,0,0,0,.7.88h1.18a.72.72,0,0,0,.7-.56l.29-1.29A.73.73,0,0,0,115.84,68.51Z" transform="translate(-5.73 -5.07)"/><path class="cls-12" d="M115.51,68.67h-1a.59.59,0,0,0-.55.51l-.21,1.14a.63.63,0,0,0,.55.78h.93a.58.58,0,0,0,.55-.5l.22-1.14A.63.63,0,0,0,115.51,68.67Z" transform="translate(-5.73 -5.07)"/><path class="cls-60" d="M124.32,80.22A2.84,2.84,0,0,0,127.09,78l3.49-15s0-.05,0-.06L113.34,80.22Z" transform="translate(-5.73 -5.07)"/><path class="cls-1" d="M103.14,61.74,101,71.09l11.23-11.56H105.9A2.84,2.84,0,0,0,103.14,61.74Z" transform="translate(-5.73 -5.07)"/><polygon class="cls-63" points="93.34 60.58 98.56 60.58 99.34 57.11 94.08 57.06 93.34 60.58"/><polygon class="cls-64" points="92.24 65.47 97.45 65.47 98.23 62 92.97 61.95 92.24 65.47"/><path class="cls-15" d="M104,62.71h-3.47a.14.14,0,0,0-.13.14.13.13,0,0,0,.13.14H104a.13.13,0,0,0,.13-.14A.14.14,0,0,0,104,62.71Z" transform="translate(-5.73 -5.07)"/><path class="cls-15" d="M103.73,64H102a.14.14,0,0,0-.14.14h0a.14.14,0,0,0,.14.14h1.74a.13.13,0,0,0,.13-.14h0A.14.14,0,0,0,103.73,64Z" transform="translate(-5.73 -5.07)"/><path class="cls-15" d="M102.92,67.63h-2.55a.13.13,0,0,0-.13.14h0a.13.13,0,0,0,.13.13h2.55a.13.13,0,0,0,.14-.13h0A.14.14,0,0,0,102.92,67.63Z" transform="translate(-5.73 -5.07)"/><path class="cls-15" d="M102.77,68.28H102a.14.14,0,0,0,0,.28h.78a.14.14,0,0,0,0-.28Z" transform="translate(-5.73 -5.07)"/><path class="cls-15" d="M102.62,69h-1.74a.14.14,0,0,0-.14.14.14.14,0,0,0,.14.14h1.74a.14.14,0,0,0,.14-.14A.14.14,0,0,0,102.62,69Z" transform="translate(-5.73 -5.07)"/><path class="cls-15" d="M103.82,63.38h-2a.13.13,0,0,0-.13.13.13.13,0,0,0,.13.14h2a.13.13,0,0,0,.13-.14A.13.13,0,0,0,103.82,63.38Z" transform="translate(-5.73 -5.07)"/><path class="cls-65" d="M133.18,72.8v0h0Z" transform="translate(-5.73 -5.07)"/><path class="cls-65" d="M133.31,72.82h0Z" transform="translate(-5.73 -5.07)"/><polygon class="cls-65" points="127.58 67.75 127.58 67.75 127.59 67.75 127.58 67.75 127.58 67.75"/><path class="cls-66" d="M133.43,61.1l-.74,0-.68,0-.62.12.83,9h0l.73,1.81h0l.28.67s0,0,0,0v0h.1s0,0,0,0h0v0h0s0,0,0,0l.17-.7h0l.44-1.89Zm.11,9.09Z" transform="translate(-5.73 -5.07)"/><path class="cls-67" d="M133.23,72.75a.09.09,0,0,0,.17,0l.61-2.59-1.79.12Z" transform="translate(-5.73 -5.07)"/><path class="cls-68" d="M133.26,72.79a.11.11,0,0,0,.11,0l.18-2.61-.79.06Z" transform="translate(-5.73 -5.07)"/><path class="cls-69" d="M132.22,70.27l1,2.48,0,0-.5-2.55Z" transform="translate(-5.73 -5.07)"/><path class="cls-16" d="M132,61.17l.77,9.07a.5.5,0,0,0,.79,0h0l-.78-9.09Z" transform="translate(-5.73 -5.07)"/><path class="cls-34" d="M132.76,61.1l.78,9.09a.21.21,0,0,0,.24.15.25.25,0,0,0,.23-.19l-.58-9Z" transform="translate(-5.73 -5.07)"/><path class="cls-70" d="M131.39,61.23l.83,9a.28.28,0,0,0,.28.16c.23,0,.25-.19.25-.19l-.76-9Z" transform="translate(-5.73 -5.07)"/><path class="cls-71" d="M133.23,72.75a.09.09,0,0,0,.17,0l.17-.7-.62,0Z" transform="translate(-5.73 -5.07)"/><path class="cls-65" d="M133.3,72.81a.09.09,0,0,0,.1-.07l.17-.7-.29,0Z" transform="translate(-5.73 -5.07)"/><polygon class="cls-34" points="125.67 56.21 125.7 56.63 127.73 56.5 127.7 56.08 125.67 56.21"/><path class="cls-72" d="M132.86,59.65l-1.18.08a.38.38,0,0,0-.33.42l.09,1,1.92-.16-.09-1A.39.39,0,0,0,132.86,59.65Z" transform="translate(-5.73 -5.07)"/><path class="cls-73" d="M132.87,59.65h-.2l.16,1.4.53-.05-.09-1A.38.38,0,0,0,132.87,59.65Z" transform="translate(-5.73 -5.07)"/><path class="cls-74" d="M133.48,61l-2.15.17a.15.15,0,0,0-.12.16v0a.15.15,0,0,0,.14.13l2.16-.18a.12.12,0,0,0,.11-.15v0A.13.13,0,0,0,133.48,61Z" transform="translate(-5.73 -5.07)"/><path class="cls-75" d="M131.34,61.48l2.18-.18a.12.12,0,0,0,.11-.13l-2.41.19A.12.12,0,0,0,131.34,61.48Z" transform="translate(-5.73 -5.07)"/><polygon class="cls-75" points="125.25 77.87 128.78 78.02 133.66 52.44 130.25 51.75 125.25 77.87"/><polygon class="cls-76" points="130.21 53.77 131.58 54.05 131.61 53.91 130.24 53.63 130.21 53.77"/><polygon class="cls-76" points="129.86 55.62 131.23 55.9 131.25 55.76 129.88 55.48 129.86 55.62"/><polygon class="cls-76" points="130.45 53.04 131.04 53.16 131.07 53.02 130.47 52.91 130.45 53.04"/><polygon class="cls-76" points="130.38 53.4 130.97 53.52 131 53.38 130.41 53.26 130.38 53.4"/><polygon class="cls-76" points="130.52 52.67 131.11 52.79 131.14 52.65 130.55 52.53 130.52 52.67"/><polygon class="cls-76" points="130.16 54.55 130.75 54.67 130.78 54.53 130.19 54.41 130.16 54.55"/><polygon class="cls-76" points="130.09 54.91 130.68 55.03 130.71 54.89 130.12 54.77 130.09 54.91"/><polygon class="cls-76" points="130.02 55.3 130.61 55.42 130.63 55.28 130.04 55.16 130.02 55.3"/><polygon class="cls-76" points="130.23 54.18 130.82 54.3 130.85 54.16 130.26 54.04 130.23 54.18"/><polygon class="cls-76" points="129.51 57.45 130.88 57.73 130.91 57.59 129.54 57.31 129.51 57.45"/><polygon class="cls-76" points="129.81 56.38 130.4 56.5 130.43 56.36 129.84 56.24 129.81 56.38"/><polygon class="cls-76" points="129.74 56.73 130.33 56.85 130.36 56.72 129.77 56.6 129.74 56.73"/><polygon class="cls-76" points="129.67 57.12 130.26 57.24 130.29 57.1 129.7 56.98 129.67 57.12"/><polygon class="cls-76" points="129.88 56 130.47 56.12 130.5 55.98 129.91 55.86 129.88 56"/><polygon class="cls-76" points="129.16 59.27 130.53 59.55 130.56 59.41 129.19 59.13 129.16 59.27"/><polygon class="cls-76" points="129.46 58.2 130.05 58.32 130.08 58.18 129.49 58.06 129.46 58.2"/><polygon class="cls-76" points="129.4 58.56 129.99 58.68 130.01 58.54 129.42 58.42 129.4 58.56"/><polygon class="cls-76" points="129.32 58.95 129.91 59.06 129.94 58.92 129.35 58.81 129.32 58.95"/><polygon class="cls-76" points="129.54 57.82 130.13 57.94 130.15 57.8 129.56 57.68 129.54 57.82"/><polygon class="cls-76" points="128.8 61.16 130.17 61.43 130.2 61.3 128.83 61.02 128.8 61.16"/><polygon class="cls-76" points="129.1 60.09 129.69 60.2 129.72 60.07 129.13 59.95 129.1 60.09"/><polygon class="cls-76" points="129.03 60.44 129.63 60.56 129.65 60.42 129.06 60.3 129.03 60.44"/><polygon class="cls-76" points="128.96 60.83 129.55 60.95 129.58 60.81 128.99 60.69 128.96 60.83"/><polygon class="cls-76" points="129.18 59.71 129.77 59.83 129.79 59.69 129.2 59.57 129.18 59.71"/><polygon class="cls-76" points="128.44 63.03 129.81 63.31 129.84 63.17 128.47 62.89 128.44 63.03"/><polygon class="cls-76" points="128.75 61.96 129.34 62.08 129.36 61.94 128.77 61.82 128.75 61.96"/><polygon class="cls-76" points="128.68 62.32 129.27 62.44 129.29 62.3 128.7 62.18 128.68 62.32"/><polygon class="cls-76" points="128.6 62.71 129.19 62.83 129.22 62.69 128.63 62.57 128.6 62.71"/><polygon class="cls-76" points="128.82 61.58 129.41 61.7 129.43 61.56 128.84 61.45 128.82 61.58"/><polygon class="cls-76" points="128.09 64.86 129.46 65.14 129.49 65 128.12 64.73 128.09 64.86"/><polygon class="cls-76" points="128.4 63.79 128.99 63.91 129.01 63.77 128.42 63.66 128.4 63.79"/><polygon class="cls-76" points="128.33 64.15 128.92 64.27 128.94 64.13 128.35 64.01 128.33 64.15"/><polygon class="cls-76" points="128.25 64.54 128.84 64.66 128.87 64.52 128.28 64.4 128.25 64.54"/><polygon class="cls-76" points="128.47 63.42 129.06 63.54 129.08 63.4 128.49 63.28 128.47 63.42"/><polygon class="cls-76" points="127.74 66.69 129.11 66.97 129.14 66.83 127.77 66.55 127.74 66.69"/><polygon class="cls-76" points="128.05 65.62 128.64 65.74 128.66 65.6 128.07 65.48 128.05 65.62"/><polygon class="cls-76" points="127.98 65.98 128.57 66.1 128.59 65.96 128 65.84 127.98 65.98"/><polygon class="cls-76" points="127.9 66.36 128.49 66.48 128.52 66.35 127.93 66.23 127.9 66.36"/><polygon class="cls-76" points="128.12 65.24 128.71 65.36 128.74 65.22 128.15 65.1 128.12 65.24"/><polygon class="cls-76" points="127.39 68.51 128.76 68.79 128.79 68.65 127.42 68.37 127.39 68.51"/><polygon class="cls-76" points="127.7 67.44 128.29 67.56 128.31 67.42 127.72 67.3 127.7 67.44"/><polygon class="cls-76" points="127.63 67.8 128.22 67.92 128.25 67.78 127.66 67.66 127.63 67.8"/><polygon class="cls-76" points="127.56 68.19 128.15 68.31 128.17 68.17 127.58 68.05 127.56 68.19"/><polygon class="cls-76" points="127.77 67.06 128.36 67.18 128.39 67.04 127.8 66.92 127.77 67.06"/><polygon class="cls-76" points="127.03 70.4 128.41 70.67 128.43 70.54 127.06 70.26 127.03 70.4"/><polygon class="cls-76" points="127.34 69.33 127.93 69.45 127.95 69.31 127.36 69.19 127.34 69.33"/><polygon class="cls-76" points="127.27 69.69 127.86 69.81 127.89 69.67 127.3 69.55 127.27 69.69"/><polygon class="cls-76" points="127.19 70.07 127.78 70.19 127.81 70.05 127.22 69.94 127.19 70.07"/><polygon class="cls-76" points="127.41 68.95 128 69.07 128.03 68.93 127.44 68.81 127.41 68.95"/><polygon class="cls-76" points="126.98 71.2 127.57 71.32 127.6 71.18 127.01 71.06 126.98 71.2"/><polygon class="cls-76" points="127.05 70.83 127.64 70.95 127.67 70.81 127.08 70.69 127.05 70.83"/><polygon class="cls-77" points="128.53 60.73 127.68 65.17 133 55.92 133.67 52.39 133.34 52.32 128.53 60.73"/><polygon class="cls-78" points="125.21 78.1 128.78 78.02 131.64 63.01 126.33 72.26 125.21 78.1"/><polygon class="cls-79" points="122.94 59.41 125.31 66.43 126.18 66.69 127.31 66.38 127.8 65.78 124.81 58.62 122.94 59.41"/><path class="cls-67" d="M128.5,61.48l.17,3,1.86-.79-1.85-2.28A.1.1,0,0,0,128.5,61.48Z" transform="translate(-5.73 -5.07)"/><path class="cls-68" d="M128.51,61.43l.72,2.81.82-.35-1.42-2.52A.1.1,0,0,0,128.51,61.43Z" transform="translate(-5.73 -5.07)"/><path class="cls-69" d="M128.5,61.48l.17,3,.56-.24-.72-2.81A.07.07,0,0,0,128.5,61.48Z" transform="translate(-5.73 -5.07)"/><path class="cls-43" d="M130,63.9a.56.56,0,0,0-.82.35l2.69,7.51,1.12-.31h0l-3-7.55Z" transform="translate(-5.73 -5.07)"/><path class="cls-44" d="M130.21,63.62a.23.23,0,0,0-.16.28l3,7.55.49-.59-3-7.17A.27.27,0,0,0,130.21,63.62Z" transform="translate(-5.73 -5.07)"/><path class="cls-80" d="M128.88,64.18a.31.31,0,0,0-.21.3l2.37,7,.87.26-2.69-7.51A.27.27,0,0,0,128.88,64.18Z" transform="translate(-5.73 -5.07)"/><path class="cls-71" d="M128.5,61.48l.05.81.63-.27-.5-.61A.1.1,0,0,0,128.5,61.48Z" transform="translate(-5.73 -5.07)"/><path class="cls-65" d="M128.55,61.38l.33.77.3-.13-.5-.61A.1.1,0,0,0,128.55,61.38Z" transform="translate(-5.73 -5.07)"/><rect class="cls-71" x="124.24" y="65.41" width="7.46" height="13.01"/><path class="cls-81" d="M130.27,79.82a1,1,0,1,0,2.07,0V70.33h-2.07Z" transform="translate(-5.73 -5.07)"/><path class="cls-82" d="M135.36,75.84c0,3.62-1.91,6.45-4.41,6.45h-1v1.19h7.47V70.35h-2.06Z" transform="translate(-5.73 -5.07)"/><rect class="cls-81" x="124.17" y="65.26" width="7.62" height="0.29" rx="0.07" ry="0.07"/><path class="cls-15" d="M131.7,60a.13.13,0,0,0-.12.14l0,.8a.13.13,0,1,0,.26,0l0-.81A.13.13,0,0,0,131.7,60Z" transform="translate(-5.73 -5.07)"/><rect class="cls-6" y="78.48" width="134.5" height="5.27"/><path class="cls-15" d="M5.73,88.72h1a12.86,12.86,0,0,1,3.12-2A25,25,0,0,1,16,85c3.51-.55,19.09-1,42.93-1.43H5.73Z" transform="translate(-5.73 -5.07)"/><path class="cls-83" d="M125.81,66l-16.26,1.47a1.45,1.45,0,0,1-1.65-1.23L107.73,64a1.49,1.49,0,0,1,1.43-1.51L125.42,61a1.45,1.45,0,0,1,1.65,1.23l.17,2.18A1.49,1.49,0,0,1,125.81,66Z" transform="translate(-5.73 -5.07)"/><text class="cls-84" transform="matrix(0.96, -0.09, 0.08, 1, 103.68, 61.54)">TR<tspan class="cls-85" x="6.07" y="0">U</tspan><tspan x="9.18" y="0">MP</tspan></text><image width="1024" height="1024" transform="matrix(0.01, 0, 0, 0.01, 98.57, 65.96)" xlink:href="../../../../Desktop/dWeb Branding/dweb-emblem-v3-shadow.png"/><polygon class="cls-86" points="120.75 71.13 107.55 72.64 107.11 68.52 120.31 67.02 120.75 71.13"/><text class="cls-87" transform="matrix(0.85, -0.1, 0.11, 0.99, 109.27, 71.52)">#MAGA</text></svg>